<mxfile host="app.diagrams.net" modified="2023-06-17T12:56:55.257Z" agent="Mozilla/5.0 (Windows NT 10.0; Win64; x64) AppleWebKit/537.36 (KHTML, like Gecko) Chrome/114.0.0.0 Safari/537.36" etag="iN3LMkOfeyFIODyJSStg" version="21.4.0" type="github">
  <diagram name="Page-1" id="EMWqGDvdh3wNdlDmNiik">
    <mxGraphModel dx="684" dy="472" grid="1" gridSize="10" guides="1" tooltips="1" connect="1" arrows="1" fold="1" page="1" pageScale="1" pageWidth="827" pageHeight="1169" math="0" shadow="0">
      <root>
        <mxCell id="0" />
        <mxCell id="1" parent="0" />
        <mxCell id="ZI1UuaGwZEScA0NQS_c4-5" value="" style="shape=image;verticalLabelPosition=bottom;labelBackgroundColor=default;verticalAlign=top;aspect=fixed;imageAspect=0;image=data:image/png,iVBORw0KGgoAAAANSUhEUgAAARQAAAA5CAYAAAD3NdQlAAAAAXNSR0IArs4c6QAAAARnQU1BAACxjwv8YQUAAAAJcEhZcwAADsMAAA7DAcdvqGQAAE81SURBVHhe7b0JuKRVde+9qurUGbpPz930AM08KYOAYVJBEdREUBAlGolec42JGZ9Ek3zJvV800dwbNTGjJg43URNvHHGKA5GAAzMyC0hDQzM2TTfd9HymGr7/77/eXVXdkjw2z6N0vqdXnV17Wmvttddee+293/et98Q+2Af7YB/sg32wD/bBPtgH+2Af/P8XalX8Xwka57zitVda8k672653OvWuIGqdRrfRjXq33YlOJyjqdGr1oUa72+l2a91Op92Odq3T7TSGG40uSA0hqbZeq3Xaqh0aGqrV6+1Ge7rbimhHR19i0IFGfIfr9Xo3hFgTfqvd6cC0Xm+M1NSSWtNfu92grkt5faTebqthUUeIQbSRE7mG6vVhNdBVu66PzpR5qmsj9VCZsPSNwO12nfJaUzR1l6kN9V0Y9bby9Vq9MaTGkQ86NS18UdfrMVLv1Gi0pfbhpKakI7UtqayRmhTYkgrFrqPedBuNWl1ZdKLOD7Wl4FZL6hSzIWlrRt1sd1u1Tl3lEqBVqw2PWLGdmRkRibArvUSrUR8arqt/gJjM1LpoS1qKaNYakl3pbFHNSweSrjU03BxDpZJM/dPXdDAGXbEaq9U0yOJhvQsUdWq1xizK69IDfVNCpkBz0ruGMVuotSnXt/oeUmGzoTYYN9mBVKmOS20tVY7JUjTO8K0pVqo7045GY7im8VAXJaFU0ui2NPoa206jEY2aFDJTa7fVSrs7XWfYJa462YZ7d2amJl21ai2NX4TElm7arZiWcdXrrekZ8Z+a6kxNTVE9w9d/AJMKGzK598N/NYcy8srXveHGxYsXH9uoN2NaJqrZ44pmY4hZ43QBTVj3UOYl86ZE08AVnrYh48mQLJKXLF6TQeXCNrnmaq2OH4GhcEVrtTHrwVE5ZKWtLjNGBXIjtC97xdMIryEc5j1IEGb7NI18xEYkr2qDcLFGahuUwUeyy3DNPxFpB+Q+1KNR8YIe/0IWqYSrj6ZStqlYs7vqDT4YCuXUX2J5NHNrq1aTyjRMj2HwaV+Ar4UWYvqDvHJWKoOXi0WX84Uy5Kh1m708SMjhnJEr7Vb8NF/7+hDIr6pOeqw3JB99Uz3tVeSNBqNXsXIflIZPGWQD6041PpJY3IxrKG2Z3lHVPrjkJJd4QiuHZjmLrPZRxMIhQMdygj74IDf1MCYvD6yWxUtsPTq0o/qWqJsaQ3VVK0QrHn7g/r+/8utf+VWk2NtBlvdfBmovP/fCv1q88pDzmnImLQ0Ik4wx0MIaWiCjISPDkphgGExjiEmsjK1C5VqxbTqqG9IEt0F64FWGk1G6LgfREC6THxdTa2tUlUyTEE6NvYXKNc3SQTSzBkeD4bC5wZmIWoujJ4BW5JRDgPEpoxRCpmjgeypiUarDgWUbuAb1UzS0ZywTyC1U/cLBaOn2pNEqm0FI4CEFLsFGD5X0Y3KLIu5aZ9GXGSGOaGkzS9xphyEpmr0RTdJXtIaStS9wDA6yOfRkJ1/xjiHlcNRq3w4Z3QqbZtXn7KmkNS8K0bP4qEFiOxFR0BYxuoQP/TOtcGhbA+7mtM8xD+uLcn1jK+LoyeuxMC/q6rIFeGBHqtMH3YJboSWWMlDQE9P7L2X2ggW+YmQBp6ki7ZfZFmVCdoV5OotUOMIqZhJSDls6wPaOkUIe/OP42NyTG53OZevWrX0YjL0ZUhP/BeB5Z5z10sOOPfHfxmaNeUBxBoSEzDO49vQaPyZAQxMmjY8BTTxPxArS8DCpxMGGc+VRHjRXU5ftlHJzoA0X8qU09KrP6eIazw1PZmig1WqrY4XKBowSeiaVJywFEFHINMi1EzGB0n46qZyUMGHSMbk9F4XjiV7hU6aENl6aYMiiD/2mXzhW60ZQ5B+EUicxKujXg2uHrLbMTajIKwn9DRT6wrcSS+U5gZAlC/hCb4xF4vdoFTxOBcSEXZ4Oe71y81eypboh7RAhqlRo6PVDIN+uiUrvs+9FthIDxq/qcOgzrsJ9pVz0j5Na0XdPVuE5WeUZJ8tovCw2LvyIvACWccx+Yn/GU8y44ot0bIud27fE5/7xQ30h91LAOe71cNLpLzjvmJNO+frw6IjGghWY3QEmkQPqVYIRw6FoNFgpanImHINwKi6DEhwBeVbnBlbt0SUShpcJ/vq4ZaKbP0CEMVTJEnJXoUQBFRbnRL3zLDfOS04XUq4E8vVwS4Wg4lfapi+WS/g62Ks6J0WRB8i+scKjl2onI31UlVk+kCZYP1WaAJQY8PHIjfQDGnWjzqs94bAbgq44cgIyuE/80X3h5U7ExNab9aQyigh2mvCkXKEvH/WJ6wknDubvOrVLf+lcqtntpG0oL0dOO24bHTndpx0MbAtwwDDDcdFQU5OfutQpu7Z+vlde4bj/xqvKGTfFHMc8hgN5eBd84uwDPDJmLJvqUHNsLJYsW7HffXff+XX1cK+F/xIO5cyXnfeDsbljUr0GT0qWCXsgPJBYKVkGh7g3uDIG7ft7xliVFRyM1sccgspcZ57VqqK2zBsS4bsOS0IG+FVlTCxvzy1U8vGk7tX3y6CGlw2NCSN+lJE2DTIYpeIvKGVDQ0PGQbTElREiXKL1IOWq6CuZPP17ZVnovD6s2JTRjuuruhJb7ipfZAHoM6u005Yk+ffGg3TVbzByYvfr7BA0CHAuQRV8W0R2WfAcbB+sbDfb6gfKKhRA6a7soRIPBSeOk2kHTF5XKY0OPB7KsxA5Fi0xX9YNaaBq0+PrbMaFn/PQVHICxfk5uD51A5iO+qqM2DZZleHQCBzLhmbNPmE0Zv597dq1j5h4L4S+heylcPoZLzp38cIFctRNe+1dFI/CsT5inIcCJ3XVmrbgsSLYGVS0zisN9AZZG1mvXgLTMZCZUz0rChO6MgRXgCtjJw89MTSSBxw7LHBkWLiSOjxqOuNzcQNK4aXD6++CSmz6is9gHiirFzLQLDtmcNjGg+fVTh/TgwAN7VPGJ4uMk/1OesujUMqAH87zTb6YTeomi8VP7ZeJRCjyEFdI+tCXlEmoDuiNkG1lXHYEg1DyOHxk46JmQp6laIeQRwn6mjIkz6zXV4YKv8hJvfmDR5COkZ3rc0AeQcDNuAR9mZ5g3bu8z99BvEraOlIABvmUMmUSj3LFdjhDXOeJmDfWaB51/CmfEtbsRN77IN3q3gvzXvyyC68anTU00ulK4VJygd6KnZYq5WsgKofjAWJQsQyMowyQMQWVUTDhXEY8MMi9AYcnCCoD0jUoTVYVXNj1yZ8iLWlMrsSqwGW0reDSytnAx+2kHIOhT8tf5pHGQcaVfaYueRX5kq8FkdwqE5i24uspp4JeO0zG/NM2G75ZB6C7lBG5aRtnSFvZlwI9XknmNoreKXIbSKrYDhpc5b36mxYk0SWyQuJQV+T22MFSMlKWuwnhVbrjiAAN7VCeY6c8skLrcsYp2+SulDNy5ilDLWZUJu6VDpEny0nv3pZj68GV2YaapB3APN1/fZS2vFV/GT+AMtubRVU5tOaVbVgfblOaVz1Hng7lzVkxNFKbv//Bh+x3z/dv/1cz28sgtbAXwpHHn3LI8884c9Xw3LFmUxpuS7meSgyYDbUaJCmai53ErPCAjyz0zBZBAaUUMbH610QGdwSFlrwngGKD0r5YxgA7rRiexGqgXM8BejzZQQgwFN9Hgl+KbDCeynt0u9UB8LFcA3hFrvzgCNR3lUFOXKBMcAO7IOWzXnTwgo/649u7A3RWVFWf5eqByehp1Q+lkW10ZCSmp2fEPnXIbsH1CkWfHhv48KfYE6WSvX+hOyex0yVRAX2Hh5CrMUi9uk+Sn/I+MfQqx1FI/7YB/eEQwCtOAVqXkRQZcjFpVewywHgVMIbojzLky/GoKgUebxXIHfX0bhrf4cNRSw/s4pCnB0qbSeosj685Fsjmxx+qrpY26Tu7Fdprq+yKSy45ZNWq2x5IrL0HKrH3Pjj5lFO+NHvenOZwQ/65MawQMayB4ZbckMTGa3vgPTY5CB50hbJTYXDKMwMaOg14DozpBKQJNqpqu9ozWp6RkrPIAadMNPpDDhWKZxoWdIVn0iMTQlm0Xjl5CEqeVQ7DI5Qy89FyRuCiX+aRP2UynhnTdk7srmTE7RQYNFzS4BVwkjIiWWWZwIkiXtAq9OkSgfwgX+Samp62Tr1CV21Qjj7AJV3KaLBs+42qL6/QZEgrGA/dNao6pcuYNLQb9TGPFpEFMnNPvr2MEh4PxYyD6xR7lwBv5OUum4rTSUSMjY1av335khkxoTgToKRTFdTrKDLU9Fgh35DyHlfhDMluhRHNoWGPIY8wNHR0cWjIgsFTeylv8k1diaYpnu5zw2luLgzJ8OBNPCxep7747OtEttedMPY6gYAjjzxy8bGnnPJ+nn9gu1iXQhlTDUEaqwaPVYVVB+OhrAy6ER0pFq0NHFoGq4IeroA0IXmIxCsKdpg4nMep7zkKygimIa4miSAnkgxEbdK2AV6VodhgxYcqdheuhhjexPxJ2LJqU9dQ3qz0xYU5gHK3TxodiBcrbLaPjqgoeHIVVbnzWVHJkXzAMS19MW1pJ8uL0yAAoBR+pGkwySQLQXWDUPKFTpjmXdpmIoqb88azsxZvdyTBcri+0qNpEz/Tiis9epeySzuEH6aBT1mI9FXVI2NOi4KT5QpV20xq5GWCE+iZamxrBQodTp+xtl4qfgB1+lYsXMtWlSl4ZNSXbDN5+VhafZrCHxsbGz9w+UFL77zz1q+a4V4Ce6NDWXr+xW9eO398br2rpQVv7iMOA6c/OwghMWk7Oup4MMtgyPsUw84JQgV/+lJ+l0ksoL4MIrZIM5iGKao6qr1NNkLme/QMukIxdq98iGo6cLTLwVhARjCiAblSWkHFz9/6wsB4jobaElzpgLkJ1Jek17flqniYd6aBdBCZdgKZlUIOZE0DN8eKfcW/AsvSwxuQp4JBGrct5BwV5aFRGZSZrlZlURGDz4TsoEPhIJv7pHJSDWQljdhV+6qsygbrkAIyYo2FFhwHpaHLkDs+6G1TwiVv52DRysKhKVG1Z0fnMu04VO5dY6EjrbipnUTKwaTPQLnTwklnkrs286voXKfg288skA4pA7uSdIBqR/zdZ2Rg14Kcde1wGu1YuGzFTx16yKEH33bLjV+m/3sDlFHaW6D5prf+5o0LF85jY2jFA76Vh3Ex0gIGp60JlwPDgFZ4+vRoGHielCUPmfIABgF9giiU9HlbgF0WQwEf4y4GxQS34ZqP6BSbo2hJA25fhmGgXOr1BTl/UHZOIK9I5EmrLWRwoFQx8llu5FJR4sIzOZHEycKLSxG9/vTkELh9pT2xRF8mDCyRHVyLmked7AMFKU9v9aWdAZ2iHw2Oy5JPTtqmygllwrhf9FM4pQyNimHVjNpTnbqUWeUp4slSP3hGqPiUMSE0NaaMax6Dsk8QgotTqHvSJY90Igqa0MJ039nluafGUULyqMaPyFPP6u/H8iudoAJ0wE7D10uU9bWaqqzVyp9WmJUAvnmROPVF37Fd5OVWNn2mnzhLLyxQagz5BQcyUMJ1OZ6Otq2IHzrhBgDy0Q+W1Fkj45KjHUtXrnyjSPA6ewXsVTuUi97w3z+83wEHv7Beb9YaQ20Z0nAOZFVfwEZUxZhpSTNYTZ1d2fIysctEs2GUoI8nfTEClxNhYNWux2VcWBTSwK7E/PTHIBtUzoToTUjF5AvvMqFIA4Wu/Oao0JR6QKRZXgG80wn2y3vtCeDpNqpQoCdjRYdzTJwsBjI5QKeYtvpZVkgeFE8eff6ZzpDtkO7JWuVxEqYZCJY3O5P4ypdQePZkF7hMcekzafOkkQpMowAO5UxWkq6jKcWucwH4ihnbil8pc45i5Labkx5xCHxoAxlLqPI4Cl9/gZeCnU5VR+AIbWdG6NFVsqoMoIw2vdCAozQ7EXiq0nnKixM3DU6WdsXsoINX7rj9lluudsUzDHuNQ3nJeee/4uBDj37v6EiTYfBkJjAI/rGvlF2MwoOiwWBnYfVSXinf52eS4PFNVYUDDbS+w1DxIma3A/BDNIABLGA+apsfio6MjNhgXE4jfZswDgNedjVPBSk/RtHP25hKWvRUlrzLlHZ/FSBnVc6GKxkqKLyICxTjBopxUl36l21DJ5OX/FxoLnySDnzS8G/LWaY8jEmPXgWs27RaArsDgG/ytI0sOcFyTCkfhCK3V3+nsp3BPO0Zj5sgbrvStYqoY8dBm1gHFzLZVYog+ai+xEDuurhgyyLEMUf1mqCevEpzsXVQXqDQAqQJlkf2VKpyR2R2AuTDLtBvX0d8F3qC5aINj0vSeIxclzh0LGUjRufsLJUX77F5C84aH6p97r777nvC7J9BoAfPOBxwwAFjP/vf3rpzdKzpW2K1Dj/ymrGhAvwszgNbrSqkHbQHrOW9SOFwcU0GIBti6PgFvnccDLhAqhdPDUJlJAwSDoQB42zqn6f7B4F5XmYX4YlQtYXx+oKt6iwDE4SB16BCpVqvhvz6FaBZ5Em6bC8LcQg5udI5IX/Wp0zInX0Cettn0XJrNnnCO/VArYPyLfGjL8Xp7QqJzxaKXRT4vM8BmTHkdD7SsfDYP9nABUnTb4M89AVcvwugGwiyT4xHNpLgcXDgWgvt2T/0SgFfRK7asp5U5l2NAB2UIxFgZwaeYs/JanwpoQXwOCpAbhrGg9g02UcmaOlU6SOxQxb25DEPwSBOSRMDPipKp9zZocz6qAAboql0iFmvL9f5eFrS6gdHPQMo+mTb0oYVQnvUcUewFlMT29vf+PQnj73pjjvuhuSZgtToMwxnvPhn3svqz1GQ1wN0+Mm/lOlnDQR59pWoKLRSuNM2GtyNJiFbQDy4kOvcHcKwpHlWXe4ddxoakmYOEHWsRo0q7yOIcDyYzAA5Gsj8RhRB2hoGIBmEykRECowbRwatXJD4qkXhpqFB45F3e57kKvTrPqp+2BAxFFAFftycJ3JV3wtuSYDMDuJNVnpySjgYH7h2RDwXQ5crPZVnTfzbH4pweNwSd1vsSmhHxUpzpcEOAM1JXsvs52wgVF50OAFPikp+cN0P8UmaHA/A9OjA+GbsPrajZd3RNTiAIy5Op06SlrwduvkkrtuhXIGdJfj0oygRtgBZj4Ni+tdsapFSnLp3ZdZLnx6Fqo6Qek7dFB7gA5arajNL0p4Kna/reKcjmcTUdumjCU6JI0GOm8eMlkXXuxaE8G6HMaN/si7ZGjFtogfat0yqZ/JyUZixHR6b23jRay6+liJkeqagcoHPHJz8vDNPf/ZzT/rwMG62rBhWmAZNMYosSmTQMSRiUI2nQWEgcyeSg8FHI+ZB1DB6W+tyEaeRi6paNaDF2EExhwo3DSx5wNql1GEVAmSjDaMLmNBeWcUPPOJByKNK8oGhY+G5DwWXdlSBEaUcoKbR2UFUZabHQWTG8hnPebOp9GFUvv0xzyxWuTWZ5UoR6DN3qiBKvYCsUNHkFEfmbDMBPpAkLk24Gcj0hQ+GOfrhYyway2K344lmXVYVAvc5Ez2dGp+4CqqwAdvfkWe8jKe02i53iaDPB/CEklz1jWzqo+zANOJhngo9XZKvIC/K5zUl4wED9dQJS84EHvxhebJdb7lVgDyyAT9g50/pixOV3FkGr/5F737/WVi5poMSKSNgz+yaJZaO5GOjxx171NHXX3vt58TqGYFn1KG84hUXvunUM1/0r2PDw5rrcqxc6pa2cmhYEbXyD3lYXMIQoXAGZ6Q5HO2ZlusBbIrf+6QjEk2iZYWAwarckcrFVwNPnE+6MuYMngbOngpcvnBmatd1hUOW24DEjheRYQo2wgoHKPlBWoByjAVJKGfis+MB4Em9eVfguxUVj3RYwlN7rPDp2+hg1YZ3P5JJRaVNVi8xpQAp3a0yoTnbk08eCWTtTEVjFtUEML0bNIb5U58Ot99XpKOsrLp26mztRefJAp5wmOx9HORIejsesSnXHRzUabestK9JVDH9cQ2VpN1WZkmTQLYC0IPAhzbJ+rYsuhR+0hNne5bVY6FjBTPWpbSafPIODvaSdJZZH+sVTNUhBiaV12xA7bdD28jHVUP30XVpu8hUFiHjNJuWJ3ff6C7T3nlJoq7aJDVr/pJjupMbP/nAAw8/aeKfMGQvnxmoHX3Ccz5UH5uF5qWg3Eqi1J4zELRarRxgK5vJwotqNKFaMx6QMggeCO8+wEniHLSGt4VcjR/miVsZd7PJ8Uo0Hnx4EzCwbCcht/q53c/gthTAIO2nH0UDkEd+11dhEEofhobSMZDO3ZKMrZpY7r9LEijDcTDJSj77mDs2xOIaDnTwyrfCpREWsPjE1afIwQca01X0QKInTo5Hwacy5U5Q2UDfM85+JG322VDJUOhBT5zMOxZOf9eYfIqsg0ZKS+AXXp6xFT9hG4edlCeloMhAfQnYBDZEWpi2DcagtFd2B4UOeTg69nSnqrKQgVtuAVNfnEDBVcLx2KxZFW3iEegH+EU9vXpCZRPg+bkU1StpZ1pkLW3UeZpcumeTj3M68+zz+Z3PM3L02dX6foJw3oU/e8GKgw+4WKqOoe5MTGuvPaSBSSOXiqtB8gBVuwTO30zGPEvqPK850GrP5GQQie/WKEb5DJJXVG05c9JoF+A5Iz7elXDxlUHRwGF9woVOlYysjFMcMFpGESpVQiMRnAbScRESPMiKd3cYBXy0Is6WcgUTgdm4QDwkZFv9hZd/yKbzN7eyPYkAlaEXfixJEZO6TB5HFV6RuxhellY7LmeEbWeU5dZVIsE0+dBfRU3GRQlrCJwqZHu0RSrbI69WihhmZf1mrvpWbH6OBOqnYnYdOFDKreuKCf0t7eAAKgTXJ0ZObPRFmR+v1wd+ALxKoISjQ7afZebHF2UVTZm0oBIXenYGSlimshMpOw6A56JwWJZDdMgFri/yk654sRgW51PDwald32WCt/iWB92EnnTwBk/pIR5sI3jxAF87LV+nyd1WY2h48bFHHt687vrrLncDP0F4RhzKSSedsfyk0553+ezZ4yO1mNaxAYXhKBhQlJnbOAy+JYfgbV4Z4IFJ6u08A6nAAJYzMwPJTkZFvXomkt8/Co4ngM1e/IUnPhiS31+qGi7k2nGp/TQU6hUzwStIYyfAPp1HMaJSRgrqAjIXfSuYpwCZ1a6fllQWQ+cViuWY43J4gie+pla9lAGxyOmB6ihXKCtrOro+FFmiI/3Rf31QgXWuz1BNxgleFawe0dAfJou+XQNb8LOL2X/qkxNneXAhVb46fmnaqV3plcmiSiQ2eWkjKaQ3fSvksQGSvGaB7AQmU4EcZ8VMXumIiZd6zGdC6J+sRd+SwbFbSJFJ9+SseFcCwce6UrvolhihaYtyNZL8jANuTvpcGMruhB6i3+SHDftGgfDztjROpvSFozf8kt7HuGzM8vvhOuj4qN79ktNA/tQBNNkOzgR9NJvD0Ryp1UbnLXpec6j29dWrVq2tGvuJALr+ScHoz7/+or96+Iktl55y2os+O3fh7KY2FzZawHdaBDxuz7EApaJcAjgYGOkycWdmZqzIUl5WAK4q+jc+SlIHUN/S0Ymt48TERI/PpNJjo6N+uhIoPOBf5Cq8S1uUk+Zt5YPPpYBDoB6aQl/iAtiuV2HhqNLxkOSCH7jlti945Ivcw8P5ODbOYtBhgFNkw7gsD7wFfPdWfU0QYviXPtL25OSk4yyDii/lZZzeUVmR6Xx7oB3eIA8cHGnKyDO5d+zYFrO0zaeOMupHh0diRv1hOg8rrbnm5jqUiXZsbCx27NwZw+ovchadogN4k6bcu03aZQIiT9UmYDn15/IKcsJlPTH5Ii+Qvwweim3btsWcOXNiVHK0ZF+zZ892e4B1PNOKUdkLF67ZIfPErqe52h9GLn0YA3T36Nq1wh2R7G33R6UplwTD0tkdc5z2kbZV6VGATXGfDMlygaWfolYo+qarvv7X0vhNTVg/s2aNxc6JHS7vdnh30M7YOdWMt//SxXN++oUvnH/pd77zE3kp06Def6zw1rf+4t8uPfTZv4aNckGVgcdMsX8UVSYmaQwHBbY0gEwmFIY552rGYEIk4eU4Ch140/4FbDVhFRcDhx9xGZDewCgwWfJ2rSareLlMAA47BZ7tcLoyQqAYOFB47Z62AEZHUGUqWgyQayI93CouToI0dZa9KoMHqDCVuMmWXBYav0dDP9TfqsKhXIMBBvsJjYE0Ozhlfc1IOMmzkpcJ7FVdckBivORp2d3ZlINxM6a8RbbBDlCVom8qUfpOkBvwqj8IsKdNaJMPz9bkE9Ouh04kmQMXKwJXYGKlzDud5Ny5c2Pr1q3UJs+qfcazlAlN0HeQZQdT5KA1312pnFbqRLKpyjjCd79xcMjG8009/gri1mg0fSR3nl2H+sXuhP8iwCMR9A+ZLB9NKV9sjDF3G6KDxjFiCWaw7UwmreRqaUc02tXCVGvHpvWbY2Zi685vfv3LR1955ZU/9pdcZ69/zHDey1580spjT/vQ/HmLpLNuTKBYKqQoFJATnv84k44FxXQ6LTQkQ8d58PxDHmGyLs0Jx+FCAStKwffRRkMN3x5uNclsCAqUO1DGNRUqwVVdDnwODjgMax6B+vL1QG15e+yzNQYp7N6sU16GkOjk9bfbao79MyVNo4CBQgAOZI5ND6QMjSZOI/vtsore/5amapcy00kciWfI3Q96FY74+I5KVgkXeSpeqsZwwYGHHYKs2rJVzQ7qgD4kgA9v0ioEB3WQM776lTXOe/cDSIdZCkhuM8wlh2JfS1LaTtf9dAPWBTJ6bCSfL45WR4hyNGYHBtBe9r8/Uft9SKl6ecXseFL3yMyn1CtdtQ+elaO/IhNSU15xEoheMlsm4yQ9fWxrYTIPyT64EwKH6yPI2b+ukjHymwdx1SY0eXE4x2yI/5xkxzMU8+ePxtR0u7nysCOe/+3LLv2E0FMxPybo9/vHBGef/TPHnfbCF900Z/6cJkpn9fSFQdWx/eW6hbdvKAcdMSACvpmjXKBkl4Ci8PooFGWiRBwK50xfjJOyc5UVJQHlw01JBsNbVH3sENC7W1EsmmJgyJCmgAEoxhB8DUATlWIXefq7HXiwMhUwittKp1OR/BB4BzVYr3RyqwwR3grIxZvcKcPAPXEUuG6QhgXASyIqD76qHawb5dl9MccLFKNM3Kqf4sGqV5yucWCiKnRNGuOUqnybvEldBabHIdBnfdD5UD1XYxj4uRZckfAItCmXaj31do4MiGJfu0I2cHnIkfbVVIsFgsbhhNNIMc3LDz9qRXa6Jxft5MoPE3TnPtFP0qLJf/fBzkF5vJ51oEmpcpYZ8Cll/P0EtWjcPyXxtZlPDP/LFWRG4Czx5LYjJs238jgNjuqUcYTlmIsdj+iI5Gt5lkeORKEcd2DpRxOQR7Kpl3ac5XqZgTrRAH762bhIATa4EU9u3BzTk1tu/4O3v/05RvwxQSXRnsE//e2ffnD9ZPM4DUy3Xu90ddTodqWnTme6267xj+xmpLjJ7oOPPdndsXXzya964y/Ob0xti6HmHClx0keTsnvg/+lwlXt6atqKyZVFypDSWjgc/hWdVl4ehy9PqM60Zqy0dPBpSPkPoXLX0VKaC18zM1MeSBsbY640htAyvUyI/6lHa8owATC4aZyHkemP+OBLLFdaMVt5O0TxYbiUcRkGaYOu+pBDCQ40TBKMT+hKWx5QXZfBbSgBmvupdHEQTPZESpnwEPQPHCb7yPCoeeddLvBom64yiTLONmGmMsXwBrTJdmyFWFrhliKCeVSrOmm1wUTC8ME2DRfSJTgsXIYTU8a0asu/lakAPi3ar5pjTPrbe3Gu5CvHNHriXwjDW+VMJLQLLvOZNuif/4GaIHUmKmXT8dKI6qtrHCiYaYk9UT6L6zYTOzwhy5EFns0hOUWNA8D7beGZuwUViA1p7/DULviMMWPinapkyzL0rHa0KyTv3Styq7zEPqrLHrnOgl3mRW5kyb4P7hSzTpTwFJRx5ba3+VOGHpUuekAHOv1oERiKL37tG/HslfvdMG8sYpZsZnio5o1ut8bxaIr/46ickJW//qpvvfcvPvRPX3FDewAp4R7CJy/58sZmIxY2dLattyajocnWbQ5HbXhck30iJifaMbFjUzyw6p649BtfjAt/43/Fr13001J208pBnXQWlfmWqFN8ows0yUrF0SMVaSOmWHnvZoitQAzcM951KDFXxuRfOoeBGoj9pzrFPEFbJnhWV+X0R/zMV4MIH+TCwApfuwylcRTIlzwwuCwvBuWHuhQXHBu5cQWK+bDCqtDt2Z+pvBhEmZxQIAlx8lWuCu12OlhPtqoONZDn4b9aE5mhRd+0k5MJPl0d4rm4SB10yESdHZfAOp1u2SloROzkRRF1fJc+lpO7GBWud5PKQT+sSYlz5X+l0Rby2LFWYwk+0FKnvWAI133LTqaYINBGJZf5KKa8V0bvVAC9dUITGrcy4bwr8diYm9gx7tIPz5LI/rhAWpyHGZsHDBEEZwR9ZhE5tUlJ6gxnxkVvxLEDUJV3TmARoSn6iw4lo50xyAIcTtGDWQqQ274nUWwetIcT8/WZcsertAd/peFp+3KdZBNf8LXQy3ENx89c8Pp480WviEOefXTMnjM/Roe4x4q8sgvFIzgWNTZH/X14w+ZNZ5560iJY7QlUXdgz+JcvfuXxZit2XHTRK5+lrP85K3DaaactfMtbfv3a8SWLjty+bVs8vmZVfOZTn4gL3/w/4nd+6ediUsZLp4uxku4FBoERq/JpXIjHcxnCdxINy6xVD+QUwZAyT3FVZR4lLulygRUitpHeDZHdDbcEBjFrqNOX0FmtC+DcbEgdDCelcT9Mn7HLB2L6IArnSetAJ5psj7ezydzUsQpXUKulE6NMCZVgQJUBCjDGSp2W1xJTLUNyGwIuCGb7yqgOCcrktRbVBwAcgqePJkRPBsnlnQw8KKjsmSLAq7AA/GyzxMnPKeIqJHs5CX3Kzs2TqmpPSLkD0M6U/QRb/AJlITGIxOxEZqdBBmBciEUHX/eyqiOmf/6uynAwg/WDsVJKg1v6R1HyYDPCO4aZ8ebYcwzQmNIf5KgqVJ66GWwHrQ5gZOyIr36bgJuwnnblA/T1PwhouR3rNm2PV1/8y/ELF5wTxx1/fIzPX6K6Wjz2yOovve1tb3vrHXfcsf3AAw8c/qv3vOdPn3Xq8395cnrmyROfdfjC5PGjQ6WBPYOZqfaW9Vs3Xa9kz5kA11133aZ3vvNXT5/euU07l50x4/dpNmL9E0/EjDpKh70jEC7rAYPB5VDUiYFTQ8Cx9JyLbV0xtJI2qVNpOBzKcecdnrGAj/nBB/60Bw3zC34aAAyAGCdgLkBpT9RC9v8vFg6OimIcGM7HzoT2TKI6VWLysNS0F57aUhkoHlzQqonr/hHof5X3tRT+F3JHE1KhpXapz4f2ss9cqFZk+YmTDy/1SZly16Tjoo6Z3eCl0dpBwEON4zTR10xnMqa0c5zSmEzPTMSMj5xoBQkxylwlM4e+Ur4emE9+6GuuyJpA0jkB54UsrKT8IryhPmVQnfCgIcB3cmoqvvz5L8QVl10mO5LcAq4fsO3netGT27Yq34qrvntl1FomktwdHUWRAXOFp74lk1du1RenNAi0VwCHU16g5F+so0gxsQ65kM3AefDId2LNfavjwQfWOH7ogfvRRk/+cq3u+3fcEfeo/t41q+MH96wyDterhFGNce6C0CKqLONJDJAuzxgZT0FJUZOGC3ZMnlihqmfcOKkzdzx/zJv2wE6+g8FttxsxOaldrMZ+RIcEpaT7HfHQw/df+9KXvvTVciaPi3THQw899OSFr3/9Wzetu/8zncnOLnP7R4UfHokfAaYmd+7UXnluld0Fli8/aphtu3bJ6okWMw3E408+4UEoZ8jeWNNhqauhAUCj+rYSbdqskODYEWH0SsNYddB4wjtWEQpm6+gBxdiFp7Y8YVUCX+J2vR3tmiZdTYZcZ+uuyPapj4USliyUgcBByASFQz5loZztqI8sIuaCMEl1zrzcRwXwGvSHvOoTXdt68UMa7sb4yW1ZuB/Ak4PASbRmpoVLe3DDURCqNsw3ZTCoDg2Urbaq3R59xsCQw0YsPjgjHNOtN90W111zTVz2zUtj9b33iA5au3bztazQKLDSZdsVc7cJDgbNXTd6lB9RZ7V0iCMr5Xzg7wktWnrP8WLhglkxa5RrYtPm881vfC02rFsXmzdukl+cidU/uIPzvfoyHY9veCzWPfJw3Hj9deZlWcWQhQMtEdh52ukXeRGkJzI60AfZFDOuxAWXsaUH9MkOQc5ty+bNmmwPi6/GBIetenT6/dtvj9V3r4r7710d27Y8GavuujPuuv2WmNRu/N5Vq+Oeu1bFTTfc6N2c5UA68S07wGxP+pEdk0bmXFSQOQVOOlFWToIwmEZeszVJVYZmk+yHQejMne1TMzE0s1NZHUtb7ZjRAjSxdTtbS9XuCtuenNp/e6u6PbaHUDavewSvvuCVr9cZ8VQp9+NPPPHE9qoYGPr5X/jF9y7Zb9FP0esdOybi7ttvjOGFK+NVL3+JNNA3UqnRivIkzogSl9Vk/JiOVSXHMoUj4eY8g6M6jgEzLc1InIGquAjr/6XS0oT0RFAZfOXKO1r5uvJqnRkNitqZntKeot7kOpmCWpDj4eIttyOYN7g7rknw3hQcGw9d8W86GBRf75F85TrFjFZS+kKDGA2yY5QqEC4GKlMV/3QMueuYgTe4XmlysrX1hZ2wzYdXmcxPBWVLmzp0S85nikkoHPG3WK6z4O4LuxB234cccojL58ydS637ZrzqOzkihxOpUxJVPLitJr17fhD6eWIuXNZj/0MOj+UrVsppjEquRsyZPyeWLd8/Zo3PjrGxWbFov2WqP8C72zlz5sW8uXP8AOKs2bP/w7ZI4+ydppMolnQp2y22giST6ZCtlGu8li5fEctXHhgLFy+JBQvY9Wcd437oQQfHgsWL4oCVB8QRRx0VRx51tGRfEQuXLJLci2NoeChmj4/blrxLwb1UrIFsizpsJscaBKQpgXwhSXkJrqnyJa7os8D5TFZlQBbFA+s2xOVy3CedeFzMXbiEe2gxNDq6/8olc1dfec119wllWGHkNa965blnveTst2mXuP7j//B/PmjiPYCBln90+NjH/vnS8QVzX7Zu7frYsX17tGrdydbMTLM+PNxYtnBB1EfGojOxI9Y9sSG+9sl/iLHDTo7P/NNHtRPRxJK1MrEw/q62XWs3bY2bb7s1DtMAxcxkXC8Pf+YLz4qtO3bGLddfHS96ydlx9Q3XxwXnv9o7kI3rN9gNfvVLX4+Xn//K+Nq/fsUXDUcXLooDF86Je+5/IJ7Y+GRc/MY3xQ1aje9ddVeccuaZse7Bh2Qgc+IHd90dZ73knLjjtjtiw4ZNcdFrf1ZlpDfGyOiseP4Lzoirv3tFnH7GWRqMbnz8o38XUzOtOPrZx8SoJvwjjz0WGzduiV/65bfEtddcFffcszpOe97z4nvXXh0Tckzbtk3Ez776grj8378do7NG4yUv/em4/bab/eOwJUuWxhe+dEnsLwN8XHwu/Lmfi9uuvz7Wbngifva1r/OtxAKDDmUXAxkAysGSWcUVl349Nm16QpNvngxmYQw3huKJTRvjrLPOjttuu024Q7F0xX6x/7LlceONN8ao+nrCCSeKWiPhC3uAzV0grkqUdnOHmGniwfRgDAzWA4M4hNtuu0XDPOW7G9zVOPGk56rs1jj99Od75bxdsp5w0klexb9/+23xXKVZVB7WjuGAlQfL6ZrdLnx7MTpTTG/Is/ss8EP4/lR4Wkxw6NA6lrNvjOi4Ln7r1j0m57ZCVfVYu3ZtrFy2QqfTWqy5f3UccfiRxn9cOMukVxqempgMHoHfqN0WrKanJuPAQw5NZyfx0DDlWlLs+Mp1lyIXQKo4R6BfN+BABH7mB35ikVyJ+wsBAAZ6+c4tq+JPfuc3441vfH0cfORRfqPdjISfeHKLFrQpHYt5y109RmfLfuaMxdT2qZvPOOPU55rJHsCAyn902LJ+7Sp+lLdo4bxYunJ5rFi2dPTwI49qHLx8eQzJmbQ0sfjNwUhzyILv1Ll4SsbCeddbNgETpl6fjm//2zd9Vr3v/jXaLl4f42PNmLN0Sdz3wENxpAaMc/hzn3OCdyHAo9oaX3/V97ydXr9xa0xO79QRbJt3HPtpleBFRwcceEDMFp9V990RB+y/TO00YtZwPW684abYsXNSSh+JialOLFg4Py6/4rI46KCD4ugjD48N69d5i3u9HMXqVToXS+DXX/yGOOclL40zXvjimDM+GlNTO2Pl/kt1Jt0et958XaxYsTTqmhyHHLy/DLEdhx12WDz6yEO+lTdvzqyYlpPcuWOLnNadWsW04s0b99X1MdFs09Z6+7YtMSpHcuedd3o+FMBwBo2nrGg+blVgp6PAjuSss8+J8191Ybz4JS+Jk08+OY49/jg5k7OioXaOf85z4jknHh9L91tqns858cQ48uijbdRMVvOtttW987vGqYReWwMxMFj2VGlgME8b6OeQQw+Szg+Iw4841JPqOZIvf1MVWvEPV/vIVRfeId7xtbQALVm63BPcx7gBnrvElb6wFILLKE6UXUAcMjZdXp0Bz0E2xGMC1M3m5wMsgEovmD/fRzpgTA7ZdwMlN+8xNkfh+daxZGdizxodjvlz5nghrJqTXF1fK6IVNeBAO5bjP4B+HeNRJQ2W2rwLDmO3C7i8G1tZ+OXAa83haE1zvaoVQ6obXzA/Fi/YL5ZqI7B40cKYOz7mPkxMyGifBjwth7Jj0+aHOq08t/psIqhx3pTBTE/sjPbUdEzOTOsooYOHcKamtrPrFkhxGjGrU0pt18fimGOPjuOPPioO3H9FvPyVF8bGTdti++PrY8V+C+P7moT8JuJbV3xXk5ClSfQ61mzf+WTMHRuOTRvWxopFS+MV550fW554LFYeemjwq8vVq++21z7q0CP8D6laO7bG2Jy5sVi7mKWLFmsiPxE7t26Mgw7YP8ZlMEz+0WHe5i5Z5fx+5bd+O9Y+tCbuveuuuP7aK+U4bojvXfOdOOSIo2O2tt53/oDJ34152g7PTE3FxsfXxZHPPiF++rxzfaHxWcccH7Nnj8bDDz0Sd9xxp7bq82PJ4sXxtS9eEt2Zmlasw+KIZz/Lv20ZmTUe23fsiGX77beLKZQJ7rTiQYPLyQI2ZssJWnk5jsaIjL85K+o6SjSHZ8dwc1S7OTl1OXkcS5PfA8nYmypvjo5EQ2MxZd7i5KNZaYMWsv0s2zXfL0eOygAE/bJdcYpjJB6fPScWLloW4/MX6zixn1fzOj/FqHPRjd/z6FhDW/qMS29cIIdPY4hJKzn4Y4I7KDPQ1mCblDvyZ1cAhxU9W3HPfDw1ns6MHIPLtaTx8TmUChoxrLE3CHfJUjlnUdKneYvm99oY0iKKDe6n8RybOz9my+aKJCV41JBBWdpwrfL0ZxfHrlDgqdL9OPU7iFMA1VM+OTmhOPU1VGvGjHb1OPNWe0e0iOmNdrHohWe/tk9NPlax2CMYtOEfGX7lzW+48KxzL7yEOwzTOA0NwLQmVstPvqaBIfymJzfG5Z/7v7EuxuPLX/pqLBkf0TbLlb6GUIyUTns4pVwmBx2ys1I9WE4CSCsctsM8qMyWrcs1EipkmF15XbarU2xZ5SSmd05oMklJ3Xz2ozWt3UmDM621rMH0xlMGpDADn44n4URrMobUDXpSPC5j5kel1f60Yn7Qx90SXnCT7yHR9hb+8u6kO+zIZDFdDZ4filPgR2MT2hKPydnwlCQ7p8EH1CD0E8DSYZmEGLtTlQ4cqQBjNEj3XNRuyYjf9Ru/HOe+/uI49Xkvij9/x+/FOeddEMeeeEp84D1/FGe86Kw48QXnxAff88448phnx8te+VrvGLkwXHpZDDJfm8kOqTwvASJS5K6pbNMT2GnmOaTIXGKA9O7ljz/2YHz6nz8ev/UH74qdcu4f+ds/j99+x3tjq3aIn/jHj8Rv/8H/iO1bt8U/fewf4jd/6+2xY2IiPvgX74vff8e7tEC0bGtbtm7REXKJf4CIhH5osQJfAGaXoH6UNtmJAXljIGVh/CHertWbf606i3fzqOzOW66Oo577AqfvvfOWeNaJp3rH/Zn/+3/i4ovf4ut1X/jsJ+Oi1/28JmTEN776hTj/goukpXp8/Yufi3PP+5noarH4ty9/Pl5xwavkLHn/Th+QjxvxTkv/vhVeyQmQJgxqeff6hH7/MibP+JFOZyfusq1O/OPnL41PfeC98Su/9uuxQDtV+svpAZjWfEFfjDVHUS6c3/L9W9//S2960+8YYQ9gUOYfGW697bZ7mBAYPi862rljmycTFze5W5FBnVNHkLmribdTZ0k/JKYyTzANNttHJirmysDirXE0KCKDto9SPbZA8ECQZhKqzu8zGR7W6juk4ZERycN21eCIyni3yphWf1ZAPDEXAxtSYo28yzSZFaN8nvJkBR9qjmiX1RYvcZNDQvgOExxl4zSGhiPEuzk2Zh4jisEpzzEMD2vl97+m1G5Bq+6QnBMPHvHINaswzmzWbBmtejWiXYPfrE47yAYO7fQmgzpqTMWe35WREaqJ7bxGkAvIbF//2y+/JU498SQVtONVr7lQR53jLM+rX/PqOO6448zv1a++IJ532mlqR2OE4xAdI+C7MZ6A5PuQ7eBYSPdxc9QYK1hkvh97RCsgnzzhBcydPR7HHnmI70SNj49rp7g0GtoZjM1uxv7LF4ukqSNqM5Yv5qKxymeNxZK5Y1HX2GzevCUefvhB4eioob55JRfPdA5KpaBVm6nH0m5C2hB8ud2Mrtc+8kCsXfuoj1ccdzY/+pDqcmHYrJ0vTrsu/tPbN4mco1Artm54SKu6dNidjk1r71XZpHo6HU+sXxOT25/wMW3zhkei1tqRMlbBEogxj/MTvHCWuqoeII8WKemX7g7Zr137txs+GTF68slNoU24+8uTv5wwpqZmNIfT3oyqNjl6sqA/sPqep/Wy610l+RHhqIMOOvgP3/u+NfzwCiH8K18p3Fs25cvE2L51c3z7K5+KhzbX4h8/94V41oHLvdWyshQAb/HoNTuWqsw6wPFUOfBJE2PTps3KLOeDM1KMk+IuER3DqdlxEavET9WCCz/TJx3GxeqScpnQT3eSoQxkowuSjLKcOOqtHV0WU+6kokx4Wy5wm04JlLZ8VVnRxVMBdLsbTIEsRwb1QLJOy7EO82hHQ23iMHHsytoZgu+JjnPUBGHy2KiVVikyMYM8AUlrDHEk5HMbnsH1AwHAsVcqFjBJid2icJA/J2fm5QSFy92oIV4crtJOfThGNDFntAuAbFg7ypm6zvsdHR9Ej0MHcVh1pHky29zKbpP0gDxAyedkwSapw4mks3G5eLrbPPaLFrosMPXcmUo3LErsnP0EcvWKUt4dA18OaE1jYj1qC5qG8KUIjjww50In7Tatg75sg0A5/AdrB3csxOZdldnGKijzrEI1+AVQBluFJePnJO/+q4/ELV//l3jrb/5uzF+8pLLLyuZV70WvWhiHtPh9/KN/ff6HPrrnj97T8z2GRzc+uMOK0IAW74ZFDa6cCMxtUK4cD2kbMlW9h4QOWAnQoBzSinKbhqExqYWTCPrwnZOubXpliFGGCF0PjfErZSrSeiuaMhmEV1l8udDIWsREY3L1nIlwcnomT8ultHcFOss7MFfNiU86E/AsiKDsuuCBMZZrRj5WEbsF6qoynzsGQJWWV6HA7vldQDIhAL/HmN2a9l2QriboMLentdNSz6T/lu+w5dhoZVcemeHIf6jL/lT9qtoZbI1Hxv1PwWV08EBj2e8MPM7Pc0E1HnIT9HTeC6zq9JNyrYA1TcfqlZ/odlhlTFCeFG5oYWlrtfdjAnWeENFRUY4xfxypIuGyY5Dhua1d29k1IEeGTCNCLi5pT3wkuJhop1jxpm+N7oxjJOZgwm/T/GCcAnbUbk8rr4URRtYpTkF4KkMsmoB3U8bCcXRQnkH5jLVbuWEgXcoJ4A0CedoehMQlVUY08bZt26Hx49ks2pIz11g2/V8feD0EO1BpWrsTy6J+bNywSduxPYdscQ9BR87Jndqd8MtJnrdAQibPjDxd6aT7LgNr6Fgw1JmKTZMybD+jpw6rrxLboUD5DQ4CucY8KwdDmSpYeA02CnBUaO1lwARQY6pSRu7JCkdKlJbSPCE06v49iGi5XuBVVPhOCxP5cI7E3p5ShsWJX2kSA8Pc4QcehLgYhsj6UGBfwPrvN7CpONtkFcv+JdmAUxZIO1VKEld4BdJYds0LQ7Gcdm1G22ycqAykvdPXqno7oIprcaYzMvR2A6fC7z6SX45Zvz0e2uOirScYgbRw8miWt7eTt0B13HXj/RtViSBp84IhDjvbzpHBeUAmWZiYtiG0JznlLHCOHiuvEvxwDaWrf8KghN70dVGCvivZgZLepcwfxTYFUsiqILk7WlzaGmMeNGxo75EOUmOlXUs3dFSW7TJadIHrYlHjsQ36BB/pRUxbHLmV5UlijkjoPy2yLwdxXya1IZ0Cg/VZ0sf1YlqlSyjwwzaSGnJawT3U185tE1K6rJEdlmoYy1arpWO6juJKQ4ezJc3NlUcef+Bp/dOwviXvGew0oQxhemrCFyAHO8oRiO6wOnMNgW3Y1i1bpD8Mi6oKVx0gthNycaU4mCj2Y9KA2uFXv/aiGC8XshhAGXFLeaMp+JHwioYtNU0UwLxLd4ucOBLSNnZLwPRPJ2Yc80hKJWwcNhLLgBElvwJIDmcGpey4gNJeARxIcSIcFUv97nhAMTiA9GAeIN/Rij8to7/5W9+MJ9c9EtP1sbjlqn/XOf9RIUTccdMtse7hh4TbjvvvuTMev3+19Kn2RVfX6lyg8Kb/JWCQSIVs1HpX0tBRZHhUw6mJX+mUb0KRDvzsTzVpFRgzQmdyKu7TEb0tZHYlq1fxnIzO9DLw9Wt+4KMaR7L1D64SPjuriHUP3isevHsY3rSDLcGfyaCI1IB++umUoeCUhGsYd40hz+iwg2vws1zZqPbTolCdkOqtHdLVlMa7GTs2PebFYETOe2r7prRbtTG9Y0dousrphu8S5i6sGdPbt4iWuyul8T5QBr2D0kVfJeirn67we4ubS3aFggeQ7NE63YnNWzb5rXKohN1JeU/MDsme8zV1lDTtuPZaP46/x5DWsOfQ5XZpWwOPQtNQ0rv1O5aKGh4a0eSKmNi5M+v5qNxyV7gYaS9NjwXkxdUfhp9LLCyANV6XN80KIEelsroquqpos/sRqekY6IofkO1V3JzWZNGRwHdtXJ/yD9YT7KmqNFLBtziANIbkDbBdLHT5W5zcrZX6QtPHwTQEVX8L0P9d9dhv46nKUA9HyjG5lMu//LG4/EufiGE53Osu+3x87p8/Eq3uSFzxpY/GlV/7F+lvJD77kT+LS7/4aTWkFVmT56kMoIwBfWpJR96FCigvjpL2na8cY6FRhb76XAf7kijduPpbX4mP/+Ufauwm46uf/5f49F+8I7palL79lUviA3/8u9GemYpvX/qV+Ls//5OYmpyIr372U/HBd/9O1Ka68eCqe+LOO26PD3zwr+Mv3v8+6ZEx7I9ZaYu46DjLy/ipnDrK/dWNR9c8HGvXP6ZdXSuu+e7l8ffv/2MvVjdd96341Cc+pFQtbrrh2njvO39P6J349re/E+/6f94iWuHceEO8622vi2arHnfdfHP82e//WkxsejxuvPbKeN8f/V6M+jpRX7Yi3yBYVsVlMTWOAuoiDNK6bqAsoT8mWYbOCSpTjrcS7Ni6NXi5NYu7x6TCJ13GiDqX+R6qDOppQGUFewy1D334I9qY8Bh5diLPpoq17OCh2TpyS/nO6y6Pe+95JF7z9nfFr//cubF1+6S3VF5hNOl6V+dNbTfkAQdsEApEXD9pc4SRA2ENwUtx8ZV76AwmtxPZcg8Pa4MuvhzH6g2cmXBmpu3QotEM/t0pjmLHtu2+EzM8NqKFbya271C9eI2MzZG31HqjpqbV8PCItrbit1X4s2aPe6pMbt9mGes8R6ItI3LSHrfcgImd2/1u1PHxuX5HaIGiK0IBNWOgjMnZczS7A+WqT13nbb6cxOJnnTW1GupszysluCIxrS265MHZdnX+YTcx1RyKMZ4/0M6k1VC/xKPBQYItPJwquZLvrlDaK7HlUDAudIq5dYvD8WFPY4Wu6M3uTmtadrNVE3j+iiNk5DOx4b47Y8Hhx8dwazKeeOzBWLrySK32rXj84QdiyYGHMyzxyJrbYv9DT9I4adzUBk6OW+6z58ztyVTCIKhKQDlWk5PUIKZGlegTGnteCcC7ZNFhhzuSowu0Y5nSRNwScxfxzEk3fnDbDXH0iae77dV33BxHnnSaH1tYc8dNcSi3mbvTcdcN18RzTj5Ti9VEfP/m6+OkU5+vMWhaxkEocg7KO9gHsEva46LYoSoH0ANQ8lU0kIe+G5u37YjXvektsX9zW7zy534hFi3az7bKLoUY/ty1xVZ5DAInfcYLzhgTiz3+PY+P/E8HXnreuX9Um2LFyos5dSl/piNh8Oc6o6PA6VYnNq1bG5vksVccfVK88JSfignuCKkDnDEx37KTIMenB5r0vBbg0Ttvizf9wsXx8te8Nqa3Phm/fdEr4oDvfz+G77kjJq75lrakjdhUn4qrLv9G3HrTNXHEiafFiJzZly75XDy6fmMcfNCBch6b4zOf+FhcdeWVcdLzz4iOJtsnPvI3sVPxykMOi/bUjvjCZ/4lnlj3eBx0xGHxiI4Et950U9x9991xzFFHxsaN6+Orl3xaW/CH4pBnPTtuvuG7sea+e6OrSbpw0aK48eqr495Vd8fWiYlYtnSpb0GuXn2P+G2MFQfs3xtgoKTtNpT2FX7pgLg3MZ8qVAaJXnefQFyw5DoEz+fgPHmgkJcYTehoUWfrrTp+zetLcDqC8tBhXTtHrJZrGb5uYXGS338GXiy8eFSgdnqyKOv+WD5iHIt4q4J6HCGhrV3myNjsypk1Yt7iZV4TcXrj8xcpVgZnQVp0PCYwb2HqcQQnPjKqyT/LsZ/jgdZ4SjjnEuuJuDx7UtK+m0E9Mis9Ojbqnz04z618Hefy31I0Ymx8jnlz3FiyYqXSOQZLlh+gtqX7RiMWq5z3qjMOS/c/kGZ8p2TZAQe7TylHArwIJZ2xQorqdJE/a/tAnsD8sUwUik4+o8croaSFo83lFjnhT376s7FsViOOPv6nYkR9bHXkOLXL5+nZia4cS3c4WnImLEQ8+f2xf/iHd4qBm9gT6Pd0D4GjR2t4OibZNchoZ2Jc4nOeZ6vclVw6h7ZlMBiVPk9u3CiqSlHCsWLNSaUkqjLnmViCmc5MfOBDfxpDmgBved1r4i//9x/HhonJmHfcYX6CcfjxjTH3hBOjPjInDjz08Fi6bIUmiM7iclr87mPzpg3mzbWcuQsXaLfBf1fr+mr3aac/3+Kw6ZdpxUknn67Vbg5ra8yfNz+WLVumCamVSnXL9lsRcxYsiVplwCOjc2PRkuXqnxyn+D/npBM9YQ85CIMThfsh/WgLXYzJ/R0IfoYGLE2wwXJonyrAcTDulauAazp33nFbXP2db8sxfjou+dxn4rtK88via66+Mi6/7NLgsYKbbrgurvrWv8cVX700br322mAv09XEMU9kdEwb8O2H4sDo0675hMF0jh27rYKf8gLg8Zuc66+5Mq745r/FjTdcLz30dVP4Dobd9VdubRLcUjW5dgfXu44dYbnDRVn/2GlRnwrMble+T9UGUMqz35kv/SiyA+QHeZAuNMqJQQYXeUL0eQMlTWx9JqLLgOSV+h4E8rxqlR+58g/vsP0YG46JKS0+nQkt/50YmeHp6ojh6Sl5RR2FtSAJ/oOt8n8OuzX/o8PfffBvmC7Rnpia3Dq97dbJCR2IY3RobLR76OhwcwUdn5iajjV33hp3335rHPKi18SH/+yPffvKW3ZNRiQuz5v4W0opSgbnsTV3x9t/6Q2x8oijY1TOYM3qNTE0viD+/hOfjw3v+RMdeaZi+f/4X1bahLb2Q+LVkcvAqfA2cMbTV69piWst4suxqd7hKn7Lq+kkU0jOgF/+8soBNMttM57Z6Ki+kx7Sd3kw5rbyNe0EAProOzai00Ir3Ep++iEcHmX2xHJR9otMpjEwo+5WNmhou8JgeTEwUbp/NXYh2pGIQz4sJ2D1BLjW5QtvyNtqR3NUxzQ5/fHer3erSSv25NFU4b87MEHtdnqyK/cUE4dAealjPIGWDLs1PaGVs+vH/5vaDRQ5k3fy2D3OwO1NnAM8++0UOoA8cnmHVJXvIp8/FU87pypNYgBEXTnCvgzmNoA7SDdIX8rZuRPvrp8CJf3DZal/ZNi9ruSJPU7qg/FcWujBS3vhuZrVjzwcb7z4DXHK4fvFS1/98zHCYwDN0Vi/8fHv/eW73/3fb7z7bv/b0i998pOfXXTgAc/jbu2LX3R2v+E9gKdFBHzw797f3TExse1d73zPodu3bx+8xVT74z9914ZmDC1iC37/D26Pe269ORaecE7884f/Oia28+SgJoDsa9CZ+DyudJk07G7++h1vi8uuujm+8O+Xx3f/9ZL4wJ//Zbz5f747zj3mkHj4fX8a9bPPiyXnnRvbxHPT2g3+JfDsWaPpdXUmHps1x78UPvjAA+N7N94QBx92uNpo67jyoC9AMQkXLV8ZKw9YHnfceUfs2Lw55i9apnNkI554Yl3MnTtfu50ZneXXqHypHGT+H5+xWbN9QffZxxwbd+n4xaPh/OhtwaIlcb+OQvzvn8ceejDOetnL1U5xFvSNHubEoqyUF0PBAEu+qqoMg9Su+Pp2KKaEDl2rbJYVXAUlocWp8E6P9TqSPabj3Zvf8hYjYJSgJye1rTImAas5FdleQk7mLMvbjJQVh5D9KFDyBNrv1bsfkhdeCtwdyZ1EH8d4u/FQznQFKENO1WbVAAzS4cy4s2Ho9bPCQYQKrwDpMknp76Bcbr3CHaTbPS4wiLM77EKj/g/ikfaTCr2yXdvK9IBOKyj5Yis4lDvuXxNvfePF8VPHHBjnvOK1Mb54QUxs3Rbnn/dKHtvmBlWB4c9//nN3zpu/+PCXnHNWn+kewNMiAv7qz9/X3bwzbv6jd/zeycrmLKng3b/3u1fV5i54PhdmH1x9V9xz07VRO+SU+NKnPx5Tmvz01S9IGnAoRQEFfOtNZcPsFGJEuNqGyYA7mqCNTiMmZQh1HYlYSzo7O7Fl28NyFbN8h2Bo9lhsevi+qOlo0hwei6VLFsUDa1bHgqUro9meiEceXR9z58zy4+rbdHY8cPmSeHzd2uhM7ojm+GI5kvHYvnV9TO7Usa05Fs2dT8ZMfSymWHEk6/iccU/++UtWxJOPPajdTS2Gx8Ziy5btMt7pmD9nXmzbsD5mLV0aCxcsdN96/WMXRJSm2QPXU6QRKQbywzpJBKpJFzxHGoFEV0aWOMjDadijS+X5IRzvcPXPD/ThEfDeIg+q+sMEh67w6YOmWg85YdChFCjp3cvsrAbyXL3Bsey+yxikH0w7TiEzzy6jKuu/hqEPdjgm69Ma33wV40yrfAHXSZyCl5CUflcsfxRbTxkKlPR/Vrbr2Clmoan67zx/Chy/C6QjTyi0QDkCFiBd8k4r/t6dq+Ltv/jz8dzjDouzzr0oeKK31a7HRa95FXcMBu/mDH/sw393z8ojDj/onBe/tM90D+BpEQF/+Td/1t2xo9X5zhVXnHnZZZddXRUDtXf+v/9zy8jsuXM6OpI8umZVfP/6q2Ni4bPiG1/+lLa7UmaXVxUyyRCALTtKZnVGnL5IRTHGteEpw1flvnweZiBUX/iZo9OU93mR9y9KqzrzFgrb2t7PBtiWK+/JriNS0mmyaMJxgRgZ+Euu5GiXO1bJU7v4XrpCqaKk46ts/bMKXfR8jIhTF2VlgjOItEe+x7eCUtbrZZU3lgrzrJ30fCMrV/XZ/YHj8v5X8oIGufg4PVgOKFa67wB0rFGRpXB7krpMUn97C9CndyQcOSGS2Q70oHHFSn0wPngJg2076W1FylV+j8P4M+W8s9IHnfISan+ES2yoWFUiul14AMjtfnjnBQL80+mRZ2xcagcIDfJU+ibNN3T+y3YlVk8fpOHJxVsjmzIdXlGnI+W54JtF+Y2MbiFZqVQtWA5lKHZ5VkoFTlOGjm645a74/d94c5x63NFx8tk/E80h2Wp9dnzvK5/8w/f/0+f/t5DdyOtfd8Evvu71b/5IQ4vwuT99TjLbQ3haRMA7f//37znwqEOPuO/Bx7Q9ePymoWanU+/U27PnLVzRasw5uMNdH53XNzz2UKy65aZ4PBbFlz//ab8jJR2BGtdXToD8JKRIgwoCbNQVCmmg/6xJTlTfrajKzFchTSXr/V5ZMTYvsUaGgmdZykd5oKVjDc8V9jwYplXVlTL7oKqIEhwPgPmlTPDLo4x3CG1xLDsIyYPzsqFadqdswEAbAbXvQoQyaahyC/qy7KSVSdoE90f8c1KkYTExkIfH47l2xLGwQLn9WACentSZNT+uc5i+txvJltEJshWAhutNfZaZyAkGbb+tlE994AGjKm83o9jcnezjA8ZBB1U5sa+tSJd9OVKPnKXcN54O9aQucsHdrqtqp3/RtgCqZkx4UNLDIGy4g2PNwbZHAxcC+ZTBo8j4KNQlsPWG/oynNA/UKeXb+uYBnaWBi51Rkcf10jd5uxXGlw951yUeY0I//TpUYwCduPK2u+MPfvVNccZJx8UJzz8n6s1Z0exOxE4hTG9+Ilq1Ee32W93585fUFs4diint9M5/+auSfA/haRFVwMshFowIjjnhmKWLZs2bNzZ/zsI5o7Pn1Yfri2eNzppTb4yMT01um/fwfffNum/NA7fd/9AjH03SvQ76M2IfPB3gOfRnBNiz78nblPtPBf2YYLCB3QVLYXm/1651heapyiqY0vqsqL8K/OiAl9pM4gXHHfyHzz39jMPanfb2Vnt4e2tq+8bpmfbWnVOTm1vdzpZ1a9c9cutNtz02GcHLlfL/t+6DfbAP9sE+2Af7YB/sg32wD/bBPkiI+P8ApTSDZb6o3iwAAAAASUVORK5CYII=;container=0;" parent="1" vertex="1">
          <mxGeometry x="356.82" y="519.9300000000001" width="149.95" height="30.96" as="geometry" />
        </mxCell>
        <mxCell id="ZI1UuaGwZEScA0NQS_c4-6" value="" style="shape=image;verticalLabelPosition=bottom;labelBackgroundColor=default;verticalAlign=top;aspect=fixed;imageAspect=0;image=data:image/png,iVBORw0KGgoAAAANSUhEUgAAAN0AAAD2CAYAAABSr4LvAAAAAXNSR0IArs4c6QAAAARnQU1BAACxjwv8YQUAAAAJcEhZcwAADsMAAA7DAcdvqGQAALwjSURBVHhe7L0HoF1VlT6+bu/99V7Te0ICSJXQEZAqVUAUHds446gz/masU535O6OOYwHsFAUUEJUiNaElISG9vOTl9d5u7/f/feu8Z5mxQwjBu15u7r2n7LPPuevb31prr723lKUsZXltxfSVb97ZHvK7f5Atpf/pukuvvGd2e1nKUpYjJKZ3fvy/2t12W9eiBS3ishbEbbfcmk0le66+4rLPzh5TlrKU5VUU0zlXvrPdZpKuSF2bBMNVsnTJQjGZC9LfOyjLFzaJ3ZGdzsTihy8+9/yVs+eUpSxleQViuvjK69vFYuvKF0rSunC1ZLJWsVgs0tHeIbv2HZYd23dLLjklf/+37xKPMyd93QdSHU1N/tNPPz0/W0ZZylKWP0IAune2l8yFLpPJJPl8SRy+GglV1YvV5pZkOid+j0d27zosU1NRHF6SRQvq5fg17RLxikzNjN5rKhb/8S9uvnmrUVxZylKW3yemcy6+vt3usnVZzCYpFACrUlEKYpX6liVisnnFanVIZWVItmzeKyMjk1LIFcVs4bF5OfO046QqbJOqUF7CEe97n3tm48Q/fvrTd8+WXZaylOU3iOn6d76/fWImBtCZ4cuZSWYAnkgR/9mcPqlvWii5kt0wOee1Sk/PqDz9xGbsx8n4k5IJp6Rl2dJlMjjUK29au0hWrWyVYnp4596d+/b+3Uc+dPnstcpSlrJA1Ly0Oa1d2XxOLCarZLNZMROAwBOlAFB5A3USqm6TdCYrlVUVUhGIyB13/UTBiX+AHsBqMovDYZNUOi1kzYpwQCxSlPfd8iaxFR39P330/oP/9a//dJpRalnK8ucrCjqTtdRVUpYzSwk2Zi6fF7uNkCGXEVYlcQeaJRSpE7E4ZGIqLksXdcoDDz4pmXRBCnkcyfNxnNVqAjCrZGJyQswlK0BbUHBecNY6OW5VRPLppDz+xCP/ONx98B/vueeelNaiLGX5MxLtMnBYSl0msBNNxWIBAALNEWqFYl4sVouYSXuwJ0tFi3iCNeILNwJkdvH4HNLZ1iZfu/U+AU4NcxPCc4s43ukySy6H70Ady+A1HDYrtrtkUWeTNNTZZcXyZtm6+ZmeyYmJD//HZz977+zpZSnLG1a0y6BgsnSZYR6azRZlJdqWNBVz2ZwkUwlxOl1EDtBAM7Ik2XRJOpacKEWYo2IqysrFi2TL1sOy4dmXiDw9Figj8qSpqVF6egfUZEXx2GeWfCEnQb9PMlmyYFZqqsJy8rpWWTS/RuIzUw/8+OGHvve9r375+6xgWcryRhMw3fVgOluXfqExCfARNya8u10OsF2RuyQNX03BpM4eXngPV3eK0xMWu9Wm4OK2b33rZ3qOQVeAKcDm8bg04jkTTYpVkWeC2ZkHJsGkAK7Naherw2DZ5qZaOX5VgzTW+cTvsG184McPvvyV//rX92pxZSnLG0DUpxP4dHaHQ4p5+HO5rAKP0LMAKASPw+6QVDoDDNH0tOBVAmhAZthH/qtpXSNWm1NMFrOsXroQ5ztl43O7ZNOLWyUHH5GmZRHnElTEsM1uVR/QZrZKHsAzsExwWzRKakY53oBbKkIR6evrkzDM1Pe95wKAOy933HnHR1uqQv/fpz71qXLnfFmOSTFAZynCp7NINpNR0LE7wOtxK0tZLFaAoiR2p1MyqZT6ZZlsVtmNwn35vFmqGlrE6qkWu80mjfV1EgoH5bvffRiAK4rL5ZOJqXGZmomD2Sxgsxrp6RsB0Axz1YJ3mq4+r1MSyYyWqayLay1d0iYH9vWQHFGfopy4bqks7qiQxlqP9A/0XrjlhRcP//fn/22HVqYsZTkGxHTx9de3m4v2riK5DUrudrmUkTIAH+xEUpBuJ+XZ7DaAkFFOk8SiUbAbGAt/RdIX++ssDmmev0ZYFlmxs61VHnt8ixw8OKDMFgzZYUo6xIbzYjA1E8kcmM44lwzHi1RWBWVsdFrMVgsurxQodktJvD6PpJJZgNjozmisr5bWppA013mkvsaHc0a//PTjP/nGd26/fbNxa2Upy+tTTBfedJPPU7Lcm8mbzqSOK8sAIASCw2bWfje7za7bSwQggMHIpMftlkQiqWyF0xRkOERMVpfUNi8Uu8ur35saalBGSe6773GwKMxXbDTjFYT5WCxlZfnSZfLc89sBVEKOUU4LwGySisqIjIxMsWT4gSacV5Sg3yXJeEbNVUZYnQ67WKxWgDct8zrqZPWyWpikhWLY47nj3z777Xc+9dS34IiWpSyvL2FUROWca67xu82uGSq9Agygczrtqtw2mIzRWBzKTmDQPwP7QNmtAGUBfmAqBSAoAxrAIXjJdg1NbWJ1V+vx/oBXqkKN8o3v3AsmLeg2Xp0whpco85jt0tcPIMdl6bKFsmfXYRF7UVYtXy5bd+wCpnFlnoNjM6mouJxe1It9ibgetqVSMfG5ImK1G32NK1e1ykj/lLz9mjeJy5SdvO3b37rq7tv/5xHjbstSlqMnvwDdnFx6480zkjf7CTwKzb6JyXGpr2+UKExK+ngEIhFIg9AGFhwdHVf/z+V2kSBRKABIOKCM6ob54vZXaWZLZ3ubhEN++e8v3wNwZdW0pD+nEVKLSdasWCw7dx2QLBiRUEqnknLTTdfIo4/9XKZnEmBY8ix8QJrCeGd3BcFewNUYFXXYXWDTFMqDL4p9drtVWtrapPtgr5xx8jxZtQINQCYtz294cdlA986e733ve8ziLktZXlP5P6CjXHL19c+ara4TyFu5Qk6sCjRADGDLZTKaBK0WqAKTfXr4DubL5fIw9RIAggGLYokZ1GBFV1iqm9phproUxB3tzfKDe5+R/oFRlGXTMKgBvpIUcjmpqI4A6FPYbJE8zEqbxQaWK8j6M0+RHdv3yeTEhAKVJmlVRVAmptBOgN0YDWXwhf5e/+AQqgvWK1pghppwHTdADmsTwL343OXSVBeS4YF9+J5Zv+Wllw5852tf69WbL0tZjrD8RtDNCcBXMNvsdMFwoBXgsks6mxWn3S7JVGo2+AFcQZELAIfL7ZQ8WCoPk9MIrsBHwzEmvBNQfn+1BOqbAD43fEKXtLU0yeYt3fLk05sU0AphmrM4x+m2iMvlkcHhMQU9gUmTt4RyQyGLzEwXpBXnDw70yrIVK+SFTVvF4/HC9MzAJwWI0Sq0tTWgISjK8NAIQMnSycAF1Bt3A5OZ2TFk55aGoATdBVm3ul38LvN/fv3rtw/e+a3bP8d7K0tZXm35naC77LLLXCW7c5/J5mikwptNYBKc4vN6ZXJmCqyXEzdNSmyjv0XmcXvckkqmJJlMAnx58eE791PIThawVl1zp7h81ZIGazY2VInXHZQv3/qAmGajpQXTrP8GnNhtYFt8nuu6IJbZixgIusGG02JHeXlsL4EJ3WDcN7/5ZHn4sWdwHFgWGGMQqL62Snp7h2CCMivGIlXVIRkZHtdaMSJLfzOZyoGZi9JaVyEXnL1MrMUpef65DU84nI6Pfubv/g6tQlnK8urI7wTdnFxy3Q1XW8yu7xnGJCwyKHkoGJF0OilJvGhCsp8PSGEQUwMv8Xhc34sAnmW2a4HMR8UmeOrbVojLG0BpFlm5fBkYbVS++72fApgGoxF8Wjn8ZwczFQGYQp6d8gVxOeC75XNg1bx0drbIwUM9PFLNSYLSajGuccklF8i99/1EgeZwwvxNA8ysJtBsB2u3tjTIwQOHAU52yFukvb1V+nr7jHxTnG8pJuR9t7wF10+Xfnz/jyYuPvetS9avP2FEL1aWsvyJonr9h8iFF97k8wQsuwoWayPNRwZOKOyrc7ncMjk9oyadJkvTHNX3kgIPWJRsNoOjAUraftjA6CVHJ1Q3zZNwpFYqKyLS1BBGhVzyT5/7Dt6h+PD3ONSIQRmgAEArSNAflJkY/MbZ6wBmUoA/d9xxy2Xr9r04FgCFH8p3RmI9bjQA7HDHNdeuWipj42nsj8vw2ATuwQB2c0utDI9E0WAYPmhdbUTGp6ZxHEov5SUY9EsM33nHbzl7kdTWBOXlF56UN5+5/t+ee/7F+z7xNx96AbvKUpY/SP5g0M3JVTfefFvBZL+pAEpSleU/MAWDKESBkWVShELDD4PQP+NxHGkeiyXF6XEQe/oiEArwtewOr7QtWgnQWqWluVoiwUq5656nZd/BXmDNInmAgZ32zP9kcCYcCsnYBECgIEdBwCTr0dxSB5M1J1OTUTUvGR0lY1VW+WGKJrUeZFHURpYtmS9DwxPig2nZ2zOALQXx+Xxq8vIIq4U5ox5JJ9Jgx5LUVNXITCIq+XQObUYRJrZdTj1+nlRXe+Vw1+bSoa7e911z9eVjp5144g/0xstSlt8ifzToKJdfc+NVZof7DgZL6K8xjA/tlywUknmV+hV/NNk4/QM/M3hhszk004XspUyIshhkISOa7W5paV8sNqdbWpvqwHx+6RuIycvbu2TL1v04FqwDRiPAXTimti4sBw/2A1wcU4TbUJMUzAfQt3fUS1fXIL7iLLQBBDdNSQ980d079qq5y75EkbyEAxUSqQhJX9+gLF+1UF54cQeuVICJadOXDeCzmO3KeHmYtC7mqKKhMIF5GTiy2ixiNaWko6lKzjhtiYwP9chjDz9y67XvuPHfz1i7dh+vUpay/Kr8SaCjXH3DO64smmx3FUs0wQxzUX04KKcD4EokU8oWiiwIycjpckoykcB2G3w35ivPAhb/CmAmAipU3SR1da3i9dhl4fxm4Mki3/jOEzIwMCJvXn+S/OyhDVI0gZcKVvF6bVJVWSGHD/dr2YlEStPHmDHT0VknXQAlux0MIfAF5qYFZq3BnqwzG4OAzysTMB+tFrtUVIYlFR+Rs845Ux68/wlQtYOWLVi0UXp7CWSTuJ0sE41MjkngJWlsqpXBgTHU3yxBn13mt4fl9JPaxZwvFA8dPPDMqqVLz1uzZg2c37KU5RWAbk6uvvnmT2cLtr8H1iDsIrCKz+9HyUVx2V0yMjqqwIJuilUBYdYIZyw6DX22SjoFoOAc9uzRdKS1mAGjNXcuQzmVCtwVKxaDsbKy8dmD8rOHn8N1jJEObWCvqtqwbN60Ty6+6Cz5/n0P4obAYmAicnBlRRjUBzMzV5A4AMkgD4FHdl27dqVse/llSWdL4nE6wYZmyWRSCl6mqzF6Skt53fFr5KWXdsnll50pd95xv1TW1MnUNPzBAgvieMEaGR4eV/O5xE55bC7ixFwuJ16fQ0p5PBM0Eh+65QyxmZPyzGNPllasXX2tw2169LxTzhvjUyvLn5e8YtBRrr7pnbfni9YbVUsBGvp17NNLpbMwwRwAWFxMABxQpR3rNEup3JxLhebn9DQAqCzJYUAw7gC6fD6vmSz1rZ1gFqZ8OcXpdEjXgRF5aeteyWRzOLeAiwHIQDwjm5dcsh4A3KXbhkbYgZ4HWAnQorQDoD39I6gfuzbYQqAhQH1qq8IyOjYpHP1QwLXtdoeEwn74hdN6bIEsDkCFQmGJJaOwSK1y2mmrZcvmlyUQwLnj44Jb1fqxq4RdIk63XRLsL8Q1auvrZGYmKrlsRswwa1vDTjkFLFgRxP2jHl/56lfP+Yt3vH9s/foTXzKeZlne6PKqgI5yxdtver/F4vhCDorMNLC5VDCbHSyCv1giLhz2IyWAAGYYh/zQdLRYTTpCnV0APKcEf4r9gQRgCYyVyRVl8epTAAYnyivJ8iUtKNMvX/7yD2VkbEqjp2QVmq/sLuDA2+rqKvH5PNLT2yNNjU1yqKdPkgDB6hUL5RBMUTIfE7ldTjQMiaS0tdXJ+FhUotimNUf9/H4PSjRLggnWaC84b0x1RUSi8bQOgbKC0iyWkhy/bjVM30E1bVmXQt4kk5MTktcGQcSBhoJpbW4nGhU2OjwPfiAHJL7puBZpgm9ayo6JuZjdMRON3tFWX//VCy64wMj0LssbUl410M3JFW9/5w9MJttl9PPYGc70MHYlsH/O7fKg1U+C7XhZI+RoYooZwMQhQ6lkUrIAoNPhwC5QJsTCAE02K0WzTRrbloGFIgCFSerr6jQA89Wv/RgmYgblk0VtakI6XXZxeTyyeOF8eeqZFwFymrdFCUdCUPCcXPG28+Rb335ATVAGZ5ilwiFHHENYBPg5agEtgsZmQuGQLEE5z724BcfDb0VD4fW5ZXpqEtcDW4Edg0GfNLfWyI7thwA8E5ivKGe8+WR54KGnWIz4wWrRaQAVjQ6nwWCE1IqGJS9ZWqj6jMJBP4AJC8GSlrdduEqGegZy27dve+688869+82nnPJlfRhleUPIqw46ylXX3/CFvMn2/qLY1X9iJIJmHn0l6jitUJuNTMgoIFiNfg/20+dzexwyNjYORjAyUFhDhuhp4hEEDfNWS9BfgXNNMq+9SqeC+M4dG2RfV5+ag4SqBjPxgUGSUCggXrdP+oaHUQb34Vo4lyC/6przNW/0ttvuxfUBWMkpy553zkny4E8eBhAqJQrTkGXNX9Ai+w8NGm0Bqm7FTQRCHonPcIwfHyNBb5EEAOWw2/TB2l0wNR0mWX/6GfL9H9yvHf8OJ6euEGltaZTBwUG9D0Zyma7GxqmyskKmozPiBGued1KNLJzXIF//n68WL7j4wkTenF19zVsuO4CTynIMC3XjiMmlN707biqZaadRJzXTI5MBq8C8Yse4EViBGQn2oLlZKpmlqqpCxuEnEYQ04ziA1gTfrFjMqA+WL1l15EK4sh4mpx2AckgnFLOQ98knP/sV+II0W1WVjYvifALWG/BJBj5mMBCED5nQfcxuOe/cN8lTG16WNNgtFLRKMFQpE2MT4g94ZGoqpizLfE+vLwDTchIM2yBDQ5O4AExnMFQ+C9PR7VY/lJAPhGEuYl88ntTz2KVR31gnYyPj0gEzNlIZlm3b9oDtCvBLE2BOO3w9m+aAkuV5j0Q2jXQ+LzccxkwmJrdcdYp4nCW567u3yyUXXyoDw4OdTdXV0xdeeOG4Pt+yHDNyREFHufzt7wKmwCLQJQZQOOjU6YCSQuHpy+XhjymwUBMlRXz2er3qB3HOlmQqrkF/dmhrnx8O1BxOq0s6Fp8E/whKCyZtba6VfMEq3/7ewzI5AXai2mqZKJS+IhS5tiYko6MxmKIoD/voY7JzPhDySi3AsL+rF1fBDtJZPiNnn/0m2bFjD5jJifMYaASs4JMuWtgpO/fs06CLMjdYzwOfjZ33JjAUr8mcTyeYLpVkdgxqgJtgI5PJwKTE/kDQg/MsMHnD0tPTK3anB40CWBI+KS3vbC4txrw1HE2B8tj/iWtVhx1y6rpWCXtFtmx+UUJ+71MLFyz4703PP//D8rwxx4YccdBRrrn55uOzectzDPUbeZUwsxwwswAwBlKy2TwACEbRo1kl+HjQUkYCqYG5dBKskJxV8rzuU58RL6+vSqqa5onL6cOpRZht1TjdLF+/9Sc4E35iCv4e+wB5bYIb57Qwktk7pNdj6pcOwCUwse+MM06UZ57ZpAEPzgVDxikWslJV4ddsl5qaOpkYHZZoIik+f1izVsYmJsHeVk0Ar6oKwTyMSSmPxgGNgdvFqKsNPmAKoLOqWe322GV6Mor6lqQCzO7zOaXn8KC0tjZJd3evLFu2Unbv36sd8TRvXWBSgi4eS+KeYLRbjcHFNHPdloKsXNYhxdy0NMHqnpmcSAc8njtDodA7r7jiCjqsZXmdyWsCOsp5l19e4/EEhzhJLbQbzEMlF5h0IZmJTgGAUFow39xwIQKStaNvNz0zKXYAg5vIWCWmoGE7RVkLZda1zAd71ANAZEq7tDbVyhe/dI9MTHPGBmzzeAGaNHwn+oZmsF6FzMzEAEoACxXhdTl0lmGdmtpKDfOnYY6aGG1kVXCOyZSTigjYEj4nt4XDFZJCgxAIBqVvaFisZkZYYXbaXLJydbvs2dcLoBhTF3KUBEfZE3jsRdRRE8IGBKAumqShsRLAG8F31ACM6LA4YEaHYfbmpaevD6CzCUfqc7AuyzHPRkCtDvZLFsXNUf5okCIhl1x0xlKAPSvfve22+DXXXt01Gh9d//ZL3j6hD6wsR12gOq+pWK+96V3Zgtlm0g5stNbsPnDDtEqxkxyfOQiWU/6RtYyBs/xX0hxKKt34+Jh43LCtAD76bWQ7BjKYZ1nftEoCkYjOo+l2WWT+/Fo53JOQb3zzIZh1hplHU5ZZK/6AX2JgJCnZ4SemUBLDKzQfDcDzrwbAHBufVlOYneVqqpoL0gyAcP4WVX5cm2MJaft53EG56urz5NbbHgCpFwAgMLX6qlYwolv9xlNPOwk+5FPgXTAvrrFu3XGy4dnnNfjCoUf+oFuGRmfQ2NjhP1bI8NCE+rbnwPfctHmvxBJRqaurkbHhMW0IyP40260Os2RTOXGiHLPVLCBXyUan5W8/dI6MDg/JYw//RC445/ziOeecZ7RqZTlq8lqDTuWyay/rsDkrDzAEz1Zex85B4Ri9y6O1Zj/aHONxLs1SKQ/lZh9eUQfQZuEXFYs5vOi3GbdAwOJUZauKujapqetQ8HjgI7W3ReS5Zw/JY49tlkye4DMD8FR5spdJ++RCIb8MQsEZEFFWgiKzaJqmCxa2yP69/fq0yLbGuUVZsWyBHDrUK6lEAiagRwf2MsUtXBGSsckYeKwglQD3qlVLZfeufTIyDpDjTNwKWDIAH86YQdsEc9gX8Ek0GidRsnrSUFsjk1Ng22wGpeTAfE4dRU//lQdwhP3qNStldGRMBoeHxe/1wA8Ec+J5Mf81GU/qWEG2EzRx6Tv7XCZ5yxlLJD52QJ5/9jk59dSTpaf74Fve8Y53/bypqam8rsRrJIbGHgW59qabr8lb7LdKweSkGlGNqeUBKOn4OIfdAID5PFpy+i+00MhoBjCp9AUAj10RcwnVhmAfQMOywjVNEqlqwflG5suyxfXw3+zy+f+6V8ahzLwmAafvPB/lNjRWSW8fg4FaG/iJYBFc1wZm7JzfoMCjYhP8ZGh2P1jMRakIhWRifBLgAIzBbH6/H4wV1Gjk+ERMGwiaz60tNVJR0SCbtrwoq1eulk1bd8A/Yw6oTQMv2Tz778yShFlr0yAK7t/JhsmqZrbdjiuDNQkgK+1bGMN5mJaRCo90diyA3zgFZu/V4I7LZZTJJAD6m1lOIoz6OVAO/kljpUeqQjlZuaBeXnh2g8SjMzPnnnf+584757x/RMFlOYIyp61HTa5/1y3xbMHmoZlIIdjsdhfYLA3VBrigeGQsbqcZpSMX8M6pFpglQvMunea8LRbiRo8haMigZptbOhavwT6XsmlNpVOB9cUv/VSGhsaUFeHgKbBoqjFIUVdTCZYzwaxktwD/MfjDxVDsEgn7JAQ/bu/ebgPw+FPfEwrtc1slwbUZoPBUarYU9D3b2lulh3PBYGMGoGLENBLx4foxqa+vlvHhSTnz3OPlgQee1IwWY5xgSaoqK7XLIp/Pit3tBtBA4wCvPxCAHxyW3v5+AN4qbg8TveOoJz672S8KZsPxlVWVsmfvHnF5XLgDNGCoWClPXxL+otsleTAog0CFbBoAdEhTFczR2KhE4T+vWrXyq1defvW79Qcpy6suRx10hnzCfPXNEzq3rI6BMzNf0gLW84EtMtqBPTo+CtUxzEG+DBAWxA5l1n4yACA6PQlQMtUsr4A1gSF0YiObS9oXHQeFc2iXxdKF1eKCCZZImeWbtz8gwzD7UmkGWGhSKtIUHOxGZ9eFPiRGOFE/goLXXrFymWx9eTvsWZMqvh1+VDyZ1KySRBIszLIAaMMsFhzfKVt3HkZZRpSUDURbW6sc6OrVhoQHMXNm3fFr5dmnnpXLrrxIvv/9BwCAxbIDpinrwNnOQpGwDA+PGkyL+wQP475MYoP/WDTl4ReyywLIByOWTDCVbWg2wKQrVy+UA3sPSyweE4/fq2MbaaqyC8QGfzCTyovX6xC3wyYfuHqZpKPj0nO4L9V0XEvl2SvOZsdmWV4leZ2AzpDr3vmXsUwx56WvRmEggoEPP5QkDr+JgQgLlJu4IDEqAHCc2+PV9fDCIZ9GHQkKMhAwqQrO2yxBGTsWrEArHwHzmWESuqS+LiQ/uOtZGRjulbPOWc8rys8f3wjmSEssmYOZlgUw2qW7B/4cCRTCCXf1qaHcU05aI9u27dXEbiq6Bmlw7fnzG2VsZEam41OSz9DPYoWL0tpWJYODCclk8zgWDKpPvyTtnZ1ysOuwMk8inta6s5wsWK4Edrvxhkvk1q/9WKoa/DLDwbiWHJ6NV01MNi7VNdUyMTEM66AgwWAI9U8a0dXKsExNzhgMZ0cjlacpW5BVaDA2b9opNfW1APCIVFQyghyVcDAgUzMx8YIJi7m03HRxpzz/5BPSNq8FjOnsuOGqGw6yxmV5ZaI/++tJrr7lfbfDaryRYKGlyMAA/TpWtVDISSbDGZ45wZBhhinzQXt5I8zgoJ+VATtyi+JNeYaYwTn4WNXQJhW1LSiO6WdpOW7FPCheXO66+3EZGZvAOXmwiV3WrjlBpqPTEgegWppb5eGfPi25wmxAR3FMYNCUs0lFpBK+4DBbAf7DFVmvkqxYPl9279qvwRUOgOVIinQ6Li0trTIyOi6JDG4Q5fD46ioGTmY0iMQbZ4c9R2SQ6eMwH3mDAZ9fFi5ol81b90h7Ux38xSmZjnFolBkNTlDSmYSkUjgfwgaJ5/D5hOBfMkOmWMrAXCfLciyiUwo5kzjdggYrqqMoyNR5mMBMXkC7BGvAIUvnV0hrdV4O7Nwuixct/efKSODfzznnHNjeZflThbr6upO3v+f996dzciGTpFlF+mkOmx2mEkwpaDW7FxhlVP+HJ+AuLAAe+8AoNKu0YxumHwMvhAFVkZ94QqiyTmpbFkD56APlpbHOD38tLI88ul2efPIlANQY/EO2YA0q4MstXtQhjU3wwcYS0tc/JHv3wyxEgUxds8GE65zfIgcO9BlpaAQfKsWrVlSExON2Sn/fAEri1H/0SQsSqfBLCj7gTDSD4xipNbJOOI9nb/8YyuY2XMCUE583LKkk/DZckDOXcTr5oaFxBfaSRQvxXIqyv2tIGxu/zwmQu3Q2NgfHCeJO0mBtmupcZ3BsYkLsDiZqi2RgBltsYNQsTHAn7hONB1oiANInfaiv1W5DnRy4blE6ql3SGo7K8ECfdC7s/PKN195YXr7sT5TXJegol7/rXQGXyXpPNmdez1HlDJ5wFIHN5ZJELA7ltUsOJhADAzTFTOw+IM1A+D8Vnn1dnIRWp4cAGzBYovtJoTjK4w9Ky4I12A7/B8pWW+mTYMgt3/72z6W3Z0JyMMV4JKlNO8cBAg/8t5NPWQ3me1YiVT6YbRa56PyTwVAO2fDcZk3Y3gvfiZcw/E8tQEAusnzxIpij23Wbmr34x/B+e1uT7D3Qi/tDIwCKSSYz0txYB7N2EOz9y0VbIhUBZSWN1qA+dpsR1UxmuF48mMltRw2N+WrecsFZ8tyLL8ko/T88o46OVoAZJmg2DVB5JDpDn86skz1x7CMfGodDJeJcBNSGOmQlHAnK5PiUnHbqCbJ5yw5xon7FUkLaal3SWZ2TQ10HJxavXPqhm699+3d4l2X5w0RV4vUs199006Ppkm29Kj+qy1EJFpNN/TIOXqWCkfVsUD4yFBVZ4QEA2mCWMp2LkdFYPK6KqcAjGLCNQRYLmvjFy9dCpx3KWpURFxQ+Iof2T8qt3/wx/CoGWPiYADxlHpQPZb30sjPlh/f9HHUwzFj6bSa8bNaS/MUt14rFYZFHfrZRdu81pgdUxkXD0D6vSrq7B2Hmsa58sVIiHZ3Nsmdfj4KM0VP+1ddzNIVdBoeHwOoW3F1J6mprZGxsEscYAR5cWocWcRUkBQ38ORv8t3wWtbXCJIf/uGLFIpikOzS/c8mSVtm5swuWg1NaW1tl34GD2gCwb3FmakrsLjRUafiheL401znzW3V1jfYH2lHu4kUL1MfNx6Jy42VLZHTgsGRh/q5YsdR2+umnl3M//wDh7/a6l2tvftfmbMm8mhpWLILZADAG/Kj87Cogk+XR2lN/qUA0Mwk86K76JYxycnp4jmOzgP24zgGH2XCsHo9nxLOpc7F4ApXa78UIzPJFjXK4e0bu/dETGrrnBdWkBZj1HJh/DQ2VUHC3HD48oKxGCHA/P/Hr6rVLZP++g3Lu2SdDYQHCRzmTtQUm3rCsXDZfXt6+H9eiGYobQ5n0J32BAHw4Y43AEqO4+Ft33AoAsksju8lUVq8xv7MJfuSYpOIp1I29FhmAL6i5pqwAp7gYHp6G7zisDApSlCyHD1m49LQfYDJJFKYtGZM+oRmmahbPyMXpKjJZ8fq9CmAHTFHWkYOMOc6R736fV69XVVUp0clxOf/URvnR974qZ565/lB1Q8NZV11ySTng8juE+nHMyPXvfv+9mVzpEmokW3hGLZiTSL8jk0pLJmcM/+HAUvo/ZBL1r/CdA0iptARMJp1WBtRhNNhvKDzKw8e2RavFDR+K37kIZmtLvSRjefnR/U/KVDSu+aH0D/ngDMBaZMH8RtTHIfv3d7NWCgoKrFZ8NktjQ61MTMxo5gqVXPdCyU86caV4vHYAJQc/cYwhepQJ0ENqaqt1ZDzNP1xF7ycQ8AiHRjGHVBkbdeQUFvxMHtYpIXAco73TM3FsM56FHwwY026MEnzXkHbAj6Ns5rE6YK6HUC7X/mvCvW7ftkesMDc57o+jJjifDZ8TR0fQFGae51ziuS5VhvunCc/Ay7pltVLrj0t/9yFpaWn57I3XXfP3ejNl+TUxtOMYkqtvfNfLBZN1GeA0CzBwAdiO0yKgvYYCp+FfgdEYiKA9SfQQW/jOwACDMiUocoaKi20a5cMB7KYgUxKgkaoGqW7qgDLb4OPEpQlmHsfhff8Hj0t376gWy3OZssbpJOhy2RxmWbponnQdHNb8UZZZ4HF4p2kYgAnIkQfxJIcWMZPFAB/NxKrKsNantiZC6MiSxctk185uGRzplerKOjnYzXk5UW/U1QmFb4K/txsMarc5tNEgUAtFsBTMRwobGvqo6VQRTMV+S7w77ZrAbWEkGNfkhE92q0NSAJMv6IGbmJeZaArH2aSzc75MT41K/8CMeAHIHLNaNEMmx8INrcHzYkPGdSzoE7IrglaHyVSQ9WurZKp7u0xOxopvvficM84888wntWJlUeHjO+bkshveudRqcWxXv4ZBBZiHBIvP4wcImHJV0mBLicETHE9GMgIuBvh0olxso7lIQBrCD+yWYJBCAFCPLFx5IrYxhSotddUeXdZ569ZeueeHTxgMhDLYoc58UK7pwICF3+OQiamUcI12NgrM2SZX2XBxdn0sXbpANm3ZbrAxmEYnvwWYHA6TtLW2yJ5d+6DATAK3AFRcRMUmV15xkdz/46c1sGIG0BhbZVh/4cI21OcA2BYYwJ/X7dayOB8MM3mYIM5tHJcXx/Ngl4vZyubKhUaGfi8ag7DI2Ci2o44cyRGurpTx8ajWjZYDI5oTY/1y6SWXyUM/fVyCYZ8GYZgQwOfIgcEcN1jI4fnhHPrP1dXVks0k5Ny1QRnYu1OKdsv4koXzzr368svLq+RCjknQzcnb3vGOfnBMfYG/tw7KYevrQKtskWQipQqYZ6oYFJ4vgoTbCED2mdFEIr1lUkk131RQFoGnbAGG8IWqpKZlAcp0KksGNIG6Un70o82yY8chSaqpx8c4ywBwsKiwy5e2STSWkTF2TkM5GfABBlE8D8rLggXtMEcP8wRVVm7X4A7AvPa4pfLytt04HlAim2vditLcVCcD/ZMAQ0redOIyAHip3PvDRyQcjgCQwzCfyUTsJsEzAKHRJCQTcoRGW3uDDA1MSTKL+qKhqgK4JtE4KBBRr6rqiExNJuD7ptXfrYdJPDxkZL4sWTpfDh3q1wHFPr8PzzYHn7RNenrHSKKa34n2D6ayS7tqeKMlsB7NYg8aDr/HKleub5cnHntIWlpbX/aFvOfdfPXVnKviz1KOadBRrnvXX3wuVyp9uAhbDrql4FI/jsw2awrp3JqgHHaoqxAkONZB8wgn0U8hOHUCXJ5DdJiM0Qg62sBskwUrTgTwPJpsTGCsWt4qk+NZufv7j8AMZF8xgcHz6EOCenAJdnF0djZKV9dhVWRuZDCCkxcxGXr+gjaYYNO6Th/NXPXeyHyof0NdJUCTg+81oYoPXKr5W99QpQAeGZsmDmeZmzOdLZLq2loAuQ+sa5Gde3s05M9nEqN/xw8opLWtXg4dhL5b2L1QklpcZ3BgxMiG4dyguAYbEbJ2wMeFWugDZ3Ap+M8wVVkOZ71mMIv183idaFTSOLZap1WcnJzUJALOFpBJp7A9oI+UFXGaM3LeyfXSc2C7BLyBO/7qg++7hk/lz01mtfDYlmtuvuWqfFG+C57jz6sCtRG3163KTYwlE0kou2YiQ1Fp0kHlACiahrC0YB6R9ZjNMjvREP7RLyrCfKTfYrW5pLqhXYKVDVDVkuSSBTBPpdTWhuS/v/SA9A8bU5VwmA7UW4HDQIUTvt6S5QukD6Yh59ek30mTkmXQr6JCds5vk31gPRfqwi4KMq1OSYF6tLU06qpETAqY1V6cb5aGephwaACYmK0r1OKibjCKzxeSkcExOf6EFbqf6zOEQl554MGn9P4JbfZxugGymWhSfUXmW7o9Ll0DghMzcWweGxEb/Ec2WOz8T8JXttk8s2zGDn2REPxcRoanp6a1C4Tj+Jh909zUrPfNHNTR0VFxeb3wB4s6pjAZj8myzkpZ1OaSF59+rHTcurX/ftO1b/sIivuzEfySbxy58h3vhkZysiMYa2Q7MAT9GTr8XEqZDEGlJXMwgwUapspKkNkYDICy0xRM6mqyPNLYRwwSBJwGwg2lbmhbLE6nT0c3OKCQq1bPl8ef2CsPP7yRpWtd9CTjH7bBnKsKQSEdMjQ8jA3cysRuMrIV7yKtzfUyNDqtYXpelyPE2c1A1nHDXLbYXTI2wtmyWSb9QfZDWnRFoZERsB7KKMxu98CPY0oYF19h8MWCetfWRcBQDlm2rEm27+qX7kOHtWM/i9vitBg0bZ1oWNJFzv2JxgkAD4c8MjWTUH+UjFffWAnzloNnCXCbAI+z7QAaCNTK7sSzRsORz7Kx4nqBXu2IN8Ocrq1vlm0vb4ePimOsLtx+Wt6yfpEUpvbJC8+/kDjr9JMXX3vttUan5htc+Ou/oeTGv3jfB1Lp/H8WSxb87Ayg4Bah5KEQ+7DSGt7OwwfhaAOK6j8UjuabghEAJQiYqsXUK85UxiIIZLICzT8mQgerW6W1fTGvILFYXAfLzlvYJL0HoxL0x+Srtz0t6bwWroxKMPBzU2ONJiXv3rsX263KFDoiAfsJWAscrHmd7bJvH/QPp7Dx0DI4NQOqzBA+ZyBjxzfZg0MzWMa641fJs89txZHwR8FWPI2gbm1vk0PdPWLKwwzFE2HUtaYmIqM0iXFdDvFpqHbL1de+XX74IEzloTHN/+yc365pbWoVo8xVq5fLts3bFcSFUlZsAA4DKXW11TI+MY5HSNgJfMdm6TlsLOySBwMz2hqM+NQULaDe9FPpo1ZVh2UAZnUk7JdsMiU3XLpYHvnxj+SkNx0vjTWVrtNPP53zbLwhhc/pDScf/OAHg8Ox7BQBAZVUNtNxZBraNgITnNiWAQ/213Gb+jx4HPTHOHaOfh4zXhIxtPwWwEFBAcF/NP8YIne4/NLYtlA8wSpt3TndwrLFLTLcNyQPP75LBsBAulAJfBy+E3y4kvZvrV6zWLZs2g0TEP7P7K9QBEgU/HgthNJ3HepHufAtgXqjdoRlSZYu5agEzlqNuuFcnh6uCEtdXYUcOjSojG6Y1WYwjlmqq4IyMRbnkwBojAs0NdXCLEzq4p2sE+vQ1tokXQB7e1tQTj3tdOk60C+He0dlYHQYVbDqeMJYjGP8DL+5pq4aLDuJhiwnCxe2w3ye0S6W5qZ6nU4iDjA1gcEnJ2OoU1YqqzgvTVQzZ2Y4lT4YlvfF3FQ2XKeduFqiY5ukd+/LsnTZinvrKwPvv+6664b4bN5I8oYEHeX6m276dFYcf0//iaPOGFQhcJitwlVYOShUwQCFocLRjOQx7EDnWD72OVE5GfZn+D3PKCiOY6SUScEMjSuDwXRrX7pOAiFjAtz2pojUVgZgohbknge2yQubd6C8EgDv4Ik4An8oiEs8r1q+CGZer45u4A9B1lJmwzX41tLaCIbIy9DQKPbSFyTv8BiR6sqwTrZ08CBYTE8xGhM2LvUAA+f2ZFSRzEZbmVP+Wax2GRwcxVcDvrzmvM4mHdPHbyyfJqvHFdChPlY8BzY8J6xdIj5/QPrATHnUsae7X7JoeGi+M6Jrd7rUgmCdq2rCMj4awzPLSVtngwwcHoL1YNV+Pg49QvW0jppLa6MrwO8CMxT+IRjUabVJY61fKqyDkknBgvD4vvih993yAVT1DSN87m9ouf7Gd1ybt9i/kyuq86EmF0HFTBbojypajmF/7NWp+ACmX3SUQ1m1Q12zQgo6Nwu1hDmWNPeUNWji4TMVq651oU6Cy5zJiM8JUDhkbDInd9z5lPT0D9Pww5/RD0hlJcipqOGwB9dx6Rwp3FbAxXNZrjJkQIMMZkY9+vpGURduM4RAI/vU11fJzh1duC/eI7ajUBtejU2V0j8wpcxMIud2GtWLl82XPbu7xakT3GbAQgX4WswusUkCJjWBQFiyXJ1Yl7UAwDwurtnnkWg8pkGelsYm8XuLUlUXlCef3AmTF34eGgk+W4KUIywGuZw0UMXkgMmJmAZiAoEA7jWm89UwN5QZLhxsq2YzjuW1OCExDda2Ope0RpKyc/eu6Lo1K//9xuuu+4ze5DEsc7/fG1ouv/xyr9lXGePqPTQ5eddUXe1SYCuMz8y2KBaZ88i8TSjp7DEkNg6mZQIwmZH+U1pX58EB/AcM0U/RqSOgMKFwtTTOW6kzlrmcJlnSAdOzYJYXX+iSO+57HuUyR5TgxrlmMheDJUVpbKiBuValg0sJejItX5zdi4EgLjrS2tYgz298Gdcx0rGIIAZ+mOxNoPf3c0QBiqRPR5CRYXF/i5cslJe2ARQKaDwBAMbhMGuWzcDIuLKw+mc1Vai3X/YcOACz21ANJ+574cKFsmv3AYPd0RC5XDnJpt2GvwcmdDgBHo7Ns7txO0m59K2Xy/fu+DHKKEnY75FElk+RzCho4ND0MHcWDQDHOJKduVRZjHmxqK+ubVHkJLx+neczBOBKPi5nn9wshZkxmOQvJpctmVdz8803c5anY1KMJ/tnIJ/4xCfMB4cm8rliEdYelQA/MO7eASXThSTR2tOETMOkmTND6etxFAFpgiF1go5ZMFxWi4tb0lwkWwKO2AcuJKMAQOEI2K4VJpnPByYwS2N9BIrlkk2bD8ijP98v07FJyUFjORUEy6ZJyRpR0devPwGtejcYZgS7jHqScefmcTlx3RLZvbdbTbU8rskEZGaj8MiKsFu87rD0c40EsiUnRAIy6beedMpaef7Zlwxzmn9sMGAady6okQP7B1EChI0BWhF2ZTAw4oH5moPfmCtksI2WAfstcSWCw2zVOnDGMRZmKjISi1L4THF+rjgDE9MnN157BhqMCvnBPT/Gs+bQoZjYbXhinIwX11u4aJ7sO9ANluOIeZqbHMAbkNhMSsw2RlTdkk4n1JKwoiW5/q0r5cG7vyUXXXRBzlrKNVx66aW0vY8p+bMB3Zzc8sGPtiSSiW524NI8Y5+VMRCVoXv6Gjntq6NJqWakngUlg/ryXVlHj+NUgXkcS8XmwijGkWo2gjU4dV4kGJFlJ54KRadPWAAYK3ENExjQmOmZQKQy5XIiXV0DMjickN6eYfhjUVm0qB2Mc1jGRqfBHqgHyqV/asyxaZKO9nqUZdOOd84fqjmo2OP2OsUFn9XpsMnI8Az24S5xLk02sjTN0WyupKMRNJKoTQYzVCIK4onJmD4XNjwcTcCBtRMT03o+GwiH1Rh/l8nbACqCziXVNRXS02OYkRzFH/C7dGqNEkDixH4mSqfT9IOLUltXI5Pjk7J6Zbv09g6DJQMyMjqmLIrKamDJCebLsBHEgyHbMwjFFXKZO6p9mQDoccs7ZX6LXfa+9Cz8yKp/jXidn7ryyiuPiWkE/+xAR/nwxz/znpHxkS8zKMAHwPAGP5ERCAZtzaEg7IfT9DHlAZhCOFg7rbGNA0jV94OyMD2KWKDBRAAXAFqaa2YoSzAckI6OdulYtESSaN11Ts0CR78bQ414TV2/3OmAgttVQV0Ao5kNgdMmBw+O6Di7wf4p7QiP4zzWh9zGjv32jgbtXmA99EUWQm3pO9bW1kCJixKdikN5cY/YoVP5AZD+oBcAnwsMoua0R1FmU3Od9B4eVQDpvC9g9draapwv0gfzVW8UZXNWMk4jn4UfVoCJGQ759blkc2A5NlqSV4vA6OSH2Q2fzotz+vuHtH5OJ/sSOS1gTtzwFVsaGzUz5/g3HSfPPPU8mJKNCJnX8LU54RIByUaAQDRGOVhlabtfCol+MeVT0tLS+JF33fj2z/GOXs/C+/+zlPd+7GPzEtOxXdmSycqABXWJikwTjrOLcU4TgiwGM5LKRIZiY8z/tPsA78ywIPDYJxWH2YQCACCT5NEi67p32A5SlCUL2nVwKPM9Wb7d5QGz1Ik3FMZ1UCi2xVNcopk+JaOsFig9lI3shToEg04NNjDal8RxHHLT3zcpXfuGZfe+Q9ICXy+H67FfTeBHAetGI4C6eL0uaW9tlp279qLOxj1odguEdeqcVyuHD03qcKE8zGseEwAg/QEfADJiNDp644ym1itQZ7/CHTZLpCKoyz/TSqC40FAUimaduYxM1cDZqMdHdfImCpmdQGWwxeNzybwF82Tr5pfFDlRz/cCBgQHUzybhcFBCEa/Mn7dAHvzpMzqgFv9wY/Ap4YOGIgGZGp8SuxusbjdJ0FGQStu4jIwcnnjTyev/9cZrLnvdgu/PFnQUKJPphvd8oJilKTkLJPpm0HsdNUATE9qkfXoEgD4ttMCcd4ST+9Bcc7nc+M7zjPQtHouvcP6p+WAEr03aAQoOBmX5HMLjcrmUkZi+RWVT4KHwSE0tmNEvVkcQrTqLwbUBnkQMZbLV54vXNxkzjIUDXobUxWqHNqJuI0NJeWHTbtm+44DOKsaYK0FE8J34pqXy7LMvA4wMIKFhACrZ0c2/JUtbZdfuwwpUDvGhwhN0HA504GAvQEDWoz2Axgf34PR6JKnBJJimKJ8d+pwbht85eoLf165bJZte2KH1QrGydGmHvLhlhzQ1NMCEnZHOjjbZd/CgNkKWIuqPR8DnCPNAli1dILt3HdTUMrsbFGvi9BEZecvZx8tMPCXdh0dkZjLKWQZxL7BOcDrr6AODn/3mKtm342WZmpzI/c/n/4MzWr3u5M8adHPyF3/10ZOSycRTmUIBzfqvPBIoJX09gpA/biLKIS9kIqOppxXKfjAuWumGIrKDnKqTjMd12nNGHkNesyxYOE8ByclhOYuzdgpDeYljYyERGGxgVr0QwYjycijLpv6mwaz0t5iUXNfSospfMtvR+jsE5Kj1yMD0IqBwAtiVJiZ8RzC21QZGs8PPs7p0jYRYPCGPPPqCJJI5mZpmRzdMVTQsjKB2dDZphziZit85rww+6aRMzP/kvCmcRYwr6kZjM2gggjpNBM1E3gsfS2s7zMSe2QEEJqtU14VlfCIqWZiieHTwCWF+414Z0eWz4/ruTH2j7zcTjcE/rJRpMBhdZI/fAVO9hAaooFHMJBoSDQTxOeGpsdGqrQ7KqjWrZdOWrWo2c5AxEwO8YL5TVwfksYcelJPedGK+lMtVfuhDH4KDfPSlDLpZue8n97U/9NATj6RzpTYGQzTRGb88QeYkM0GZ8TNLDmYSsys0yDLr32GXAsNmY38TWAEsR0YrZTOysKNOIpEwFISdwRxQSvZhuSWAhuAj4Bho4agGI2rKvjMFt4LB2G+3OX9hwpF1WBtdwARKzJELnA/GZPeL2wPfyu7WnEqeC0xJCoqrawGCmb24F45/Y1eCwwaWhgLv3NOt6zjEonlJobEYm5yUsdEp3KORAocqalkVVUwfw3aap2wf8F8oxIGz9FEzOhqBprnPzxHueZkGqA3ztChONzvHjUaJDRvN3mTKiAazOI6MSCS4HwXDQmhorJPx8WlYEKw3n40xSl1HOjA3Hc+P/jAbqiBMTZYZnZ6Gj9ukz5q7eg8PyxkndkjEE5N9e3bJ8qXLP5GOTP3bjaffeFRTzHC7ZflVue6WdxcKs+t40byhcpM3PD7OK0I/D7vwo6ZSMUDQMNWolDyeQOF8JA6YezQ9zYWsLOpsACgIWppAVklnucgI++Cs2vITWDp1PJhUJ1sCA1ARaZSRFWlOMk+UPxSBTWbExSSdjKtC09fh9emXsluBwQabBX4OlN/t9mkggxMS2f0R+H1G3xjLz+UMMDDqyvqganoNzrPCjul0uiD7DgyBXUqyfdcBHS2QgY9aVRkE4waku3cQ5/OeeVZJmhtrpAc+IEuxAkXa94fGyeH1asCFQSPmejY2tEn/QJ/eL0c/cE33g4eYESMSAlhr6iplzx6atJwpjX6cDf4gTVkyNhfV5CDZGl0vorenXw0TNny4TdSb618A4C4wO9wDDi1qbaqXmakxOefketn8/EYx4X5PP/2Uuy4896yrcMmjIrzXsvwv+fQ/f3rloZ7hl9IwCbX/Db+o+nz4HAiFwERZKLZJpyjnA2RH9Rx70cSzoTVmyL4QHZfzLjgPR0DZtfWlb0T/xwgqMLuE0yzoAh8EOI7hyHej8x1n4Zo2MBw7wHXCXZTPfrlUygjuGKllBhDN8IVohpENqewEMoGvTIxjGCghGxKoPIb3wAmZOFETzcP2TpjAVrcwc4eElIZ5W8ij3qAVq5l9cWTdnA6Y9XndMPPyqLMZbFaQxx7bKPsBHI5iYHBkOprQa7L+7M4IBb2STed0lLlaEbi51uYa+KpZLWdmJi4NDdXSw7k2aQ9DqsBe4+OcUwY+pNMmCxd2yPaX9+L4grS21sjwICcGNtYSHB2ZgYUhOtN1X28/QOeWOmxngMfmJBvyPvAMYa4HXQ657Lz5suXZJwnqTEtz9SPXXXndhXrR10jKoPsdcs07bimQihgSJ1OxA52pTk43gyJUKiMTJcdBnrPA5B9bdHpqNWGHdC5YpErudrrFC7aEwQdltwIY7IzPqfnE0e48l35fXsFCE9RY9grtuLbYzPxPZZIajidwGTrnpLF2KDocFu0ztMHHK2hWDSoLlmWUkKYbZzij2cdp2nVRSewmyzEYxAagmKM5TWbndlQf55DfwxU14gtWAIhFSRRtcNHcOAZgFZsyMsP9vH8uxRWuqIS/BuYHqOMJk2x6cY/s4doJaU4jz26FgixdMl927OoC2xoMyT81L8WJx0zTsiirj1usKWqZNFk4L+1trdILVmWKDX3nSKQSPuIYSgAwq0IyOTmD862yfOVi2bVzv4I45AtIHI0MJ22Kx6JoAD06FInPkHmnjESvXFAhIVdCdm3dLKecclKuZDU3X3fppa9JcnUZdL9DPve5z1XtPdh9IJ0v+dktwAGmDC1w7hWvFwCCorJrgKzBNDIyITWWYLRCOee310pVXaMyGM0k/tj4Dxpt9F2RRRhM8Lg8aJEdaiJSmfijaGQQ3+n3cVFIjR5iB1cz4gGawoYXr50G8zHQotM9AMTscmPfH0/Q6dxxbRPKIRMTFDp1BMqm4rNcfieT8po0T7FT0UfTkwDh4FdO9Uf/kX2YNOkqalsBRoe4oeDs5sjAiTSioiaUl1Lfq7IiSDqHqedDfRyye+eIDA73S//QpPQPjuF8enBWCYRd8OfoK6NeeHYoUDy63l9STdWW9hYZH57Svk3eQ1NTkwyNDGhDUwHgcSazdIqzlRndFaUCGkHU0Qv/Np5MSNDvQ+PA/FM8d5ignDHABpOdS5itXlwhFe6SbHj6EVm2dHEx7PF4brzxyPp8/H3L8nvk23d/u+Nnj244QHajsjLQQVORAPJ4faQFVWCyRjppKIqrGJNT15+u7EFfT0GDsqi0NCd1pDoUiKFuMh8ZDAeqCUilZtSQoufij8dht3Y30MSaMxuZvUHg67yeSaZS4RxWCEKmiKGlVwVjYwEwsR4cVkPlZX8gy+C90FQl6HgM75ERRkZPOc8Kt6fTSa2RmqYol0GjkjY4YGsAxcTxdDiADYfD41OfMgc2rKxrkTTQlQXbCgDBYA79Lh297uIMZWmwV0imYJJmsyYZGY3Lzp0HZXh0EvWHb+ikBUAzmuxf0iRyTifIYA4bwFBFQCYnJrWznea0wfh2iVSEZWxyCnUygeWdksSzYWOnzwfPmwne7Psswozm1IYOWA61Yav07N0otdVhedMJa37gshY+duaZFxzSh/kqivHLluX3yhe+8t+XbNm68152vzF6qaPQ8fQY5PChtVeBcrKVTs2MS3OVVzoWLFTlJMPNrRyrEUhlEapRQWz4zhQoApb+DMtjkIE+CC9ApWGHsjGdBH02RjwMM06Bwf4/Ldf4nstxrT6rVFRWKuiMgbsw1aDozAUlY+eyxtrr3Kd9cDB5SW5c544gpKlM5eQCkkZfHy4NluesaISzhVFaOlE4jh3gHFuopiqux8wRKj+gi2NRCE7O4Zgs6uZ20zow66q1vkgNWBHmMBsTlKn9kthHX5iTSlVUVmjdpqfi8NGCMEsPyIub9iljBcNhWbhogbzw4matG2d/o39KN4D+Z0VFhUxOT8G6YAOGhgH36oGfVwlwDw+NaFTWDd+O6X4MRDFhfK7zPeJ3yqrFAdnwxGNSzCTk0rde+I2LLrjgJv68r5aUQfdHyCc+8Qnr/r6hLEBkYr8Yw/B8gJzqgYpEH4vMZElPS2dbrbi8AaObAMqZgm/DKKaDTEaQwb9QQMFko0lIjNEEpZmnA1AJYBTO9tzhMFKgQGnQWc5uDTDinUAkII0gDpgWDGyIAUKKBi4ASu1PxDFO1DEChSZYuPwYg0F2gD0UjkhsZhLXKWrQhQNtOXqekk4kwZjMAbWCiV1GBJfMjfoxskjh+nhUfjIZhde049hsNqnMbGT0AID8jLsieIhgsriyJ55HY2urBPy1Mgl/LpvHPeI+CWCQsnYv2G0maWysB4hh8to9smf/YXnk0ZdoFmgZx61bI88//5LhtxL2YEpOQ8huBY8fJjzK4wzZnOlssLdfGztm1TDAQj+dwaeAzwMwpsQN5lsy3ycvP/uwtLa0FZctnPfMW9/61tP05l6hlEH3J8jF17zjUafDogubsKllniVXyCGruTwe8UhCjocCsPWlotHX4bHM11S/Bz8u1xoH1iSR5KhqI4mYDMfj+aswGEKm4gRCbPFp3nGhSjIMzT5GMVkO06nmfkZGObUPDcxDZTbAxn3MKzUYSM1FmptQfmbTMBGbx/KdM0NzOvVspiTxeFRNv4qKCHQavh78q7GZaS3HB5Oanf/R2BTqn0DpOIL3RRMSMpc8ruyNujJYpA0JTUIAlsL71OAT6ghM4F5p0sI8LDBQRNCiPH2+JlmwYg0aAhyHa5dMdh2zZ8F7mmP3HBb4jlW4g6yYHR75+WMvYFsQPt+kJm97fW6Jx1J6DdaDJjVNYUZLuQQZXQaalzHO3o3nzTlcOMW8AyYqTfiT1rTL04/eLdMTQ3LxhReWfCHfwisvvnif3sSfKGXQ/Yly1pU3NHrspR67xWbS5GaYLJqYC4VZMq9WmlraFDjME6SysRUlKMxQeJqAVFJmivBcaBb+Zn8KbNc+PG7F+TrlH15s7nksgcZ9LJtdFTTddDAttpJFtRT8Rz8sD1OSfYMEO9nGGIyLnVA09StLZFjDVKVpSDPL6KJEfcBkPJZTsBOsOgqdfiz2ccgPfUBOT88uDpbFNfBoskZnomq2MS/VBT9rdGwE5mIMQCfgjAVJeA9kPuai8tpZ+FX0JTkFojI0qkjfjCarRjjRiKAyasZqsAl14AYUpY1ZTV2zZGA+u/2VYkdDwrQ+jovUoVN4Nj5/BRqpokxNZ2RgYEQbw/6BCQUjM9A4FQWvzVIrK0J6D6w/r+XDu/b/oaymSErG+vdLT88h+eAH/uJLo0PDn7/mmmv+aJ9Pf6Oy/Gny5re8pToS9t9ttXpP1Q1QBi9Qd9zaZWgxPQoKbuNfHn4gARWPxvCjTqmCRiqrwBp+mGxcxB+m6axS0yQ1Rh/AvIICUbkJagKB2THsl1PQQeE4hwoX8afpyGE1WQCaXQ8c/kJl5ugCKjtbcUYxqdScrkLNUTARFc1gQQZZaEFCAanNMM84BR8bCvUnwVwgCDUNcapuI7OxyaASKYvhjxFE3gujrOxOCEfAlMDRxPiY+pABgJOzlU1NTcn0TEx9OE6JPz46agAKhiHrQH+MjQyvpc+RH7BPM3Zwv2RM3oOOYcR9s/LafOEZsV81kUxJpKoe+zmXS60UbEb2TSqD+8OzYAe6MSzLLgnUy2QNAExDchhmp8+LRsVpw+8Ux70YUV02EE6nSarCAakO5GXjEw/BT7TLW9564RM+r+3dZ55y5n5c/g8S3klZXqG8/V23MFUSpFCSsEsAuuP0wRoBCUNJoDkACpQWO/gj0sqiH6dTBuIDFZ+KroESqB59HzXB0EJzoiQqGJXE5/NDKTminJ3l8I1gLjJIQfRQyZkSRlDpeD8oq3ZnUGlRI/dsOlsKgCAoYrEEzM24dn9kMjBfCXwBu6B+7Hsj0/H69Ec5CxlhRd1nvckMZC0yNwFAc1czW/BnLNTCl8FKBAYbCPYVMlKbgknqhg9cW1cv09Mzcvhwl1RWVqqZmM6kZPfuPTqlQ2VFpUxNTMg4XuxzIxvqCH6UxYirEZgymJng4PNh5ZjnSVbUFoVWBvxUfqTvzNEPHDbkCYSktnUBzHz61uzyINgZTc3g/r3aZWFzuOVHDz6Cc4xpHNl1wudL8eLxn3FivTx0/w8B1oPytrdd/swN19xwiu78PVIG3asob732+on22lCYa4jzB2JHMk05EhhbbQUWFVFZwXj0Zp2uAepNXwMKREAZYDWCFVRsO5TBUFwyF0dwg4XwTpOQpioZjVrFfXa00EbOqMECNOUSiYTUNzZAkYMKQjInfUkuJc3wfWNzk8GS2Qx8uYTOEEZGouJz1AT9txh8PM3OwYVYLlCnzEJl5J1ooAT1024IVXbcoYLDCoXOGPVDYwA84z6wG9tpcrP+NCHZVUKGopDxeA2aqZFIhVREwjBTR2V0dFjC4QppamxUYE5NTciy5St1BrK+3l5thLhgigF2jodMqT/Mbha2iuRRApYNB581A2E0rzm1PFtEzsbGoApXpmXAZcHSRVKwBCWN+ybrS9EhCTRAXn+1BP0h2fbyDlwjKx1NVdJSV5T7f3C3TnVfUVvRef2V13fpzfwGKYPuVZYrb37fDSGP62KXHQBxoGU02VzpkrSAAVoDHgfcJv7iXFDEqn4R9ZPbmGVvthjdC/RTmP/IneyeoElFExH6A+bBRhNafLNN9/EgBiHo27EcK7sQoMyEdY6ghx6zhWc2DEHLrgMyLQMqBCYVkdCnUrncTr0mTVmaj2QdqgjzHOm3JQFSRjLZac2hSuFQSOtA8MZgKsKww9FoNAAYWnwElV6DrINrcNQDhaAgU2lSOIDGwBCZybAEDOZipz7fyVEuXIsNjFYVov4pQE8AcjLh3p7DCnaO5hgaHJRBvNhgRMIRfO5HHTmPCwFPlo3j/vBrgDEZLWZFM+xCwT0YZifqqI0Z6jzbOMLI1UaAg54rq2vE5qvEs7CADX1i5ZJiAKkd99Nc75HJ0THZ8MQjsmzVCqmtqbno0re85QGj1r+UMuiOklx0w3saTYXk22o8NrfXb5e6mgaJpXMRNLDrrGbLWnYCm0rGdAU+/Lj49aFgTqg0fjTiFv9xyjpOg67BCSgWRziQQTRgA4Ux+hNZhh2tvVPS9F1QDkHHBf81gwPHktnosxg5nOQdQy1oFtNsYxm8KDvi2dFOMNAEJXtwH7eTTSjTM9OSwU14fexwdqBuWTUhyXb0R7m8F33GeILDihiEgU8H4FDheZMGSNEUAIy8T50djABGQ8Q+OAaHuJ8AZDcIuzUIQOKRZiJbGTZSXDc9Go3i2tOawULzeO+ePTjXJO0drTI2Nq4pYhUALmdAY/CEF+KM1IRZCj7hnP9o1AX3C+AR5GRLTrBkBH3MaJyy0tQGUxVmLU6Sqpo6bTx2gI3bWpuT9nz2pJvffvVWPh9KGXSvfzFddcsHOmxW08IKn12CYAurlcqcrBgcGrqNvhCBSWXwejz4bACMwMvk0so23M/+NUZB6R9CdwxGg9Iog/Ai0ARDuciwTD+zKEjpQ3Ef9EwZggquQRkOYUIZzKQhMHgQc1NpJtK3IwjIU5xctra2FsrM+VYc8N961ITlTGR1DXWSTMRldHxUYtGYroFAQBEs4+Njyi48j6xIMOr11QRFg4LrskHAJRSwOgyJ12WlUF+ajkZ3Cvfzho3MGzYS9C3HxsYU7EuWLJGh4SHZu3evzJs3X322/fv2aXCnurJCBgYG8SxhRaBBysFkZT+nBmvwHJg/y9ETLEcbNZizrB59YfrT7PvMwgrx+33S3Nj0XNZkuuSKCy4YLoPuGJXTzz57fmZmdC/D4tq5DkWYGxU+5xtRUWnK0jRlxzBBZnPaTzr++DfFrA7bP4yMT613O72BinAQplpA/UTmjdJ8ZYicJiRfZCR2dJFVqOAshzNH06/jTGoEXBamKAeXzvXF0bxkTwaDPKwG2ZCMrAwNM43vBAP7HjUQBCEzJlP0w8zSAECyASD4RobHNQLJOrIR2bZtm5qiXM+PZmRvb5+Mj01KCOYug1msI8FJoJCt6F+zweF3Dpfi8zACIkafqTZAALR+hrCuBD6jqOyr9Pt80gg/srenT6axfeH8BbJv/x71OVuam3HtUTQuUyjTjUeCRg4MTBY2GghYKLjHYsn60t99/OOr+b0MumNUzj7jjBPisalnOeuYzkepLTzbWP6oXNCRZuUvs1WY0sXpGeCXLN62bfduoxRDvP5A0WoxmdiKh8Nhx+7du+ksyqJFi7zhgO8Cu8t6Q3V1bX19faM4vWBaMTktdlszzFCbywGgEszwyxR/tIPxncLrkgnIAmwMuIoQKqTKb6geAxuGYlLhacIxSKR78E6Q0vxkgIj+JX1FI4BUUIAxkjsyOiqTExPaEKxesxZm4oxsfeklBf/y5cs06nnoUDdAMaNgomnNa/Jxqa8McNBfJQMSeAQ+QZtMJnEt+LZAN+vL65K5NVCE+pFFZ6bB4jXVumbfli2bpbKySqpgeezbv0/q6uokAUZnnqvb4+XM2pHPf/7znLlX768sx6CcddZZZyaj44/oiq80d6AJHLVAluBoAw7HodJD9zQYwJxIfknnzI07duzony1GxR8MlDiS3OXzPN17qNfoc/wj5dRTT63pWNB8UVU48iaOGHB6XeK0OyzJbOZEp83RQoW3283icXs1ekoWobJTyIxqAs42HLgd9ftYfxPNWOzTbhZ4tPRT6U/yGMO0Nfwq+qLs3ojDP6NS05QlOxHMXCmJAaSOjjYF3uDQoAwPDUtbW7sGYzZtelFN60AwgO/G5EhsEAhkHk9gasAHZdKf43bmh3IuVFoZ7Esle3KKQQamGH1lFJSDbQ8e6uL9fepv//bvP6k3CymD7hiV884777r49Mi3U3DeqbBzofC5yWCZH8l0JioD92l3BVruF17cTrtKmeyCi6/6+IYnf/pZml8eb+DDPd0H/4Pbj4a0t9c1nnzyGatKpbyLLEF/DQwX2L175zvgEx1XXV2FoyzqjxGwBJMDip3JZzUqaeIsaOwWwEPg86CfRf+WEVzt4MczYCoaNZ5BFpqpBCY30Beb64rhVIhkZ/qdTM1bvGgRWGoIIB2VRYsXKZj27d+PZ5pndFIDR+xqISsToLQsWHcCkysV0Tf+yw/81a/hrAy6Y1QuuPDid0fH+/8nCdagktFx5wzRNH3Uv4MpxBQuTYimm8aToJCbtuzSjzfeeGPlD+//0SBYxBoIhjb09vSczO3Hgpx99tm1LS21XpPTbK7wRRQ8L+0aPN/pyn/C7bD7I/DzmHzNJcnYL2l32iXLTm8yP8DANDYCRSOzhSzAy6WtOZsbuyoYeKJ5zDXfbeq3KYvh+Rqd+0xRK8rk9IREwmGprqoBQGPSPzigIPQHQtJ9sEs7/6vwfWigd+uHPvTRVUbNDSmD7hiVcy445+OJqcnPauc12I2ttOG/lTRXUQFHMww/MQ2zOYV7YfMO0+WXX2752cM/y7PjmFG6keGRPxs9aFu0qKmhquaqzo7mTzQ1N6FpgmnIrCA8spJk4ebB+4RV4OOU8uzfA9uxQWOCAi0GdssY7MhlyoxnSlOUM5pxwLEDvh6jpPQJKyoq5R03vev/PNsy6I5ROeuc0/8jl0z9FX9sNS/pD1GFGJfgoFL4IOzUNlZ2LRk+HVrwTZt2mALBYIk/PKf0g/9iaE1Z/iD5/ve/X/P8po2fBdhCleFKNR/ZXVHI5s8CT7pNRCEtfDR6f/Phj/1GfJVBd4zKeeec+fVUMn4zQ+xGBgh8GfgvDMczsADvDhhjgIFBCiMFjRG9XXsPfgm+zvsYUYSPUz8xMTE7SWVZXivhr1OWY1HMZh/9D/XnADTmRxomJGeNNmkUk+zHLAoKqQ27GeF8H8PosI0+WAbc0ZEy6I5RMRULTvXh8JlzshhZG/g5sY2rpDK8zlA8/Q7tv+Mu/MdUKp/P+42hgaEvGCWV5bWWMuiOUckWMgEyG7NFOCkRO3wZFqcwqYR9YsQbRwFw+A1Zj8tpBUPh8QMHDr6qc36U5Y+TMuiOUcnlSg4jm2M2QRh/ZD1G4+i7MQmXGfOc6o9pSbp+ncXMlKlKLaAsR03KoDtGxWI2uRlyJJtp2Bqmo06AC7OS/hy7A3LZjBhLNjO1yug2KMvRlzLojlEplvJ+TrTDnEd4bhr0134j4Ir+HTvFGc7W4T4AIf09uHZleR1IGXTHqNgsFhdnBptLaGamBAlvbvwZ52Ihr1kASl32ao4Ry3LUpfwrHKNitlidsx9VmOSs73gxE6WiIgymY0Y9k6C5IpDBeGU5+lL+FY5RyaSyPrIccURzUkwcxIkvsC/JdjHO6VgUcVo5OS0Hd9L/IyTLcrSlDLpjVMBcTAIEkDiKgAMxNaxCs1N9O/4ZY9E4dyR+aAVf+ed+PUj5VzhGhZMBGV0GBBtHKjNYYiTgktC4KCKTn3XuSsKuZEwhUJajL2XQHasCZNFPI9DIYBw7x8/aZ8cRB8p+BNrsHCiz/XhlOfpS/h2OsKxas6bkcHvEynxHKH4pV5BUKiUOh0vnWeTwkVIhKakEmAs/h07YykGZ6oThFDSLBJLTbJFNL77wi9/rxHWrSjQdeRBncya7cb5+I8kZYMS11MzEi6PrCEB2Lzz6+Mbyb36Upcx0R1jsLpeY7RyVzG/swM4+Nzre33H44L4Mp3fjnIuJeArg4MQ4xrJOnKl5bHjop6lM+gkusgiHDNvnVuQxhKYiwcjVVQlmgs+MYzmXI6cL0G0asWTfHed45Hwg5Z/79SDlX+EIi86exZgHlJ/ktfHJDSf2dfUdzKeSX+OEroUMB0MaP4NOmMNXPidDg/3nTaRTF5OtmOKlVPYrMheJ1Pn/ATaWzcM0+wTXIog5sItzp/BQgk6jnGU56lIG3REWXY+OBh6YSaOMs5Ir5nQ+RbIVR30zXYszIRvfjcTlya6uKBd65DauM/BrQmYkwPBOAPLF0QWcKYvo4zkEuy6vBXNTJ+4p/9yvCyn/CkdYyDxcA4ALOfJ9Tuh3GULfi2Yn9vFFRpwdAzcnOir8f3liujCkMiRBOjutugKQrGbRUeFGWpgBSJ7PnMyyHH0p/wpHWOinEQQKEPMvQQcEAC9kNuMj+9RM7M0ucomOXwntz54yt8LpnDC3kscrVmFi0l8jpnQoD66Xh19IkHG7blPf7n8htyxHRcqgO8Ki2FIY0eT7lcdN05JRRoCCU8opm+EzMcbpFeZEfTaw5WxfuIrNZn47lywGuiTF6d9muwV02rlZcHF9cbfLLU6XQ9cfoD9H83b50gWl5UsXlk476fjSqaeesEBPLMtrKmXQHWEBBynLcSmqufxIQ+Br4X9yD8e76fLAxB3/foWRcKaYYJbSJzz11FOtnZ3t421t7bc7nVx00phZmet3G0zH9bMdGjlR/xDn8qVJ0HjRJOUsy1x1JxTyStjnN5bRKctrKmXQHWEpFLJAnhHYmA2Q6DPnkrrZPPhPmY6rl3Laboj6Zb9ktTlfj+/+gC1XXxOJ1FaFzFOTYxKLT8noyIg01lXpQo/EKgMpNCutnI0Yf5wSjjMpa/+fhauQ5gBOi7g8XnH5/eUUlaMgZdAdYSFnEUzqpwEMy9as2e90hpqcbs/7imQk+GpzzMbFInkcTc5AILCiY8GiD7EDHZDTJaL6+0akuq5O3vPeD0hF2KsAstktugqqztGgAJ5dwYer+1jgJwJoxG0RlzCZrJLLFr9TUVl1v9Xq/Ks77vjBNr1wWV5T+aUdU5YjIqvWrSv5wmH108hCBBlnHdbZhPFuAvv5PC5d+TORTAAY9Mng4yn4GOpXA1P8Xqc019XL4GCP1FRXSCoelfGpmHBNcZqtNCO5vDGXPlamA5Ny5mOb1a5BFa5zUBK3/OCe+8q/+VGWP+sf4Pvf/75lxUkrws8+8mxtY1vbGds2b33zlpd3VoFcxMJoItRUoKzuACdt5RLASUklo/Lmk09LfPgv33MmAPLrIcXfIGtOOL7k9PtIYwAap8wrasYJF8go5ThPZUHXlaOfxWWKOeiUpEh2El3eCsDDR6/LIXff+R059U2nArxZXejQbrMATJyUSMRu5bJQnOvfhVrDrAT4bFb6dyVxOd0oP43PNvn+D35YBt1RlmPyB7jwwgsXWTyedYVC4f/BpmrkYoRMlbLZnGAHY5nbfCFtKhSs7AIz5YpFEzuJ2eqTE7K5tJHzWIR6FrkqqQnKa6RZlQrwrYAlqDutNcmDeSxMJgYKtHO7kNZ3p7VUuvmGq21XXHHF7wTeyjVrSp5gUIfWMFhCkCnrKei45G5BAn6/TsNtMJ0Z9cLPgmurv6dBGJGA1y3/8k+flIsvfCsAWZSW5nbx+riKDExMTiTLegKkXESRHfIFmJsc5kOTkmvMZZIpsTjccsedPyiD7ijLMfMDXHTpRWfs2Lr9MSosl9ZlAi8V2RuqBoyc+GqsVGOxoNmHYjNEz2OMDHyYa9jGgAKHu+QAOl1nTM0yGHIArS7cJ8CP+kcmyQCURYtPAxzRaEo8FR1idtjEkp4Qv3lSr5PJZO/66U8fu2q2ir9RVq5eXQpUVMCnYmJydtbUY48BE51hZgJ8lRURmZmJgUljCh6NOBJ1ZtQP98ScSjLdqSefLF/7+tfEIlapqq4Uv88pbidXVgV4UajP60G9LAAZGhjU2x8ISgYMR9JkA2NBo/S9O+4pg+4oyzETSJmZXfiPfVKTE5MyNjYqw0MDkp4ZE2txGrCLia00LfZSUhzmtHhtefHYCuI0Z8QuKZFcFJQXw3tczIUUPsfxSsrM6JBMjQ3CR5qSYiapM2hNTYzLVDQh2cSkxMaHoPRxSY5slWjX45Id3wOlZvjdqosd/j4hk3G5JjYWNBnZJ0et51AcToFueGzGWmtktDkxopZkOexXILIt4LEM++dxPBiX6WN8qTkKH3G2v46BGY/XJ9l0VrIAOdcjx0ZthMpy9OWYAR0HbarSMnF3trOXyqVLHlno04gkE1GwGYewWMBQNKtM6vcMDg7Itm1b5EDXAZifzFeEsut6hFRlmGE2h5p3XHAwlY5JNDYjq5YvkejkCHZnxYsLZBJTujRSfWMLfCf6S1bwoi7z9nukhPI5ghsAUsUnQMCoYF7Wn6aiGS9diAL1UrDhIP7xhglO490kIyMjuG/+ZHntb9PJZQlElE2mJiDhAmrjxKCKxWoMFeLzSsO8VHSW5ajLMdX0Nbc0x2AneWlKMQpI/QyEgtJYV60g1KwLHMfVOWmg0feKzkQBuJ1QRIDR7pQF84zVOGnmUcFHxqc0WEF/z4JjUqk4zMm4jry2ohwqLVOwIpEIFN+iY+FSUGCab4SHzi8JsNbUNoovHJFJXC8D3yyR4hi5qDhRRqimBiRjrG89MzoqyTiYMxGXmtY2UFxewkG/TEdjkkiktEze2NTY6KeCFZFPmO0AD+4mAJN68cJF8sP77tUGgwsicg20SMiHOs5OzWAziwv3RvOysrIG18vBT4xLd/egtHd06lpsd99VDqQcbTlmmO6ss84KN3XOW8Zse10kw2E3ZjBWsHExd/g+NN2g3HSa2BHNoAQZIAKfidPVkU0IBg1moNVPZQAeMifOcYAZOTaNACPLcCgMk4gZ5i/CNBwcHJT+/h4wInBvKmjHdHVVQBob68QPU250ZED27twsEwOHJD45KvnEjHS2tsCspMmHuqCeXMzDC6C4PTBL2WLgX05ZzobjfslyedRrYmLik4lU+l/RdGgfG81IshjNVZ7H+2HZzEah8FwyHN/JqCyJXQZul0cWLOjAfdIasOuxZTm68pq3eqsvWO2uM7XWWdyWZTSBYrEUwxcSHR+zT02PNYbCgXf5/KEOjp7WYEiBgzs5X39agwLDw0OSABNBs6BEYJFgQBrqa9SEYroTcxiZq6hCRoSyTk/HcN6o+AJuqYSJSOXPA1BcZTObNZSdeYv5fFES8RgAmVOFzecy4gcLMbroAINEo2AxmLm5bF7iAJ8T5+SyBuMSyA6XWWprGmEGjirTcgo8J1gnh+p4wlUKkszMDO4jJWOjI1Ld0KzrVPvwHGbAftkM/Do0ADmU3dPbbzrppNPWjc1MPU9nL+jxyrrj1sk3v/VNzacM+r2oSxrvfoDYoV0GHo8b92FVFuZa2rwnsjLvL6vgtMq3vn1HmemOsryiH+Cyyy6rDAa9C/Bjrs+BVhh+T6aTYA6Lw2S11JVMxdWlfHEBvCg6GnDsUzI9MaGjoHOca9/hVAbweTzqbpCdGEpngIHZGSmAjOPMuD50sWiE17nmM43HdDojcYCA0bu21kZlMQKRwuPY0udxDbb+BNd0dAaM5FVwMrBA0KXhD7IvK5FIw+R0KHswwphKJxRITigwI4uwK6HUZEoAG6DgtdgX0dvXp74a06uGhoalqalWBgdG9V5wB8qybS01Mjw+LZ5IrbFAI0zPFNh2fGxc5i1YqEAnYManpxTQZKlsLCp9A4Om9773Y5EfPXjnOFnO43RJQ0OdbNmyDaavQyojYUmmEuIF23vcMCmxLejD/eF5ujwuNBQB9RHzuRLMUKfeYzpfkm9/63tl0B1lMX3kE59oQJv8I3OhZCtYc01SMPloseXwA3GRwQR8j3g0KRNQCiUemFpskX34gdm6c9hICgDIUMHhv7gACrboVPo0GAp6aygSlJz+j/pd0GiabFQ4i8kYWa1zhEC50pmceL0eVXSOKyPgCEyChFMUMMpXginGcWrpRAyKbZXOjlaUy3Qng9lyuD776vjOrA92RlPTeAzP04XZsS+byeNaATDhtIKTfhGDKgQjAx0Bv1tZg+DhfRqDQQF5bUMsMh2LSRJMBwNQAc17yqTTCkR2fHu8bhkaGBJvqEKKfE5g6DR8PkYz+TAj4QDM3bTmRyZSeV1SN53KgJ2M1VX5DHlPfM5sH9mmcEEQM3y45uY6HJcWl52+HUCHxicUDOo16dfR1Ha6nMr6tCiSAF0Cz/a2W79VBt1RFvNppyx3nHveSatXnbh0WV19VbB9fpPFF/RIZXVA6uuqpKO9WeYvbJdwyC+hgFeC2NfYWIUf2gaFxY9tN8HEccKh9+IFUwfbfH6H+Lkt4NLgBF9OJ5UWvpLVJBNjo1Bq9lNlFAiklQRMKoLP47aLCcdQgangfb39as4RGKlkHCCwo6V3KzDZx0WFp39GE4zKyLxF/hlRQQY62MEMAGvwhZFLXA6fuVg7GxCKkSnCTmv6emgEAJpAIKABF43+4UWQGNMgoCyUoWZgjsAoalCDdWGjQNCWTFYpWBwSTQPgaLxQM+2X48KN0zPTGgCprKzEvThQvk1C4ZAM9A0o+8UBZCZJo4a4B/hsMHUbW1rklJNPlkQspi4r0ci+R05MVGJfHu8ViMSt4rkZCc/szPcCgIyUssHiPYCt03rDZTmqYp5By9vVdUCmpsfFhx8JWicLFs6DUlRIbX2thEIh8cJXcKPVpNnicbs0uMCUIyNYQR2AiWS3oJWOwWFn1LCIH5wJuUxHgr+BlwVOvNMJJQBL1dbW6H4d/0UWgenG75pBAYXJgz3IaBy2Mm/BPL1WfX29KjT9KDKqzgUyCyANpkABSQUErlkXzTCYgUBUlsI5ZA0GR4g1dn5nCIJYAudxbBqAgu1krkymIFOxpAKLjYKCDX9zc5kwikl/k+EKRhaLKCsWm0nn86lxPJvdZGgdzoM/HA3gGMychUVAVmLDMQhztH9wCGbpqLz4wjZ9hnyehKjeb1194t8/9+8/aWpuA9ObZQpghbADAfchAOmQdtxzEgZtCPReYWngdyIzMvgSgy9rFbtaEHxGsF3GWUhZjq6YZ6JpVTayCTtUCZCB/kFlmvHxCfEFA1LX1AAGc6lSUymoSgQMfTKaX1R4hvHdYCAqDn/gaHRaW2I69x5sd0Lx4eNp1JHqyNZZ521EWQQagwNWgMVhA3sCAy74WPTtkklOV2fD55wEwaSMMFLJ2DdVgpJRqIg8loxHdiRQCD7WwwQw0SwkQgk6HoxD0ZD44UsGwJoe8YfC4g9Xiq+iWgKVtRKuaZJAdZvETZUSlYhMpt2SKOKVw32lCA9UEOWB/e/a8OTTpmeefMr04sYXXBse31D59M9/vnh0aKBEE5LPikITOZcGkCep82YZGR6WSCQkUxMz6uflwK6RSIVUV9XK/Hnz8My89EPN3/nOdzbwOoxsElAUMOdPOGKcC0GyXOZV8ircq314gKXNbgzl4fM029BY4Jm4YEFUVtaVlzt+HYiZDjeZy+PySCqe1E7fuppaVdgGsMvkFHw5IEOTGPHzUrm5j6YY9AE/OsCIbTTd2FlrdN6KAo7g4OKE9FUYgSzB1OL5KEyPYcHaArMlVn8J5pLGMtnvZEVdCA43rpXXOpAt2Myz5SfD8frMxGddqFjMOTRKpRLOsiHKJtLIOkYaVk5aYa5lNWhBgBpKyXqQcdlfpzNnoY46bR1YzQKGzeZskszYJZl3ych0XoYmczI2kT/x+FPW37V69eqAXnhWYM6ZmJKmmSCsJPiQDF1V0yg1tfVSWVUlB7sOG88C4kD5kcoaqatvVH+TdcF9uuA3/5Pf6+eN4/raNVBqbmhYz9QwUlt0JqHHsq5mM1gP98GADxscNxqxyoqQ1FREpL2pVtqacO2aqhm9YFmOqpjuvO+b7Wg9uxhiHhwYAOPl1JehacgsDZppjP4Nj4zAXIkrkLidvoNGxzSyaBRGpWZ2O6OObJnZuTyrV6pgBIEZPggn6GH5LJfRQDvAwgACAcTARx6sZpiDxrl8o+7yO8sgo+WyYOLhQZxrBYgaxev2qrLxIJatvh78LCPyWZTR8THUL6fK6vP5JY4GhkzrwmduM9ZzM8afAcKSSiTAGE5tkBiI4DR3vAd2BRTyBjC07wzXMxgNL1YwVxopmnLVNGvZWLDjw2Rz4zllJRFPoOHJwpIg4FheUeaB2dDkgME4sZDI6PCANiIM6pgtdgnD9+M1lenQqLlQlz27dupz50DYhfNbtMGi5VFVVYFGyiVNcAvq62u0O2UEZqwdloI3EJapaO6Od7zrfdfoQy3LURPz6OiMmip0uOkPtIAFGL3jUBM64FRUvrtgSlphSjKsTaCgUVXlIDj4maJ+FVSE5iCZiMpPUiOTEaR8ZwY9Aw5UGnIAARadmilOz0zsnhod+3pVpOKEDU88Y3rqsadMT//ceE3HppMKWgYFqGy4DsP5akoBJGQodmqTsQhco04GAxAcyVQK1yfzQG9RxvjEOMrBvYGJomRy1IGpWCWAhCCyWkri93nEDnPY77LK1CgbIwAGx4kJQAJY2RgRB/SpePs6OgDABHKqgVwcC1DCV+ScJaVsVCwFNDCSlf6+w/pcGOVhlHNiYgKm+JRmtbC7JBSpBBNWSximLj8zakOzOJ/GftR3ZnoG5idNfUCdWEepbHhsBJbbIQs7m6Whrkr9cwKfyeE+vGYmJ0RsZnUMy3J0xfRfX/m3dvxwXWzl1RzDj0h/jilUeTCSHb5VKpHSpZcmxyc1wMGoXSw+o/l8nKXY5rInbSbz9ly+OJpJZ9JkvGwqC+U1XRGsqNSQOBVNQ/q8KF48hgCOTc9Mbtn0UkRr81ukqakpVNtcP8kW2zBNwSJQwOGBIZjFdjBdszjBSmRh3gMV0uiSYJ8fWW5cmZSRSdaBzMAgDX2fJO6NUUSfj76RYeLa7MaYNK50SqakkMxpourErvg8lxHCRoBzU3p9QaN8sjgaAAZs2Br5HKwPzkGj8dJL27UsNk7MCW1qrkfjwQ5t9lcaz4g+cjpTULMczxN1IFPPNm4lRkDzeG4pGYRfSIPfH/DKwgWt0lRXI+0tNZouVlkNvxQmLBsdNGgaSBofm5AJvBLpZDaRsqz/zD9/7hmtTFleczF9/DMfbnfY3V1WmFcMLGiEb9bEtNotMgGgUdnY5zUzFUXLPCnjUOJcMXvOw/c//PBsOb9NXGedf2aSIXK2ygo6mmRQRvbb0dyqqqz86D133fNvs8f/RvH7/eFla1ZMaBTRCgVmGB5ljY+MixMm1vzODhyFfQAbW34Cjfu1KwAKy6wMTmnADnmacRncH/vuyFBMK6NC+7xeNS3pwxG8BAqnQ2C9yezsWyQowG+6Dx+0k5sNCm1oAoluF5sEjtVjJgoTBUJeABjH79q9Fw0XjgfY2afG/Y31dWoWWnAP7FckW5LReXyphOtgG03pTJb9nGg0mJCdSuBBsu5m6ek5JJFIGIDOo/5Ovb/j165EA+AVp8crleGIhCMh2fDMs2g8YcXA5NRZx2wemLy2Sz/2Nx+/D9Uty2ss1BG56qpLFpjd9hsWL1zyUZpqOkkOfhyalWzhU+k0fmgBu8Wlt7tHpqambnrsp499g+f+PjnrgrNKjLARaDRHWRBNPvp9ZImhkYHuXS/tbjOO/s3S3N5Sqm9pUBOKDEbQERBsBOwATGd7m5aPfyiefiSZmqYs+87yyjrqK9LHw/lR+GtkWs7CRZOakT6yHVOyNOMFyk8Tkj4ngc7HxLoSjDaYjOwCUCBKHgya1IfIbgAmCLBbg2DJZZIKTvZlDg6OycDAII4zaf8f6xkIeKQKVgAZj6AXM8ALYd21YSIACRBeG+yZgQ9r4bXxmRHcWHRGYjMTeB5gQdT1rReeI5VBB3w6H8xvm9gAMqbJucHAuADKt2hDygY1HkvI1HRM3v+Bv9bfvyyvrfzaQ7/53TeVFixZoN0GbOLzWZpPHILCvqaCZqfs3rlHxqZG6555+Jmh2dN+q9TU1FQuXrFkNBj0kwwUuARHWvMX0wpulp8HANOziszhKPRj6I8w84VRTAtMXCos/TFWmQGSTDIrU/CHXNjf1t6qAGL0jvU2GJVmHju9jU7pAu8HwKGplk4BsLEogIE6wPRixJL37HS5FGRzCk/zjMDBP1wTQAA4jHowcmqYjCyf06Nrrii2pZNplMFJX60ARgzWglMOHDikbITnoffj9zi1K4UBJApZksdrvbkB16PZyy4YbuEgW/rBBLXB4izfDEshLQcOHpJwIASQmeVfPvP/wGxhnQmMXSGaGqf3TVMbLJlMSP+hbpiaY2JFQ/ie93/0137/srw2gl/ll3L2+Wd/kp3hXHqJCb7s72Lrz2glW0/6K3EoazqeeeRQ16GDs6f9mmzfvr1606ZN82pqInX+ilBXIOBHa+/T1CcyDxWKqVJ8p5IxU8UKv4z9dA4nAIZrUhmZLMw+PfV3ACYyFhVOGQ0tNyN9MZinNO/CIZ8qLlHN+KKKsp7BeEWAVNWZ5ieomw0A/ToGIFhuIp3Rbo04mBx455E4qAjF5iL5UHqcQLCxvoSdMUU6AQ1zE0BzQMnJ3rl8xmgswCaMhvpx77t27tPGgiXwWXhoWrrgxyngWD/2wdHHNBqNdDonU5PTeN5MfQMbo1EgcNgAMJLKRoqNlbEKD8x+fJ+cnNS0sNHRcR2Iq9VHTRlASqGBo++cxufY5JTEYjFld9Zn+859YzMzM5v0hLK8ZjKroYbc/cBdJXYbOMAsZBOmNfAAdnyn0yk9pr+/X/p6+/Cjlt7D78sWL7lo4zMbzmEAgKF1KjmDAKALVSKXy6NAoWmp2f8okEzCaCkjdmyNDYWGAqpy4VhelAoOheax4BL1k9gHRcUnU5phRvYcPix+sEFrS71GMNmGoCStL8/XzAxch1n9SlfYx1afnc0Z+Egca8cI4tjYJPzGgLKQdnmoD1iQlpYmKHpOT81l4EehbgQJVdoKZjOYiXU2/ECOXsABCg76Ygz7v7R1J+pQRMMQlpDfSF/jOgMM97M8gpX3bnO69Hns3HkAoJsCcDMSCgdwXkhqa6s0Sktfj/WiBcAHyecVi8U5IkHbmNraOvmLW66VBQs7YYq7JACfrgCW5PWZXjYyOIDGCuYpo9Ng0s9/6Zuy7eXtbHjpRZTlNRLTB/72A9UBp/vHvqB3jQ1gYzSNwKHi2C129aHSMMP4Q9H0mhgfx2taf0SCikCi2WYoD1QQLyouM0n0Aib+pkb6FRWGrTR/Y4JaQWcHo+E6FJxKMCub8B90RYXZJ2mYoOyyYEtPwqLpe2D3fqmtq5KW5nplC6OJMM4D9PCuEIRPmtI9LDcP0DAym8X56teBzabBLMrsBBVASlb3w/eimchzGMnk/bFSep8A7vT0FM5x/UcylTjPYrYuJDMRjmROPgMGa/btO6TdEmyM/H6v1FZX6DX4fMjmJjP5xmiQ+Oxpqm7c+IKsOW41TPmUHOrq1smKmKEyPg6TEMALVwSls7NDKisqZHpqBuyckjh81IGBIU1Cr6yskssuOVeOO26J+PwhmKh+uLkmGeztlkEcA9/1Ez3d/Zv++39u/Ql/P7PFJocPHzYeXFleEzF95Zv/1Y4fs4uRNs447LTB2Ubrzg5sgs/j8sL/4YDtokTjUc2PHBoYUUWmQhJMBAr3G1kihmKmUpxegaFudkXALGI4nfv1qkQUwEWWA0L441NjDdDyALzjEG2lcU4a5q72UwFwPo+/3+Pz3LL34N7d08PT0tbW0F3fUKumFgFO9sBlZ8vCC7Vjg8EUtF9sR5kERxplZrJkJ3Y0s7/PrqaXsi8VEqhjucxeIdIZYRQTQJxIaxdKLldau3nztk0o03TOOac1+3wOq99ffTsY+GSanrvQKPB6HDZUEfJLJBxEA8IRC7gWnoHxGIxGygTzmM+O0eGhoTGYiw1yoOsg/MIEzGyrjI9O6L3Q/6RvWV9Xyy4ZbCNbwhrIl2RoZFSqqsCKqP/CziZt+MhyzGVlI9c/OuXft29fjE/Y43HdFglV3MSGtKe3twy611BMX7nzv9pNGVMXNEricPzpQyWTae0vKjJtCz8rTSm2uFRedjqPDI2A6eLKcKrEePHHZWSM5+ErFLug/WMRmFXQcWwj/RjBDIKSLOOEL0QUZqG905NTQLSpZMrrDFp3fPm/vvw+1E8h+Lvk5FPWlaqqIgKVlcmZmIQjFdgKcOs18RFg4zUZSDCySmjiQllRvwTuk36Q38ecU7tEp6PSBJOSjMJjcLT273GiVoKE678V2N2AhoYNFD4Gt2zZ8htTq75997c7PvrBDx8AG4JxPMrMnIUsGAxIBYDBLgN9bnyG6uvCx4R/+9zzLymTeT0O2b27C9XgLyAyMmzkKhOo/A1aAErO7mzD5xwA7gawDxzq03uuq6tHo5mVzrY69SPZuABzkslb/A888ICCjlJfV5eDWW7N5XMPDw4OnjO7uSxHWEzfvPMr7TDDuhIpDq6kUoQkmUlJPsM+KiqpYabNhbITaD1npqbVH6JZpJ3Q+k6fh+FvBhTohUGh0MLSked5hVIuWsiWtlDx4NjnW9ra//qeO+7ZMVuPP1lOPe2EUgimG0FD85WNhgY+wFLayY9razAE9WMvm/qVUEwyXQb3ODA0qoM/Wcca+ERzicVUbs5jwkaBi3dwLW+eGAXrE8Q4UJ59dstvZYhwONjlcjjbmTBO2NjxXDg8ikkIIBf1z8bHRtDAxaW9vRPMalLwb926S1pbm2X/vv0SZBDK45LBsQkZHBxGVcC8KItBps62FmVnMjN/NwZ3HE63HOzu166OCPy5t11xkSyZ3wi/8mW4u07xBur8H/3oR38BuoDP9xW313ML5wu98ca32z71qU8ZmQBlOaIC8/IrMC+lS9OxwHQ0pfjjsckkgAikJFjOamYKmBGy7u4+DFaYgomZfTmbSd8fgya6XQ5akxufemrj87NlvyZy+uknlhgRVF8Lisz+NiPgYQyvyQJYTPnS7gCFCHnD8D/p23Uf7tNug8aGBvXh2DXAiC0jnoxoRmNR8Xs8ZLlC0Be8J56Ibwa9yMjgxFd2794NVP5mqa6u6nK5XO1MDMjgOmwAYI6XaqsjJ1tMphOCocCnY7EoU1/QeOXU5GQF9XnDn2NjEPBxSBWH5oj0DQzjmcf03gjQzvZW7eNjvx/K4c8lTQ01YMBG+eljG2RkdDY4BIB+7KN/KzWN1fKlL/63TI6Nyeo1q+Xs88697Jwzz783HA7l3R6vxeN2b4LpuXa2+mU5gqIZKRaTrSuElpG+TC7DPrCk9Pb2a7+OLxD6aF/f4S0Jro2dLYC4itufeuqp36psr7WceurxJTsHveJzHo1CMBKGMjokBiYmYALhEBTXA30Gy0ExCSy+s/uDkcnuw71SW1OjIXxm3bCzmVNBMMTODvLG5ibJwMRsaGr48Ze++LW3GFf9/RIKhT4GYP2zE+ZlFg0ALUgzKPfg/n1KpXV1VV9onbfo/XUtnfCjTdK1eyve7aig4eP29w0p67KPkaPSY6gPLY7p6Ulm8YgbzB4MBcFynGgJXKr0KdIJlpw3v00+/8VviM3hEDcaDAcalY6ONunv78N166SlsVZq65tg7posmzdvDmx7edskE6lPPOHEhm9/+9sDegNlOWJieu97r4u4XD7b4cOjWZGo7N8/nNm+fXtidv/rXk4+eV3JBd9mCixNc8sNRQsGw0afG9DlhunIaRnoQyrV4Z+xTDD7vbJy6aVXLLvvvu8NRKMif/VXfzXDadI/9alPfOmB++9777IlC6S2NiI+r196R6Z//D9f+sNBR+no7Cgx6ur0cngSL28qHZoFXX19Xa6mudW67MRTdNyiGWCzo27ZTFKyqZhMD48BRFk1H7kWXTKRgM86A2sjDdBVSSadUuARcHyxf5Md6DSnO9ubce12+cKXviGcYImAYoTT7XHLicevkyuvuEwGBvtgAte6r7zyylR9YwPHWZBx3wbf7m6tfFmOmKjBdSzKurWrSgxoMGnZAaYz5mjhGDz6lVaJwh9zubzPLV686LavfvUbt82e9kdJW2sjYFuSquqawgvPb2bv+x8lDQ0NzwMQ6/jZBVORWTFWsBF9PPZBMl2sdeFiCdY0gnnZpQI/GpSYScSkkE2KGd85+mHN6rWy/eWdMjjUJz6/XzhkikzOROuA3zfL4mBujRAX1acmOy5c2Cbf/t6DanqT8ZKJJKObB667/mq/zeq8Ho3MI6wbmLNkB7htZieY/8AxqxPHihyzD/jEE4/7is1qfyv8siGvx7W8r39QkjALyQycGr2iolKefXbTK7q/js5m6rJ4fYHCy1u3/9GggzhqamvTBBhZWMA6XOiHliA7tqVkleqGRulYskYyABknuuU+E8CTjkfFzHGFOOxjH/2IfOIfPinpTAqs64PvWpKG+lapjnikt6cbbkBaExIYQCKjM5mcyQRMrB4c4tChuPqM7H+cSczsmx6f/rVlj9vb2z+eSCU/y3kxe3t7yqA7wqKmzrEoANS7n3p6YzVY6P3higodje2wc22BkmZ/sPV/pcKuA05JwSToP1EyANzXmAOqM5KVOIaQARyNo6KOeC9k4DMyoGhk3zCdjQEggoRmMPvivvWNW6WuplqWLFqi3RXhYFCmxoc1Eso5awJBv7S2NuggViYfOGF2EuTsT2QnPOe7YVAowy4LX2A+GPhtRvUMGRnpuzefM7JoIpH5vtnNZTlCcsyCbk7uvff+ZyYmhqsSiZnG6SnOHZmVsfHxD2zc+OIrRp3ZzKwRE/zDP32WA/hIt6RTmRCjlwmYhOk4J+QywzRkRMcko8OjMj7cCwZzicfDHFL6mzBD1cfKa0Dr8cefkWEw1rvf8xeydNF8cZpS4rQWJYV65bOcto8jHUzSUBuW5YvnyaqVyyQUCID1HQAff+KSrH/zKRLwBS/iXDgmi/nOxsbGnMfjWcI6xuPZvcVCFm1BXkKVhR9xW1mOnBzzoKP87Gcbxl58cUd/pDIEJbNJZaBicnbXKxTGREUZ5ZXIzMzM9PDwMMgXQMrTZ0sDIoQCE6ELkk+mYB5yHk5sL1nEDpY+tHeXTIyMaYLypZdeIVPRcbnnrm/Jho0vSv9ITPvmDnYdlOnp6Gx3CPNcuWiIRXxup9RWh4ULTHqcHNwrMC2tsmzZsocmJiaamZEDhFkDAd+OtWvXvpd1LJVMf6tZRVnLm/m9LEdO3hCgmxMmEtNMG5l6dWaao29E5nS73LNbXplA0R8j1BgsoYlJn65YMsMnSyqwnW4fzEqLDA3269QMQ/39ev1du3fApPTJE088I4Ngxs2btslzL+6QPV19UtKEBJjB8N+YyE3gsZN9yeL58pbzzhCf3yd+mKA7du6WTZs2rbdYLB3zF8z7gZE0YIbPN/Slmpqa42B+JjgW8dUwy8vyu+UNBbrJySn1cX5tvNIrECahsJOdGR6vhoyPj59ZKskeZrTk0in4UAX4bZyukEkJnBnaApBlZn05m3b0M51t84tbZNvW3dLdy+kp3IymSmtbuyZPp9NGDilHxANzGsUkoNkp73ZY5JST1orb6wYwOcFU+mfBoP/nO17efrlmEjGDh5MAWywvNjXVn19gciovWJYjKm8o0HHKBaapWeyvHHbrzzytVFtXJyeffLL4/b5XC8cyNjZ2CidPYvAyFYeZGE9o6J8JCboSkc0hVbV1+OyQJMBUhN/HKdI5VIeMNj01KVPTU9J9uFsmJmdk6/Y98ugTz8kPH/i5/OzRp8RkdenIBpql0RjKLmRk9YqFEggGJJtOo8yUgpIjPMh2yXhKgW612s9lmpnmyJbliMobCnScMoEdwMa0EK9MOLVBEeYl15Lj7NWvlrjd7m6OGmdon5mUDJzYYNIlEuM6jo99bewk59wtNdV10tjQKJwYl5ktnJgpD7DSLORUGmRKHbeBbZl0Tvr6RuV/vvZt+cJXvi3/8vmvi8k+O37P7ZCVS1tl8aJFKK9elw5jahkZnKNLFi1eLN+98zvKkmXz8sjLG+oJL1q8AA01MzRy1+7b1/292c1/klx62UUlMgOjEJwj5rFHn3xVnlVdfT1cOuaFmth5LtGZafGAob3VFdLSuUg7xO/57nfk5DedoHmWfn9Ix9ZxXYND3d06rpD9kDRRCRwCkTOvgTyVPcmiHI7EfkD2yxnr3uVl3XGrpam1SpLRpNicHu3X27NnD8oSgLVPO9B5LOcEPXBgbxl5R1DeMA93xapl73HZ7V/OQIsyudw3d23fc+PsrteVdHY2LwRedhMgpCgmW4O4dM6SdSedLPd+7y5NCTvphNU6dIeRRjh5OJbj/RxgQPpnHG4lOlJ9z969YD34nTBFWY4OFsaLfp5hyPBCnIuU59p1intOJ8G+Q+aY6kgRmJQcP8mBwJzxe8+eXWXQHUF5Qzzciy4+//n+/v5169efqYnKmzZvkmdfhX66IyX1zfWTDos1xO4Dp5uzaXNBFjv8NqcM9A7ABHVIe2u9cKkrLsjCAAv9ObIuF2IpMVMSfp4Tfp7OHJ1MgLkymvol7IYoFSSXKUoG+w73DMjE+BjYz6qDeMmeTh258MvHw45zmqzsbvF4PGN79uyumt1VliMgr56zchSlrq7m5kIh3xCLRsXhssnUxJT0evv/Wcagga9DOfvMs58fGh66gRPZ0hfjRFBejwf1NroXOe1CIpmROMBEP4s5pRyJXirlxESwED3FHBg9pazGiXODgQowX0mSKfihiYxUVFdJRWVEFi3olIvPf5Ps298lJYZjheMfjUlyjcmV8Bm+IbNhuLYd6lQ3OTmZ0YqU5YjIG4LpTn/zyZtsFusahsU5+Sr7smamE791VPfrRVpaWuCCMopY0vkqOb0CwVVRUaEJzQyyGOPsGFixihemoccLM1FZz5gbkwxG9uKCLez64zCic869QD7/b/8sZpzL0QO0UDnlehxAzsKspGnLfFBGK8lwyRRYEkDnUs4HD3a9IXTi9SxvCKY73N379eb2hrW5bO5gIpl67PGfP33c0NDQ6761jkQiH8nncjaCwJjnhDNSF3UYTse8Znhj7ECHn5YHy+Ej19Rj/5oxIZRRBv04um4EEMff0RRlWhjuX7tPamtrpbO9HQcVJJsjW8If1LlkcAZehTy+W2z4zGkAbf85Njb2+2btLssrlDcE6Cjdh3rvOHy473vd3T0PzW563Ut7Z2cO7HamDmUAv/j9fgAmA5wRCCapreMM0GA17CfIjIVX8AL4dJpBsJXBWAAR3nV5MpwbDHjk5a3bdcaweR2tmqXC/RyLx/XNGalkMncmm5dUKqsJ09lcbnLfvn1nzFatLEdQ2E6W5SjJ5hdf/JxOxQdAcOazyclpw9cC2w0MjEosmlbABIM+vLyabUPwESixeFKmZ+KSgk/ICaF4Hvv++I7iALgaHW1QX1sp9VzKuqlBRzqw85trJ3Cd+FQ6a5iysYSsP2M9czCB5LIcaSnb70dZVq1aURobmwDQCgBPVqOYJTSFWYDJmFbQJA2NNRIFwDhejgNYOfKBPx0ztpizabebdQKjgN8LFjPJkgWtcsLaNfLVb96pY+04euBQz7BMTs3ApA2B1QoAcRAQY6d8TM5Yf8bUbbd+I2zUqCxHWspMd5TlpZe2ebSvDOzGUQic7FYTt4EobuOrt2dIuwwqKiKgIhiTDP/DR7PYDLOSC2TOzKRkaiYmOgW+wyUf+JtPyp59h6Sru1cmZpI62RSHDuXgw3EBUPbREXBVlUGpa6gtT63+GkoZdEdfkha7/Ql168BgBBWngedYOI4cIOhoEk5MTMmhQ4fpe0k8ERe/L6DgZNoY2ZB24dRUTOxOlzy1YZM0tzSB/ZzS1lIv8VgKoIyiPAfO82v+ptlclEjYAwUoilXKM++9llI2L18nUlFZwXwt7TJgjKSxsUqaOV28ySovvLBNOLcogcmRBfzZdBlp+HeMejJiqWs+FPLS2FAtdodH9h84oFFJ+ne6njs+cBSBy2WXuuqwcKpFBmY4Rd+bzzz3kc989nNnGzUpy5GWMtO9TsRus28mgPRFny4Dnw5A4ZwqHp9bJ55ldgpZjz4a/TuyIk3SfIHdCcwDMMnA4LgyIjvUjWE+XGarIF6UcdyKTjn3rJOF86doojRea9eulcpIOQHltZQy6F4nMjg4eJzL5XmIvhtfRp+bWUZHua5BC0BiFh8DJWA0dg2UFDPMLuEM2pwFLIdjwJQEGUDJ4ywWzr/pB/BycuZZp0pVTYM8+fQGBWwWSKVZGk9MSWtHW7NRi7K8FvKG6ad7I8j09PQdLo+rDeBZTmZrbKqTSEVYotEZOWHtCTJv/gIZGxvRsXDLli6Qzo4mqa+r1PXpCKBTT11tLK1VXSE+nwNMyTX2uCCKGeZqg7y8YyfKSv6iM5xrA+7c2y0HDx2q+PDffaT44/t//PRsVcpyBKXMdK8zGR8dfztZauH8dqNTvGSW7q5egG1Yzjn3LKmprRK316PA4zAmL4DjtHMlH5OxFju2qVmK8yoiFTAgmWLmlscff1L74ziinL4dp3Jvba1XdmTO5/bNWz/913/9/kWz1SjLEZQy6F6H4g34LiVz0YJkhNJsscNXG5D7f3SfLFgwXxx2q8xEY7rf6XSL1+UWn9ctkxPT6r9xeniX2wW/MK85l16XC35bhXauG0DmApZF2bfvsIKaowyef/Y5GRoa36UVKMsRFf5uZXkdyNq1a/1tbXXbipKrgdfmIjjgfOkqtNtf3i8ulxXmZCtYrCRdh3rEH/BJVTisI8z3dXUJp9ZjBzmH/HCIDlcZYq4ml51mtwNXYSqAQRlYYdQzHAhKT3+/diMw1UwhDqCff8EFM5/9zL8EZ6tVliMgZdC9DuT8888+2edzPq0jCorsM4OrXeIyzYAgWCsMcKWTSZmZmdY5TtiZXl/foInLNA8XL1ssw8ND8sJzL+lIBZfbrWYmE6MNkBnrAuqAWGznJA/4CoyV1LdjRzxNWr6z68Fud8mJJ5346H/8+3+eZdSwLK+mlEF3FOTUU091mp3OCwGBrwIHwYDLLH6vMTu1/gPYyDo0FdlhzjXsOGXE+OiUZPMZaWlqhL9WKWarTcw4vrahRrjm+o8f/JmulMvR8+eff7488cQTwBhHhXMl1jyXkAe42MdnBQNiG8fl4XzDlDVUgdfjUKGqymr5yU8fKevHEZDyQ30N5ZxL3/pvFrP5WovFVsvkY67lTqUPOU3i1BVsmZA852gDdGA7/kCFQhbAgNEJQPG9BDZ0Orj8F7/rETr93qbNW3XMXTaXllWrjpPnXnhBS7JZOMrcxpmdcSi5kXN6srOdn9jBPhfEJuAIPF7LKtff+I6/fve73v3/ze4sy6skZdAdIXnvxz4WycZiT8UymcWc4o4vdmzrSq8lLu7P9C4oPpjIZwWI7DAtIYSEmoHEA34d4oJrknMbp0rhd65FZzXNdn7jpUlgZCt2nudy4vRwMUmHHOw+rCBNxuLS3tEhE1OT0tPTK7kcwYxzQXRG8jSAzuE+ABvfmaVC9L35jPUSCQea3vveD/fpQWV5VaQMuldJvvrVr9q2d3f7PdbC+PIVKzU6+OxzmySR4nLPaVV0+le/mDYP7AQXSs0/n7kgDjv9L5iVBB2AxA5yvisICLDZAa0kNvp0YEvjCzayiwDo0c+JeFwHvQ4MDoHUOPauKB63U4fwTE2Oy8knHyc7dnZpN0EildI6+ENhycB8ZTaMDci22QBAu0PsDrdccskla6655oYtKLwsr5KUQfcK5Ocbf95cyueqi7nSCwXo/ODAoOzt6pIilJ6h/f7BERkYGpGZWEzSaWaMzArA4AETcY6SbDYj9gIHl4Kp9NcAB2G7aRZ0nGadzhgZy/ixOHDVeKeQGemP0SwkZAlcDmrtRV0YEJmYnJRsJgvfD8cDYcGQR3M1mdLCLgSOMl+xZh1HscsTP39ELHASycJWmLsOq0NaO+av+Zd/+Y8y6F5FYfNYlj9SfvLoT9712NOPwVosHS6ZLS+UbDDroNA1dTVy4vFrwVoO2blrLxguKyAaKL8x/R0ZieYk2Y4zME/PTEtDfZ1uY4SRwCLDce7KgcFR9a245DGH8tAcpHmqZiHQS9OUMGO0kX4dVzTXP3wnANcet1ZmpqcBZruuxUDGZHlxzioNoHFU+rJlC+T0M06SK952JerHZbfsOgOZz+fRAbAlU1Gamipf2eopZfk/YjSXZfm98sgTj6wBNT1rslttjC4WNbw+y0B4iiAl44U/ooIh+uHRcXlx6y6NPJJtEglOc07QzSYtF0rSVF8hyfFhLYvmHcfTcVTArj3dUltbIdWVFWApAs4AGgFGBuRrLpCiviKBSTIjDeJ7LleQSHWtbNq0hV9l4cIO1Cshq5YtlnTJIcFwSBqamsTtNAD53MZnZfPzG7Rc1o/14ZrsJ528/owPfOBvHp99DGV5FaTMdH+oFPKboJw2MxkJpiCwZwyZgZKriQddt+CzsY19XXapq62WM05dB2BV43hu5/yVXMeAwMQ/mJFchJ8/A7clEmmwU1zXnKOkciU52Nsvk2BF5TVchCBjOUbU0gAf/9h3wAlkfzn6AKwWm5LTTj0RTHYumHVG3nzWhVLdskCWrlohrW2t2inOeTNpYi5avECuuOpaicaSOu0DJ6TlMlwzM9NGZcryqslcrLgsv0MefOSBEs02zsSlQ2vUrIPSs8kiEPCB/9N843FkLE65wO+Ah1RWhmV+Z5v09A4o03EgKhmNSyT4fS6JTk7J0NCoTEej4vN6xOVmn51JFi1ZhHOr9fiB/gHZf6BL57LkjMzMPKEpWgBoMpkcjrcKJzNSYOIPMNSwPxciWbX6OFlx3Go1G10el9aZfqKxcg89wZKuZWdFA7B63VpZtWo1TNCUDI9MgCEX3Pbwwz/vx0FleZWEzWVZfod8/8G7xx0Ol664YQOITGQq/DHVirpL5WY3gBmmHr/Mxit+IZqCBUbjYh1pXYOgKHv27IP5eEAiAa/kUgmJTU3LVVdfByXvlheefwFMl5G6+gaprKvFOTlJprJSAPDYoR2bicnk5LiMDA1LwOeToNcrdqdThoeGpLmxDlcE5FAHnS0MzLti5SpZumIZNqPuZFg0GMy91N3YbyiAkbnCenJ1H/qgXEqawC7li6X5nYssYNZfuauyvBIpg+53yBe/+l8fj0Qin3W4HMoaFGZ+kMV0giBot8UEXwpAVP9OjwDL/MpTpaJTwRk8KWoWSFGnQOeIgO/f9yPJJeJSAMjaW1skGp2Svv4+lG2R409YJ6GaWqC4JLFkUlLxJEABloSvqOsVAMQJAPBw9yHJpDMAoEcaagk6NS61bvy8aPkKAG+5si63cy/LNBCk38CGTnGCEdmQOPCZ0c051tayzOZbG+ua36mnlOUVS9mn+x2Sy+c/y7XguIYcO7eZB8lMEnYJ5LMFKRUIKCOiyAikKjIDLFRUflHFN5iQPqAu4sF3+Hsjw4OSTWZkajoBc9IDHyoh8XhUXE67hMMB+I029bkY5PCCzSpgooYrIuLzeFCOTfxen0QqK2TJ8uWyYMliaWxqQ12Y7gXTVfsCAXSAa2piTP08bQzwppFSfCCwGdUMBIISDgVhevp0RINRR7vYLPBZwd5kcMDvZr2Rsrwq8ittcll+VT7y/z7yttra6jtpYpmtnELBIg63GzgqihP+j93mVGbQKc3xTiU2MkXIgAYLzskvPhtI1Ieuvh0YiubnvffcJ5e89Xy59Wtf1+nNbTaHnHjayQpwXEDTwUiX7BRnKJKMV8wVJRqbATvG1SzMJtOSik4ri7F8Mi9zLZsa6+XkN6/Hdy6R7NQAjxfXIHNzsUnDB7Wo78nacVS6ohOiXRTYz2/5XG5nY0PrUt1Rllckv9SMsvyaEHR2h+1OLi3lBQvYHVwroAjfKi9Ot0t8br9Ogcc14Cx2gI4KjMdJEM7lMlJh+f1XhfhTDPI/xjAAJCNMb8wCz+MJGI6X44SyiWwa+8BeABoXDyEQdIkrnJPLZGVsdEJyxbykkymJDQ8pU3Ef+/ZYTsf8DjnxlDdJKFilgNNhPwQW6sqRBWoio75GVwMrBtDyTUFIauRnmsdFqa9t0j1leWVSNi9/izBEn81nJRqfkfFJKDbApowF5WTKVCwVxSshaYAizxmW+SrwlcerYJihGrSgOcd3aC9VFq8SlJ3KTEUnSxIINqsT360ADKdPL8HkC0trc7N0traJ3+3DMXYwE7sKjCWtrDhXAyEECwqlcZvFdVOptPQPDsFsnVYzkisCTUxM6Lg5dnxbYLKStZlnSfAZgKMaoJzZ+vE/7YoA0PQbgYljNjz3VOmpZ5/6z+eee+Zc3VGWP0nKoPstYjVZ5jF1iv5QBoo8MjwiE+NTCjjihyBUdkkywyOlwYxfTm8Os1H9q7yyzpyoPuOrqjhMTQKSpiMNQob/nXanuBxuBRhNSAKXAGlpaJS2xmapCEV0xICyId45u7MWCXBwiE86k5eJmZjM61wkzS3N8BUdkkokZP+evdpBT5PSYbHrtYA0oyHQ8426sj5MrCarEWjMjOG7HoVnEQqF6I9+sGAx/eSpjU9ufWbjE/+oBZTlj5Iy6H6LFAv5i+l9zWV9EADJRBzm3Lj09R7WRfo5L0khD98qEZXpxIxMxWIyOjEu8WRSuEwxs1BoAjLaSDDOZaPwnWF7CpmqYAaj8DvDonDECA5dJJIMCCaib2YHEKvCEelsa9FVeEJ+v3AxECZUJ3A9XmvbyzukuqZObrjpRunqOijTk1MyPTWlZvHgQJ9Oy2CYlgbgjYALIWWYxTyOws/cTyEwDfIrSSQYERNNauZlup0rbG7X323c+lxp4+YNpY3PPTGwYcMjDJ+W5fdIGXS/RcAdlcynnG3nlXFKNC9nwTE9BfNyJir5XBbMASWFwjKzIxVLgPkSkkinJJlJa/8cF+WfMzu5+qp2H+B4Eg2ZRRd6ZLGz1+La3/oRB/CzuWRRH42mILP/3Q6nNNTWS0N9g5E1Eo1LLJbEj2mSKZjCP7j7TinmcxJnffBiNszY+IQkUS+WwUGtBlsa2TEM0Ci74Y/1MsBnmJi/MI1RxxgaHR3Th3PVJKXZiRe7USxOZ53Z5R145sUNpaeee+bvH3vuuWq9mbL8HymD7rdIplSMKBiofPhfW34SEv64dHAGQJqBKTc2NibZVAb6N5uJgmMTAEAynpRYPA4TlCDk8J6MhvN13QIynirzXHl48RO/8xdBWeqq8SOBjn36pqCg/wZmgvLr7F4Oj8xMxWUKjcBxa9dIVWUIrGiS2tpKqYyEUA6n4cM94D2O42OJGAvSsvhHv3AuCsvGgN/REijYeEma11wvb2xyTOKZpHEmKsPDuJ/RT20z9P4twsUr7U7rp5224vDjG39efObZJ9brSWX5hfC5leU3yIc//tclRiehXrNKZmhZMQfQEIAQDUJYaI5ZNIPDocEKt87ERT/P7XZLHkxnYdQQbKCTAFlgMjrsyhgayMDLiHoa5VODob/4yCvjA5QeRIdvBiNqVwCvT4ACpSn4j73dPbLx2ec0p6++vk42btwA39AsjQ310t7ZJp5AWMw21M3mlpUrlkkI35W9eE98nxWCX9/J2lmYrWA2NS5RN+4y2PnXj2d9fm2b1pPHctJbswz1D2oup8fjFp/Pj2fk1MaHly7mi184/eRTPzh76p+N8Gcuy2+Qv/n4h0tWG1p/PCIOpAa1qDJR2clWMMrEarIRcTpim2ZWHn4b15OrrK4Eu9i5S2LTMVUwjk/zcIZmMWbr0sUZ6bPhpTN4MUCC4wxmo0Ch1YQzuhB0M64NwlLFZpc1K6R+GZQ+pwzKEQpGF8DoyIg4HCYZHR3FdRySxzEc+Lp4/mJpqGtQU5ei15sFDesfBavlcxkw55SMwyRtBmhZJhsDsh4DQzSl6YvysVD0dL5QHw5FYroaxxEmwfKhYEg795nYjSK0geE1+ZnPsyR5gLcwAa597wlrT7pbC3yDC3/KsvwG+dg/fFQbeWicofT4yJZeF92HaUnlmUXJL1iLgQpuZqZHMBwWt8+txzGFi+Yl+8kcbof6QIxQsrNa15fDiwps+GxGTievyGuSATWwwe/Qbu2rI+hIh6roBqtQFD96Hk1VAIMgwPkmgKW7v1/7GGuramXh/IV6PMuheRgD0JhWxnKM7BVD8qY8yjKrOatshjI1Got/rBsvyGvBWoagAQBoB4bGJJXJis/rE5/fo+uj0x/Oo2wercyo98fzyeWsBYdC0d/NFrPJZLKnuz98yy23MIv7DSl672X5v/K3n/iYgo4tOv0VPiiaU/S+2LQz1mGDMnEHI4uUVCatSkzF0hOAi4bGZjUrCajo1AyAmVR/jJ3YTP/iO0HF/QSiKin8IpuOjwNrWQFEAF/BwDJRPudK4Vf21dEHJLvwkuxc1JoCbAbweDy+AyzKmthKlvYHgpqBwois0T0AgCmn4zrKVsalyKgsT7sSeO94qaen1i2zY9h1kpNEPC37uw5KdXW1LqVMtrei/rrcMu5dR63zYLzoD+s3/c+4JgNU/MqrzqWp0XNVi6IgkzDf3wpL9froTOxHlrxl9wUXnHlIDz9GxbjXsvwf+dtPfkyDldoaQ2EJJKPvzVBAo0O5pGahJjwDGKlEyjgWn6ljPJ+d0Zze3OP1qCnJbJKZ6SkoVwlMyJQvsBzOZ+ez0+nS72TNX6wNzsggyqPKklgNQBv1MT5iH3Yqg+BP/U8SH3fiGvzDFzUR6QuyTON+6AESSDz0l90WqvA4ldsNAuP5fDErhWDAN5SfBWtyzbxkIqnA4uImjrnMHNSPoqfO1YCVJ6DwmR9ZW0Zmtc+Q10LdWA9j+FRJAUtf2emGmY79Ljwbl8Mwx1HKpzpbF36SpR+LwmdYlt8g/+8zHwcuZsfN4TGpH6Lqo3mIhrJAdDu0wgm/iX1zzDbhkexY1owRHKNJyz6fVNVUaR9cHgwzMT4mmTTNMI9GDbl6qh1Kxf1kPAZlFHR4OWh+4p3ANBgLArpTVp37CUl/1HIyCd4seOexvAduNkDHD/iHa/BMRlC1PGxXhuPp/I9lzm4z5lbBJmzm+TQT4/DVZiYTMJdt4naD1WYbiSKuwSRwGz5rw0QQzTIXr6/dI3xeLBvlGMA3LkewEeY4XKLxmHbEM/JK5vf6uHilIezIZ3WKNtvMwtaFx+RM1Kx/Wf6XfOL7n7BbDpoymXwGymKAi6YWFVF/cGUQ/vgGa7Bhj0Zj4nN7VZEVkGzOcZwCD4pGEzUYCoo/FAAjOPBdZHR4BK09Ry7kYKICcAo2To1u0zlKCDQqsPp+vBpMTUZBWZ4yFgvBS8E1BxAK6mOBPaamJ75yK4mMdSrwFLwTwNzOZoFGo3F7VG0CAnfLOuN+9Xx81n5IsDQZjnNm0mQmE7HzXm8G//h0bPiM2waI8oY/ic+8AhmZ4CModf5NlqvXnL0entv0TFRCwQBbDG1oQj6/3gvNTNZFH6nWWCslmWThymXLln1fCzuGROtfll+Xd7/73VU1rTUjzKc0mIWMYCQ8UwHpx2ADHp4BvJmZGV2ggz6dsgj2UV3ZshsDXHEszuOLICTrhSJhHU7DeU/6evt1bsqiMqYxesHmhH8HcDKyybFuLJMAdACYKAbHYBvKNgDOtDUDMNzJPwOIVFGAkzc1e30VvnMfQErmYDklgJSi5iXeCQJ+ZnobL8DHoKWBUU3C4AgZi24kGRfb9DuBMWuiEuQog9fSLg4eh/vjakIKZVybuaqMdGogiW0bztMEc7xow7Jxo5n55S99WXwBNxomND0oz2J2ydVXv01yJdmxZP6yZTjzmBLjSZfl18TtNjnYUlOoQHxMZLA5xeJ6b1Q6KjT1l4EDzdLAH49Wv4R7wQJG5gbL4fkwTaFMBOnI0NBsWpZdmltahINHOU6PeZvcnoavFAd7ZvDOxfuZWcL8yVQ6pYuFMCDD42jqFvCd0T8qsIb1ASQ2EIx14IPWndk10GRlbBO+czc/s6OREyTxvvii4udh/oLmca0sqm42pvDDcbrQiAnowE0zrqlPBvemDROLwp8GfPjCNTTSSXzzjw8KwM7hwrx2Kot7SaZ1mS+SpQ/PsLayQtxgeJ7LOnDthn1792u9jMYP54Nls7mU1t1mth2TQ43KoPsNEsvl7WQ2Kozh0xmmDRWSXxkCVyXTjSYNJOSpSdxJRSPO8JmAVeXnJiBOFZLmFc6iqTY2OqpT4uVhXrZ0tEkgGIK+gT8JIICJIwTYQZ2Mx6GgKUkmEhIH6OLphCQzACcBihfNUx7PSKRGJHENNYFxfY0AKgj4Mn5wMg35huBgcMiIGBl1pV+awLVYPzUNcYLH5xIzWcbMvkea0/A18aIZTOZWwALoNEE5U5rCEWXSHFbAALD6aHAVps2x+4SDZP0BRm8tUhEMihvPkF0afKS8FzZSXvi78xfMF7/fr2vs2ThCAqxMQO7cuZs1RonHnsx6smWZkzPPPNPzlx/6wDA7l6kBajqp6YZ3agQ+c5v+4NAiVWAolRV+iEY2aU5qy687FaBUPMO0Y7SOOZwsDfiDksXAeqlkRtcVj8BErayu0sRqKhbhSdYk+MhuzOwo4hyyW1r71Qi0AoBVlAzAR9Axx7NEH4gXMNRfwc8ltlglqqlhVrJ07uXnoowMj2maGJmUrOtyOcVqN3xKgkwXHoHNSLhq7fV2yHcMNtEUZWnYi8ZK749Fq8D3Qv3TYDX2G9JUtgNoAa9X/HgxIskS2bnPZ8r60d/kc2OfKB8lLQsrjmM2C01uzjPDnNb58+bLl77435/SyxxDwvsty69I+/zmVQ8/9FMJBYJSyhXhQ9F3gurMBgyozFQ99S04vk3Vjn9kACimajYVmj7M7OPFO8HBYTx8p6jO4o9MxJEAU5PTaOEzwiyY9vnzoJic7JUHGtrL49iBzcVByEYZsFE8yk73rJqZ9H3iCc4kzSncyZJkFMP8JPuQQanUZCRdmAR1mm0XZMf2PTI8Pi7JbEoiVRXi8bDrwujU5hE8UxkODQ4/8xmYisZQIAqJlI0RR2RwcRMFNY7htRLwVdnF4PO7ARqb+LwuqQiFxQVm0yeJSuTQeDBKe+YZZ8vWLVsV5EYOKv6h3GCQx8PHxTlMMHBxzho0Bseq9pZB97/kK1+69RmTWMf6e/qkKlIpDfX14nX5xIFWl8EKqh1xwMidmk4EGnRP8yLZOqufZwDO6Him9jFkjn1URuqpoaWq8ar4+BXGRkZldGQMgMpgc0la29vEAz9H+/zUPKMiQ0F/YXqmJAM/LwG/j0N7EvD9mO+ZpvmZSRm+H46jKZcFmNMw67gyK/1GMmEeTMpUsJ0792oGSQAmXE1NjfY7sj56D1pF1Xy9V8NUZeiE/i7Zk0/MeDfzxvRmcHtgW15zYmJavGBwl5vTA5qlwh805vkECjVqm8V94H6efGKDrD/9bDxDi/zVh/4a9YRpO/tHs5w+M4NLTgaW0BhwSJUN4FNz/RgUfWxl+b/ytre9ra5jfusAQ/k0d5avWikHuw6oGcQR5TQlf8FabNYJMmhcCUpEhQWxEH7QQwJPtVgfNt54lJ5HNuFPwHkttQ8Ox1G5yDaVVUafXhLA6jnUDcaiuUmhcqNc/JEd6Fdx9i76gfSDGMq3wTx00zyEqUdl11HnLBtMw0X+WZ8YGGjnjj1gIJ+0djSLz+OFKYny1KTTmirQyN784+e50L7eHxSejQrNT6NW2A9GTSZSOkLdYEqwFMolUNja0NsjIHku5/G8+YZ3apm8Hz4X7Eb5BXn45w9rpg6vyZuOxqal69ABYxpDZfio1NQ26vycCzoX88xjSspM91vkrrvuGjx8sHcjFwVhZPClLVvQwlpk/vwFcPD9OpDTMLmM46mIxpwjNNugrFQYaIyaZNg3dxyByX8KRGU+fuexPABMBgCOg/E4vR4TmDnrFwGo1wIAVA9xKIHA6CCPISB13QQwR4qRTgZc4nEdz0fmZDCGPh8Vll0AsXhCtr60XUeWV9RUqP/GAIUBKhqhnAkNPiOAosERbGOwh4BT5oPoJ9yURmWxidMLDvQNSCDg005zRiMjgYBO6sRKs948JpVIy9995O/k7dfeqExLf5Pl80/vSQlTH5CawKRRtxvARYNAX9oI3IhwWkQ8DyPEfIxJGXS/Q7773e+dlMsV04cOHQIYCjI2MSEvbHpBzZwVy1bo9Ans6OasWup6QRsUXFAMMguhoQBUPKlH9YsObAUOdnArtxgKT2UWBXlvb69MjU/q3CvVAF1jY6MyJ//UxMU1jOsZSsjzCShmueTwYkoapw6cic0o+2j0E68YwPjshme1G8EX9CngaDSTpchALKcAU5R1QOW0bJqCbCQUINwPsDCwMufTMpAzPDQqzS1NCp0K+MNcH4+PhP+xIWFUdevWl+SCcy+QTS9uwfmMAPNsCMriH6/F7wosbuZnfCD7o4L6HPlcuUx0RTiCuuaPydWEyqD7PXLbrbe7LGZbsR8gGBkcUdD09PTIlk2bZN3atRLwBdQ006wRtMxkO4bTDTAYgKMyUYW43+gvo3lmROv4mUYqFYzKy3dlGijq4NCgjE+MAyAFXV+uo7MDe6jHBiDoJ1I9+SMaJiGYA2WwC4G+XDwRVeabiU5LIp2AqZqS6ekpjXC6vW4NRtBHYx8gj2eKVx7g0NqgPGPUgdEYzLER/3hTykZ40cTc8fJOaWpoEBji4oZZyCildpeo71aArzoq609bLx/+0MdQ7Nyz4V2jNLY+LHvuGnh+zPHULg0VmNEaNGHUF8+T6W94jpWVFbjXkjGq9hiTMuj+ALn99m+iUbf/A+eaHOgbkt6eXu2wfvD+B2V0aAQm5zxpa2uVcCSi/owGV/RlmJqqqGy9oUxz/h+8Jygl1RvH8AMVnfrHY1QZSxqM6O/rkxEorQ6K9Xll8ZLF4rA5ZxWX3InToJNUbkZAuIVlqI+XZ0YJzU52TcR1cqVtL21T5nDZ7TiR+9M6jQOnmKD/SPDRVGUDoH19bAFQprIcthnoIBBhcsKsfWnzS7JsxRKtM0cYcFgTgUuf96nHngLYzparr7iORKXH6/wwBDKL1ZJZNi+in7SRUgH4DBAaz5H70fhhv5EEzv1k2mNRyqD7A+XrX7/tM+l0tqKYL+7i4FX6L5zajkB5YeNzcvBAl3R0dEhzc7OmMs0l89IPpNLMmYQKFgIEYii0aMBkTrhflX32OxWPOZoTY+MareQszPPmzTPK48X5wsFUVuM6+lUVWLsLcD4BSd9uGA0EI6Hsh7PYzGq6soshC2BmsD+HF6OefDGCSPCQNbMALQEMrOi07slUGqAqyeFuLudVC+Ysar3Uf8WV7/ze3XLm6WfJpz/5WQM4eGmgCPdPZuR31puNA+vLu9BN3IaHYpjmvCfumZUinx0/zD4bHAdr4NP8eKzJsdlUHCXZvn17atu2bV8+bs1xG9H+Xk9W4PCWQMAvWTTl/WBAmpdLFy/WfjIqbTafUQBqJztbbCgOwUKzjYpoMJYBE2431HFWVInpzhR1FDbzFj1gOyZFV1ZX6KKPypJwfHIZYyUgNd9wDgnVKNO4ZjzGyYviGm30B7yq2GQcrpPHo9TcxXWYWaPXVOADsGQ1/gG4BCA1n3VOpbKye2cXmHe+gikSDGt5f/1XH5aHHvwJL67n8p54jgIFwu+M+hqZPthOk5FNCL+jqqzX9Tdcq1FX5Xxs53MaGRlSwLIB4T3U1NTK0kWrbjRKPbaEd16WP1He+c53Xg3wfA+GliqS3eaQxsYGfOZ8lWY576Lz5cUXN2kkkX5KHi/Ne+TJbOWp+PhTY4v7VDkNVphjiLlsf44ioM9UU1sj1TU14nC7lCUO7NuvpifHtRHIVHCWy6vgFI1wkhUGB0cVFA6XHf5Qpfb/8Tr0l6xWdlfA4IXfRNNTp4m3WTW6aTHblX04zwvrSIVnVs3PHnpcLrjobO1m8Lu9OvzmgnPfIsl4iodBWP9f+qg0qw3mKord7tR7S4JRWQetM47kfvpsDz/6E51FWwXHsY5bt23W5IB0Ji2RcIXUNTbGVyxa4zMOOraEv1tZ/kT5+te/fsdtt90GAjOnqbBM1zp4sIvqg70meehHD8miBYtk4cLFEg4HxaZ+HvvCjJdhbho/Ar+rH0ggztKCsQ9AxAa+M6DCfM3RsRGYgyk9oB0mLadGoNDvUuBC2dWgRVmsCbsSCgVjMiCOUuAFCFBNkoYJmkpyYUhGN42FUmhacp2FNNiTUwlqdwS+k+k4koKNSMlE/4y+WwGA87LZkEQiZdSd/yngzACPR/sL54R3wgmbOMyJw4Lo57GznJVjg8OhP1pp3ovClV91g46aYGPBTnwQ3rTuPAalbF6+CvLSS9v+ceXKFR3Qm2VjY6OqyDrq2emU7kOHZGZyUuYvWKgpTIwcGoxknEsdo0KpiclWH2/KDNyK/zREz42kLTUdS5KIwdQEQNldQYUPBIMyNTGpZRN0cwzKonk+WZArq3J2My98L7IYhceyLr8IZOBNAx2oi/ah0aQk2HA/ZGNjjby89Hb3ynHHr1VG97jc4vd75JQTT9PrGmJcm3mWvA82KLQEjMgt7g9USIDrPeMcApfCZ8a7v/6G64xGia0EvjN4MjI6rAzK+lVUVMrqZWsDetIxKGWme5Xk9tu/dd03bv+OKRwKf5im2uTklHQf7pXBoWH1f57f8Kzs271H6qqqZcWyJVKpkU6XtvYcM6dKRh2EoungUb6gi1R2DiNif5XqLJSUXtjgwJAc7OrSfjdmpqxcvUrfyRDUdAUtUEQlTSa5grEBUk58RDFGFmAr3nktHkefiVHZaDSq5bK7YgJgjnExk5lpnVx3YnRcug72SCIek1wqLaFQAOfT77Lp9RRIEAJbx/rpZbif94drATk0EwlwvujbMWOFZ3EEAtnR6HBnvXD/6pzyntggGVk4s1U/ZqUMuldZvvOdu/4jnY69WXMttRUvyqHubpmJxbHXLLt27pStm7dKR3uHBAN+vLxGTiGUSaOPMMVoZhqtPJQMAKahZYxjU/XTHw2H6CSw48NjMOsM1li95jgNshiMQ6PMBIYzmIoNgYOj0anMpAwovPal8QNLZcEAnnFdHEMQZvPapUBzMsXMlnhShgZHNOrJDngGXZiupUDBZ0UJBWUwIstzWAdjRKtxCdNs66EBHN4PzjHpuTzGGCbF+VAorAufRR7sSsYmuzONDX7qg3rAMSpl0B0BueOO+5649dbbTclEIqnBCSjKdGxGdh/YCxU3JjB68vHHpQZm0trVa8F6YTU9ma9Y4nCZWdCwP4qKahiVZJFZvYZ+FqnL+Dg8MiST4xOSSicUVMuXr9BzjL4t0a4CRiZtdo48Zx4pmYUmKEebAxIoyPD8ZsvkNrwIIoKdwhQwTiPI2aFjsagCOZ1JwXx04ggykhqfAPdsZzpAzVKrqiq0Luw/VHDpN7Ixy8U1AKa56/Ceeb8//NF9apYbwhueBR9ePCfCWaut9vcb+49NKYPuCMqdd97tgdn2EgEAHhOf1yvdBw9JNBaDEprlhedekJ/+9KfSUFcPBY1o/x770KiamuYFIQNC10AOgAa26Vb8ajyGL/pDfX19MjE2JdlCViOOq1esAFIMhWXXBQsgg2oGyq8glnrMKRS045sH411BwHceSb8O37mf/mIsGgew8pIrMOMlq8OeeJGP/M1HlUnVd8M5LJtlzESn8BHgAii5nfXV+kOwW4FG4TXY0b1y9QpdcZbj71g31sHYz6BNQQnTw+wf1xwoj00pg+4Iy2233b76a1+7lWp4o63EJY0daqb19/fJ6OQEdVaefuppOXzwMJivSlavWikVYD5OZ0fFo14SEOyDg/YpEHgOhxOx9Wc0j6MUDuzfLxMj4xqg4AKWS5cvNiKR2EemcDqNuVW4IisbAfqHjF7S/KUoOFAwjzVYyQCDCo5lpFI7zcFmtbXVOgawsiKCnWShXwZmOOKB5zPSytP5mdFTQ3hD2IiLsy4KPDQkZ517tjz74gb50v98QTI5Y04W3afqafi3vD5qIS6XR2Y7E45ZKYPuNZJbv3r7N7PF0nnMy1RWgUqxf23/gQMasKDfsnPHTtn84iapr6mRmqoq8ft9apqSRRhJIcC0g52CN4OhIAQKlHhocBh+XlKyABIzRFpaW3CuodiaNIxrqgLPMgdFU6ogLAv/GdFVfsbLAIah9MbSXgZSOFcKuw84lyePJYg17Ywo4/VwIrsC+J39auwkJ3hoXnIwLSur17CY5Av//UX5p3/5R4NVcW2aqnOin9HqsLy6ulo1X1mXY13KoHsN5Rtf//pP9+zdZxsZGvspgx0WmIxBfwj+UkYOdRmTFjM48sILmySTTMPfWyWhkF/cMBltZoAD+kb/iyAiZKiMVF4j8mmCvxXT1Kx4Ii7pYlYqqo0lj8k+BCyVmGxGtSVQfskgFG4FMIhS3U6FR/kAzpyi6xteHEhrLrJD3TiW17facA2yHA6ZOyefZ5QSZerpOFZf+ILz/MGAvLBpg6xbtwbHceCuAVg+F8P3Mz5zUC0nb3I4XAAlzVRj37EsZdC9xvLUU0/lH3jggfO+/tVb4aaZtnGGr8mpcWiqSQ4e7Abz7VPV7IGf9tBPfqZDZk5cd4K0NDdLJASz00EQcdp1mnE4UHXYZAAPJzJI08WuhJm4JKNRzY30uL3YZzAG2YwAzRdhdoJp5oQgIYvyj8JxcLoN5yi4CSQCAy+dDQ3XI5BZWQKfpiBT4JixwoG/RpTUYFYGYujXEegf/Ou/lOc2bZRHH/uZlpkH66rgXN4AmwTW1cnJd21Gvyajr+zi4MiEfC6Tbmtb3GOcdGxKGXRHUW7/2u0rJyfH/qapsVGYzUK24HyWh3q6ZXhkVEHFDJBHH/25uOxOWbpkiXgZSHA4VeHZv0fficdpxj0VF5LP5mWgr1+i0bgOtnW5nQpUKjUVn8quk+jOWXLYrkhHORrwQIEauOB2blQhuvANtEUuYiRUt/HaaABIZxowgWnLjvgsZ/3KprQcJn1Xww+865475eprrsL1878EG65l9BkWURobD8Pv5eh8TtPHuhZBcRaz7YvxdPEbE2MTxxknHrvCuy3LUZZTTz3VW1tXGfV5/aZcidkf0EUqLxjC6/dIXU2ddhsQbKefcbpMTk9J/+CgMUqcExFlyAQGQxgmHwrAu3YyE0jMBsEmQpJddFwgksBRtOIcKoEBNKODnGbo3PTvPJfl0p+amprWazY1N4jL6pS3XXulhv0/9Q//KM889TRK4aUBSlx7btQ3GfGDf/kBeeslF+s+TjBLguWllR95LM7j8dqZjq3MemG/HD8ze6WzbSEPecNImeleBwKTM37Xnfc4Nmzc8KjT6hIHWnt2AjtcTsmkstILU5PKx2E4jzz8sAwO9svKpUukoaFeR35zEUo7/B52JFOZCThmd+hUDvC/tDOcjII3VXIGMtQ3Msw/NRpnz+NBhAG3U7SjnZ/xAhZVWDfOTs1tDKiQEcm8JDwyro6kp6lqssgPf3SPXHrpW5XdGCjRsvk/6kr3kecSbDbUn/s5DwovxO1MRSNI32hSBt3rR3J7du8/6ytf+ZppYmx6novzQ5pgatkBJgCkr6dfOG1EHozT190vD97/Y9mzfZf6e+2tbbrghsfl0cgiwcfMFJqAGvGkYhMR/LWxTwFBJsJ2/gEF0HOAkxkpClwjEMI/IygiOpMY3wl+RSnLwnGcD4VT/RHYZjNXGLJIc0uzPLPxSXlmw9PiD/okW8jgFPqERqSTYKcPyIaCYOP12dluLFRpsBsTtFGZv1nYuewNxXKUMuheh3LfffcdyBWLFwEAWauufWx0PDvsLunu7tauBvpzDDI8+vAjOiJgxfJlEoqENJ+TpuFcxzYBpxFJvGtkEApOg9JQfkN0N74r581iiqIsCAAYfpXxnd0YJZzaCJbVgwkglA3yxLeSXHP9tfKd735T92UKST1nDth85xkczmPkZXLt9jSOy+hngp1dDwp4FFig7foGlDdcK/JGk6uuv2pLwONZxZHaqtxQSIKtUMjqEBeP1wuQMZJokZNOOUln+hoaHpaJ8Qn16RhmV8XHuRT10Qg4gInb1e/DHwMe/ExU8J0ApU+now2KJknGjclsw+EAgOeVS9968f/f3vnFNl1Fcfx2Le3Wykbp2i3qxix/t3VlXVtLQAghojxAmAZZYiCEhH/6IIkiCS8++OALiQ+aECwLkRhiYiREDS/GxD8BceqYGJiCBYOKEdetZWv7+9N/nu+5LcZoQuDJrve7dW3XX2+b9ffZOfecc8/luksEaL4buyi+PPeV2P/ifhoTY8i5oUSMeSKQAXxJoB0gmhLhNRAsqb4+4JYIk+h95XTjh/7eUA/uzjYp6GpAa9bEurt7g+M8F4PJqX5qdHKiggONYn0+H5+0gODhzg5OMSSuJbgRLbqA5WmOJ5fOALTKCV4BDEEL+hWDx64lY4B8HBLlBIeeF7msKaZnUuQ6drBL+ezQEB1b5jpJNCKC/cS4Mn2AwfGDrugao2F+h8IAQI90BQ3LjyHnh3pQ+k9Az8XmIKYoGIWNoWD0jBxh9gmfgtL/XDdu3EyOfnvh1XB0IEfgrMcZizVmIAcrt1H6hSU4Hq9X7go0leZEObqVOV0urg7RDZRXAazKmjt2L2WkEZhUI5z4AfDYqgJG+j0ilwjioAysvc2HjbJET6Cbj+F6ThDLlEng+IJoKn1hLol8G1xKaaHhMdIj9FxES+WKClS0YDGtLvJa2RsORS/SQbNWCroaEoF37smNm/ymng2AF5gnRAuTyaQYvzxOFqiR3UGX08VRTyTaAUwwEOAaTFn8DKjgWvKpz/cBGt8m2AAfJmgSJECKvJtBF9Q92rkfTANN6noCyxhYtp50zWPQVRVoPBt9TmxWtD8ncCsJcjwu54hk6gAcv0ZeZDL6wXB/9Il4PF6TbfXuRZW/ulKtacOGDc1ud/N4S/PchwAKIpv+hUv4BIeb2Or1kNuJBaZ0MH3KXl+r6O0L0Mmd5ZYSWIMHRxKBC7Y6AI5uowsz4GCKCD7AitUFWBv3II2BbZmxc87mwU3cduFvVV6IxkJ7Blg2dk3JXWQa6baEnSwgWTbkFZFfNM38e/194SE5Rn1IWboaVSKRMC5duvx6cHnv1pZ5zd7UVFK0uN106uOkt3LS/NbEH3TC23i3HKwIv/nLr+QOWrmFn6xjlIBVI4ZELLuT7HqCIbpgCQ+vViBr1+b10ehlESB4Pa0eHgs8QdVUAICDBUTFCQIxwBfkw7LhvSFAg9twecmd3DuwPHoIh9STFHQ1rrGx74/4/R3nPR7P9lt/TvC+5yCh2FDiNENW00QqnRLNcAvp405Np8XtVEos7V7K0U/eWNLIMWMc2SRKcBtjAJxsRrszJ2ydP4+jpAMDIa6OubNygY6F9eINTQh47NVejUZWgUOshGEkwLkBkmmui4Rip3BIvQn/npRqXCdPnvo4nR51OOx2PtGrgRDMtwACKkgS164LzdB4I8p0Ki0+/+Qz8c3IiOgL9nLkEw2GGm0OJo63BAN8RVmDiQAI7zVesWYOmjvaHfJYwGml0wgWDpFLLY/cHP0aLipbTgRLZIIeVjUzPXPl6/Nj9mhoxad47/WoinOgNJu0Z8/ujyzWho0y+kgfMuZXIIRoyJNlszfaCLR28jwJGLo02ZvE8mCQE9zXr/4spska6poppnMZ7o+CyCVaSjTPnSvCj0ZEV9cCuk2Wk+CENUXwBrv8QAw9KlsYerlSAfM6PZv7MW9aHovFYpN8YB1LuZezUKOjF94ND4QXWxosQcaAYOJUGt3AF3JjyalJgiUvXI1OtmS//3aT5lia6A/3MywIoKSmpoSh57mO0+dr4xULgb4e4WxyCSc9D2AhwY1xOPXArmS11ItE99GCXcsZhyMDKwaHh4c1+UB9S7mXs1TxeHxboVTcjpkVoOGoIdk7uInI7cG6IS929aeEKGOfAnIlJyYmxNkvzjJc3b3LaH4mq/7Rn4VrSgim+W43t9cDqNjzDmCRM8oWlV1Jgg8uJ+aDMzR3MzV9dTQcO8hvSoml3Ms60JYtW5o8HncO8zNYJxg9uIZFC/JyBXYHUdnSTi4nB2JIqA55xO8XIzTv83g8BKpNOF1O8czQVnouQv8Insh5Gls3hg3glblPJs0dw9Hoygs8mNI/pKCrI+3evetaQ4PVj4AHkcZzOLQqB4ywZXnDFI0Op2hrb0NVFllIchtpzoaV4BC6SQ8+tZlhw8ogrOSGlYNlg8VDiiBr5LKRvpgkV+k/pdzLOtKxY8MLHQ7rK8wIYvjsE9I3/vUSZShGxmrvROKK0GguhjxcFSZYNMBGJo2Op9OGXEkL3MoKcNhYcjo7874C7u7Cn1upDrXvhecPm7pxwEquopkv0HyNYKKLtQiXUXYKyxfJ8tkbeZcguI/Y9AMrwNGzhKtKCDbk73RN/yAWWTnIT1K6q5Slq1MdfePIy0VR6CbXsmi3zeHopgUNam0yv4ckN/b1hnuJ3WDRpQy1l5OTSXYnkfBGKZmeyYUUcPcmZemUxN59u8p3NvanL0T8AZ5/0QLR0uIWoUhIGDlNnPnwNO9Tt23HTpGeSo2siq1dURlC6R6kLJ2SeOvosKVQKuwplkslRDV5aTgB+Pj6dWLVqphoctjIuJWFxWoTSxYvLWm3s08r4O5fCjol1onj7xx7+/gJa7Fcfk2mFbDKu7KbEN0vFvT4A845XTt3PGeNRFaerjxN6T6k3Eulf+nQoZcCmUzuzdVrV69dtHDBgdb5HUc6OztVNYmSkpKSkpLSXSXEXzzPxiuq5DcNAAAAAElFTkSuQmCC;" parent="1" vertex="1">
          <mxGeometry x="292.73999999999995" y="511.00000000000006" width="48.9" height="54.43" as="geometry" />
        </mxCell>
        <mxCell id="ZI1UuaGwZEScA0NQS_c4-29" style="edgeStyle=orthogonalEdgeStyle;rounded=0;orthogonalLoop=1;jettySize=auto;html=1;entryX=0;entryY=0.5;entryDx=0;entryDy=0;" parent="1" edge="1">
          <mxGeometry relative="1" as="geometry">
            <mxPoint x="281" y="304.6111111111111" as="sourcePoint" />
            <mxPoint x="338.98" y="304.5999999999999" as="targetPoint" />
          </mxGeometry>
        </mxCell>
        <mxCell id="ZI1UuaGwZEScA0NQS_c4-24" value="" style="rounded=0;whiteSpace=wrap;html=1;dashed=1;dashPattern=8 8;" parent="1" vertex="1">
          <mxGeometry x="120" y="283.49999999999994" width="70" height="65.6" as="geometry" />
        </mxCell>
        <mxCell id="ZI1UuaGwZEScA0NQS_c4-17" value="工作人员" style="shape=umlActor;verticalLabelPosition=bottom;verticalAlign=top;html=1;outlineConnect=0;" parent="1" vertex="1">
          <mxGeometry x="129" y="291.05999999999995" width="15.71" height="37.8" as="geometry" />
        </mxCell>
        <mxCell id="ZI1UuaGwZEScA0NQS_c4-30" style="edgeStyle=orthogonalEdgeStyle;rounded=0;orthogonalLoop=1;jettySize=auto;html=1;startArrow=none;startFill=0;endArrow=classic;endFill=1;" parent="1" edge="1">
          <mxGeometry relative="1" as="geometry">
            <mxPoint x="188.99714285714282" y="302.25" as="sourcePoint" />
            <mxPoint x="232" y="302.6111111111111" as="targetPoint" />
            <Array as="points">
              <mxPoint x="211" y="302" />
            </Array>
          </mxGeometry>
        </mxCell>
        <mxCell id="ZI1UuaGwZEScA0NQS_c4-22" value="" style="image;aspect=fixed;html=1;points=[];align=center;fontSize=12;image=img/lib/azure2/management_governance/Managed_Desktop.svg;" parent="1" vertex="1">
          <mxGeometry x="152.27714285714285" y="299.2399999999999" width="36.71999999999999" height="34.128" as="geometry" />
        </mxCell>
        <mxCell id="ZI1UuaGwZEScA0NQS_c4-36" value="边缘AI训练服务器" style="text;html=1;strokeColor=none;fillColor=none;align=center;verticalAlign=middle;whiteSpace=wrap;rounded=0;fontStyle=1" parent="1" vertex="1">
          <mxGeometry x="320" y="184" width="43.97" height="15" as="geometry" />
        </mxCell>
        <mxCell id="ZI1UuaGwZEScA0NQS_c4-45" style="edgeStyle=orthogonalEdgeStyle;rounded=0;orthogonalLoop=1;jettySize=auto;html=1;exitX=0.5;exitY=0;exitDx=0;exitDy=0;entryX=0.5;entryY=1;entryDx=0;entryDy=0;startArrow=none;startFill=0;endArrow=classic;endFill=1;" parent="1" edge="1">
          <mxGeometry relative="1" as="geometry">
            <mxPoint x="373.98000000000013" y="410" as="sourcePoint" />
            <mxPoint x="373.98000000000013" y="346.5999999999998" as="targetPoint" />
          </mxGeometry>
        </mxCell>
        <mxCell id="ZI1UuaGwZEScA0NQS_c4-37" value="" style="image;html=1;image=img/lib/clip_art/computers/Server_Tower_128x128.png" parent="1" vertex="1">
          <mxGeometry x="278.19" y="410" width="68.02" height="60" as="geometry" />
        </mxCell>
        <mxCell id="ZI1UuaGwZEScA0NQS_c4-41" value="" style="image;html=1;image=img/lib/clip_art/computers/Server_Tower_128x128.png" parent="1" vertex="1">
          <mxGeometry x="360" y="150" width="81.98" height="75" as="geometry" />
        </mxCell>
        <mxCell id="ZI1UuaGwZEScA0NQS_c4-42" value="" style="image;html=1;image=img/lib/clip_art/computers/Server_Tower_128x128.png" parent="1" vertex="1">
          <mxGeometry x="398.19" y="411" width="66.02" height="60" as="geometry" />
        </mxCell>
        <mxCell id="ZI1UuaGwZEScA0NQS_c4-43" value="统一视频平台" style="text;html=1;strokeColor=none;fillColor=none;align=center;verticalAlign=middle;whiteSpace=wrap;rounded=0;fontStyle=1" parent="1" vertex="1">
          <mxGeometry x="346.2099999999999" y="421" width="50" height="40" as="geometry" />
        </mxCell>
        <mxCell id="ZI1UuaGwZEScA0NQS_c4-44" value="物联管理平台" style="text;html=1;strokeColor=none;fillColor=none;align=center;verticalAlign=middle;whiteSpace=wrap;rounded=0;fontStyle=1" parent="1" vertex="1">
          <mxGeometry x="464.21" y="421" width="80" height="40" as="geometry" />
        </mxCell>
        <mxCell id="ZI1UuaGwZEScA0NQS_c4-50" value="评测图像数据库" style="text;html=1;strokeColor=none;fillColor=none;align=center;verticalAlign=middle;whiteSpace=wrap;rounded=0;" parent="1" vertex="1">
          <mxGeometry x="529.9200000000001" y="346.95000000000005" width="100.05" height="30" as="geometry" />
        </mxCell>
        <mxCell id="ZI1UuaGwZEScA0NQS_c4-54" value="" style="endArrow=none;html=1;rounded=0;entryX=-0.002;entryY=0.344;entryDx=0;entryDy=0;entryPerimeter=0;startArrow=classic;startFill=1;endFill=0;" parent="1" edge="1">
          <mxGeometry width="50" height="50" relative="1" as="geometry">
            <mxPoint x="467" y="319.16" as="sourcePoint" />
            <mxPoint x="537" y="319.16" as="targetPoint" />
          </mxGeometry>
        </mxCell>
        <mxCell id="ZI1UuaGwZEScA0NQS_c4-55" value="请求评测数据" style="text;html=1;strokeColor=none;fillColor=none;align=center;verticalAlign=middle;whiteSpace=wrap;rounded=0;" parent="1" vertex="1">
          <mxGeometry x="479.84000000000003" y="280.1" width="50.08" height="17" as="geometry" />
        </mxCell>
        <mxCell id="ZI1UuaGwZEScA0NQS_c4-56" value="返回数据" style="text;html=1;strokeColor=none;fillColor=none;align=center;verticalAlign=middle;whiteSpace=wrap;rounded=0;" parent="1" vertex="1">
          <mxGeometry x="478.92" y="323.6" width="51.08" height="26.4" as="geometry" />
        </mxCell>
        <mxCell id="ZI1UuaGwZEScA0NQS_c4-60" value="模型训练数据库" style="text;html=1;strokeColor=none;fillColor=none;align=center;verticalAlign=middle;whiteSpace=wrap;rounded=0;" parent="1" vertex="1">
          <mxGeometry x="529.92" y="225.00000000000003" width="100.05" height="30" as="geometry" />
        </mxCell>
        <mxCell id="ZI1UuaGwZEScA0NQS_c4-61" value="" style="endArrow=classic;html=1;rounded=0;entryX=-0.002;entryY=0.344;entryDx=0;entryDy=0;entryPerimeter=0;" parent="1" edge="1">
          <mxGeometry width="50" height="50" relative="1" as="geometry">
            <mxPoint x="448.97" y="179.2" as="sourcePoint" />
            <mxPoint x="518.97" y="179.2" as="targetPoint" />
          </mxGeometry>
        </mxCell>
        <mxCell id="ZI1UuaGwZEScA0NQS_c4-62" value="" style="endArrow=none;html=1;rounded=0;entryX=-0.002;entryY=0.344;entryDx=0;entryDy=0;entryPerimeter=0;startArrow=classic;startFill=1;endFill=0;" parent="1" edge="1">
          <mxGeometry width="50" height="50" relative="1" as="geometry">
            <mxPoint x="448.97" y="204.36" as="sourcePoint" />
            <mxPoint x="518.97" y="204.36" as="targetPoint" />
          </mxGeometry>
        </mxCell>
        <mxCell id="ZI1UuaGwZEScA0NQS_c4-63" value="请求数据" style="text;html=1;strokeColor=none;fillColor=none;align=center;verticalAlign=middle;whiteSpace=wrap;rounded=0;" parent="1" vertex="1">
          <mxGeometry x="458.89" y="161.8" width="50.08" height="17" as="geometry" />
        </mxCell>
        <mxCell id="ZI1UuaGwZEScA0NQS_c4-64" value="返回数据" style="text;html=1;strokeColor=none;fillColor=none;align=center;verticalAlign=middle;whiteSpace=wrap;rounded=0;" parent="1" vertex="1">
          <mxGeometry x="457.89" y="174.8" width="50.08" height="33.4" as="geometry" />
        </mxCell>
        <mxCell id="ZI1UuaGwZEScA0NQS_c4-65" value="" style="endArrow=classic;html=1;rounded=0;exitX=0.387;exitY=0.007;exitDx=0;exitDy=0;exitPerimeter=0;" parent="1" edge="1">
          <mxGeometry width="50" height="50" relative="1" as="geometry">
            <mxPoint x="387.7420000000001" y="284.01999999999975" as="sourcePoint" />
            <mxPoint x="388.98" y="223.6" as="targetPoint" />
          </mxGeometry>
        </mxCell>
        <mxCell id="ZI1UuaGwZEScA0NQS_c4-67" value="" style="endArrow=none;html=1;rounded=0;exitX=0.387;exitY=0.007;exitDx=0;exitDy=0;exitPerimeter=0;startArrow=classic;startFill=1;endFill=0;" parent="1" edge="1">
          <mxGeometry width="50" height="50" relative="1" as="geometry">
            <mxPoint x="420" y="286.9" as="sourcePoint" />
            <mxPoint x="420.98" y="226.5" as="targetPoint" />
          </mxGeometry>
        </mxCell>
        <mxCell id="ZI1UuaGwZEScA0NQS_c4-68" value="启动算法训练任务" style="text;html=1;strokeColor=none;fillColor=none;align=center;verticalAlign=middle;whiteSpace=wrap;rounded=0;" parent="1" vertex="1">
          <mxGeometry x="330" y="245" width="60" height="30" as="geometry" />
        </mxCell>
        <mxCell id="ZI1UuaGwZEScA0NQS_c4-69" value="返回训练模型文件" style="text;html=1;strokeColor=none;fillColor=none;align=center;verticalAlign=middle;whiteSpace=wrap;rounded=0;" parent="1" vertex="1">
          <mxGeometry x="430" y="246.6" width="70" height="30" as="geometry" />
        </mxCell>
        <mxCell id="ZI1UuaGwZEScA0NQS_c4-70" style="edgeStyle=orthogonalEdgeStyle;rounded=0;orthogonalLoop=1;jettySize=auto;html=1;exitX=0.5;exitY=0;exitDx=0;exitDy=0;entryX=0.5;entryY=1;entryDx=0;entryDy=0;startArrow=classic;startFill=1;endArrow=none;endFill=0;" parent="1" edge="1">
          <mxGeometry relative="1" as="geometry">
            <mxPoint x="413" y="411.4" as="sourcePoint" />
            <mxPoint x="413" y="348.4" as="targetPoint" />
          </mxGeometry>
        </mxCell>
        <mxCell id="ZI1UuaGwZEScA0NQS_c4-73" value="" style="group" parent="1" vertex="1" connectable="0">
          <mxGeometry x="419.38999999999993" y="471" width="24.82" height="40" as="geometry" />
        </mxCell>
        <mxCell id="ZI1UuaGwZEScA0NQS_c4-71" style="edgeStyle=orthogonalEdgeStyle;rounded=0;orthogonalLoop=1;jettySize=auto;html=1;exitX=0.5;exitY=0;exitDx=0;exitDy=0;entryX=0.5;entryY=1;entryDx=0;entryDy=0;" parent="ZI1UuaGwZEScA0NQS_c4-73" edge="1">
          <mxGeometry relative="1" as="geometry">
            <mxPoint y="39.13580246913582" as="sourcePoint" />
            <mxPoint as="targetPoint" />
          </mxGeometry>
        </mxCell>
        <mxCell id="ZI1UuaGwZEScA0NQS_c4-72" style="edgeStyle=orthogonalEdgeStyle;rounded=0;orthogonalLoop=1;jettySize=auto;html=1;exitX=0.5;exitY=0;exitDx=0;exitDy=0;entryX=0.5;entryY=1;entryDx=0;entryDy=0;startArrow=classic;startFill=1;endArrow=none;endFill=0;" parent="ZI1UuaGwZEScA0NQS_c4-73" edge="1">
          <mxGeometry relative="1" as="geometry">
            <mxPoint x="24.82" y="40" as="sourcePoint" />
            <mxPoint x="24.82" y="1.1111111111112204" as="targetPoint" />
          </mxGeometry>
        </mxCell>
        <mxCell id="ZI1UuaGwZEScA0NQS_c4-74" value="" style="group" parent="1" vertex="1" connectable="0">
          <mxGeometry x="301.38999999999993" y="471" width="24.82" height="40" as="geometry" />
        </mxCell>
        <mxCell id="ZI1UuaGwZEScA0NQS_c4-75" style="edgeStyle=orthogonalEdgeStyle;rounded=0;orthogonalLoop=1;jettySize=auto;html=1;exitX=0.5;exitY=0;exitDx=0;exitDy=0;entryX=0.5;entryY=1;entryDx=0;entryDy=0;" parent="ZI1UuaGwZEScA0NQS_c4-74" edge="1">
          <mxGeometry relative="1" as="geometry">
            <mxPoint y="39.13580246913582" as="sourcePoint" />
            <mxPoint as="targetPoint" />
          </mxGeometry>
        </mxCell>
        <mxCell id="ZI1UuaGwZEScA0NQS_c4-76" style="edgeStyle=orthogonalEdgeStyle;rounded=0;orthogonalLoop=1;jettySize=auto;html=1;exitX=0.5;exitY=0;exitDx=0;exitDy=0;entryX=0.5;entryY=1;entryDx=0;entryDy=0;startArrow=classic;startFill=1;endArrow=none;endFill=0;" parent="ZI1UuaGwZEScA0NQS_c4-74" edge="1">
          <mxGeometry relative="1" as="geometry">
            <mxPoint x="24.82" y="40" as="sourcePoint" />
            <mxPoint x="24.82" y="1.1111111111112204" as="targetPoint" />
          </mxGeometry>
        </mxCell>
        <mxCell id="ZI1UuaGwZEScA0NQS_c4-77" value="请求任务" style="text;html=1;strokeColor=none;fillColor=none;align=center;verticalAlign=middle;whiteSpace=wrap;rounded=0;" parent="1" vertex="1">
          <mxGeometry x="281" y="280.1" width="60" height="30" as="geometry" />
        </mxCell>
        <mxCell id="ZI1UuaGwZEScA0NQS_c4-78" value="任务状态" style="text;html=1;strokeColor=none;fillColor=none;align=center;verticalAlign=middle;whiteSpace=wrap;rounded=0;" parent="1" vertex="1">
          <mxGeometry x="277.96000000000004" y="321.6" width="61.02" height="25" as="geometry" />
        </mxCell>
        <mxCell id="ZI1UuaGwZEScA0NQS_c4-80" style="edgeStyle=orthogonalEdgeStyle;rounded=0;orthogonalLoop=1;jettySize=auto;html=1;entryX=0;entryY=0.5;entryDx=0;entryDy=0;startArrow=classic;startFill=1;endArrow=none;endFill=0;" parent="1" edge="1">
          <mxGeometry relative="1" as="geometry">
            <mxPoint x="281" y="318" as="sourcePoint" />
            <mxPoint x="339" y="318" as="targetPoint" />
          </mxGeometry>
        </mxCell>
        <mxCell id="ZI1UuaGwZEScA0NQS_c4-81" value="结束" style="text;html=1;strokeColor=none;fillColor=none;align=center;verticalAlign=middle;whiteSpace=wrap;rounded=0;" parent="1" vertex="1">
          <mxGeometry x="196" y="323.59999999999997" width="30" height="13.3" as="geometry" />
        </mxCell>
        <mxCell id="ZI1UuaGwZEScA0NQS_c4-82" style="edgeStyle=orthogonalEdgeStyle;rounded=0;orthogonalLoop=1;jettySize=auto;html=1;startArrow=classic;startFill=1;endArrow=none;endFill=0;" parent="1" edge="1">
          <mxGeometry relative="1" as="geometry">
            <mxPoint x="186.99714285714282" y="321.6" as="sourcePoint" />
            <mxPoint x="230" y="321.9611111111111" as="targetPoint" />
          </mxGeometry>
        </mxCell>
        <mxCell id="ZI1UuaGwZEScA0NQS_c4-83" value="登录控制台" style="text;html=1;strokeColor=none;fillColor=none;align=center;verticalAlign=middle;whiteSpace=wrap;rounded=0;rotation=0;" parent="1" vertex="1">
          <mxGeometry x="196" y="275" width="70" height="19.9" as="geometry" />
        </mxCell>
        <mxCell id="ZI1UuaGwZEScA0NQS_c4-86" value="数据传输" style="text;html=1;strokeColor=none;fillColor=none;align=center;verticalAlign=middle;whiteSpace=wrap;rounded=0;" parent="1" vertex="1">
          <mxGeometry x="340" y="362.6" width="33" height="30" as="geometry" />
        </mxCell>
        <mxCell id="ZI1UuaGwZEScA0NQS_c4-87" value="控制指令" style="text;html=1;strokeColor=none;fillColor=none;align=center;verticalAlign=middle;whiteSpace=wrap;rounded=0;" parent="1" vertex="1">
          <mxGeometry x="419.39" y="350" width="33" height="30" as="geometry" />
        </mxCell>
        <mxCell id="ZI1UuaGwZEScA0NQS_c4-88" value="数据传输" style="text;html=1;strokeColor=none;fillColor=none;align=center;verticalAlign=middle;whiteSpace=wrap;rounded=0;" parent="1" vertex="1">
          <mxGeometry x="259.74" y="476" width="33" height="30" as="geometry" />
        </mxCell>
        <mxCell id="ZI1UuaGwZEScA0NQS_c4-89" value="控制指令" style="text;html=1;strokeColor=none;fillColor=none;align=center;verticalAlign=middle;whiteSpace=wrap;rounded=0;" parent="1" vertex="1">
          <mxGeometry x="331.19" y="476" width="33" height="30" as="geometry" />
        </mxCell>
        <mxCell id="ZI1UuaGwZEScA0NQS_c4-90" value="控制指令" style="text;html=1;strokeColor=none;fillColor=none;align=center;verticalAlign=middle;whiteSpace=wrap;rounded=0;" parent="1" vertex="1">
          <mxGeometry x="445.65" y="476" width="33" height="30" as="geometry" />
        </mxCell>
        <mxCell id="ZI1UuaGwZEScA0NQS_c4-91" value="数据传输" style="text;html=1;strokeColor=none;fillColor=none;align=center;verticalAlign=middle;whiteSpace=wrap;rounded=0;" parent="1" vertex="1">
          <mxGeometry x="383.08" y="476" width="33" height="30" as="geometry" />
        </mxCell>
        <mxCell id="ZI1UuaGwZEScA0NQS_c4-92" value="" style="endArrow=classic;html=1;rounded=0;entryX=-0.002;entryY=0.344;entryDx=0;entryDy=0;entryPerimeter=0;startArrow=none;startFill=0;endFill=1;" parent="1" edge="1">
          <mxGeometry width="50" height="50" relative="1" as="geometry">
            <mxPoint x="468.96000000000004" y="305.03000000000003" as="sourcePoint" />
            <mxPoint x="538.96" y="305.03000000000003" as="targetPoint" />
          </mxGeometry>
        </mxCell>
        <mxCell id="ZI1UuaGwZEScA0NQS_c4-93" value="" style="image;html=1;image=img/lib/clip_art/computers/Server_128x128.png" parent="1" vertex="1">
          <mxGeometry x="361.98" y="280.1" width="80" height="80" as="geometry" />
        </mxCell>
        <mxCell id="ZI1UuaGwZEScA0NQS_c4-94" value="&lt;span style=&quot;background-color: rgb(255, 255, 255);&quot;&gt;&lt;font color=&quot;#000000&quot;&gt;验证评测实验平台&lt;/font&gt;&lt;/span&gt;" style="text;html=1;align=center;verticalAlign=middle;whiteSpace=wrap;rounded=0;fontColor=#3333FF;" parent="1" vertex="1">
          <mxGeometry x="348.97999999999996" y="275" width="106" height="30" as="geometry" />
        </mxCell>
        <mxCell id="Amxki4v6CBnAM0QYsgUi-1" value="" style="image;aspect=fixed;perimeter=ellipsePerimeter;html=1;align=center;shadow=0;dashed=0;spacingTop=3;image=img/lib/active_directory/database_cube.svg;" vertex="1" parent="1">
          <mxGeometry x="544.21" y="161.8" width="52.38" height="58.2" as="geometry" />
        </mxCell>
        <mxCell id="Amxki4v6CBnAM0QYsgUi-2" value="" style="image;aspect=fixed;perimeter=ellipsePerimeter;html=1;align=center;shadow=0;dashed=0;spacingTop=3;image=img/lib/active_directory/databases.svg;" vertex="1" parent="1">
          <mxGeometry x="546.59" y="285.46" width="50" height="49" as="geometry" />
        </mxCell>
        <mxCell id="Amxki4v6CBnAM0QYsgUi-3" value="" style="image;aspect=fixed;perimeter=ellipsePerimeter;html=1;align=center;shadow=0;dashed=0;spacingTop=3;image=img/lib/active_directory/internet_cloud.svg;" vertex="1" parent="1">
          <mxGeometry x="231" y="294.9" width="50" height="31.5" as="geometry" />
        </mxCell>
      </root>
    </mxGraphModel>
  </diagram>
</mxfile>
